<svg width="50" height="50" viewBox="0 0 50 50" fill="none" xmlns="http://www.w3.org/2000/svg">
<path d="M18.7497 20.8333C21.0509 20.8333 22.9163 18.9679 22.9163 16.6667C22.9163 14.3655 21.0509 12.5 18.7497 12.5C16.4485 12.5 14.583 14.3655 14.583 16.6667C14.583 18.9679 16.4485 20.8333 18.7497 20.8333Z" stroke="#9599AB" stroke-width="1.5" stroke-linecap="round" stroke-linejoin="round"/>
<path d="M27.0837 4.16602H18.7503C8.33366 4.16602 4.16699 8.33268 4.16699 18.7493V31.2493C4.16699 41.666 8.33366 45.8327 18.7503 45.8327H31.2503C41.667 45.8327 45.8337 41.666 45.8337 31.2493V20.8327" stroke="#9599AB" stroke-width="1.5" stroke-linecap="round" stroke-linejoin="round"/>
<path d="M32.8125 10.416H44.2708" stroke="#9599AB" stroke-width="1.5" stroke-linecap="round"/>
<path d="M38.542 16.1458V4.6875" stroke="#9599AB" stroke-width="1.5" stroke-linecap="round"/>
<path d="M5.5625 39.4785L15.8333 32.5827C17.4792 31.4785 19.8542 31.6035 21.3333 32.8743L22.0208 33.4785C23.6458 34.8743 26.2708 34.8743 27.8958 33.4785L36.5625 26.041C38.1875 24.6452 40.8125 24.6452 42.4375 26.041L45.8333 28.9577" stroke="#9599AB" stroke-width="1.5" stroke-linecap="round" stroke-linejoin="round"/>
</svg>
