<svg width="14" height="15" viewBox="0 0 14 15" fill="none" xmlns="http://www.w3.org/2000/svg">
<path d="M7.59631 3.52813L7.05047 3.89947C6.88728 4.00075 6.61718 4.00075 6.45399 3.89947L6.31331 3.81507C5.31166 3.1905 3.5222 2.59407 2.34048 2.49841C1.67084 2.44214 1.125 2.94855 1.125 3.61813V10.4152C1.125 10.9554 1.56392 11.4618 2.10414 11.5293L2.26733 11.5518C3.48844 11.715 5.37356 12.3339 6.45399 12.9247L6.4765 12.936C6.62843 13.0204 6.8704 13.0204 7.01671 12.936C8.09714 12.3396 9.98789 11.715 11.2146 11.5518L11.4003 11.5293C11.9405 11.4618 12.3795 10.9554 12.3795 10.4152V4.65348" stroke="#4570EA" stroke-linecap="round" stroke-linejoin="round"/>
<path d="M6.75244 4.08398V12.5241" stroke="#4570EA" stroke-linecap="round" stroke-linejoin="round"/>
<path d="M4.36134 5.77148H3.09521" stroke="#4570EA" stroke-linecap="round" stroke-linejoin="round"/>
<path d="M4.78338 7.46094H3.09521" stroke="#4570EA" stroke-linecap="round" stroke-linejoin="round"/>
<path d="M8.72525 2.97637C8.47635 2.93234 8.47635 2.56904 8.72525 2.52502C9.62696 2.36552 10.3441 1.66718 10.5399 0.758112L10.5549 0.688428C10.6087 0.438313 10.959 0.436756 11.015 0.686384L11.0332 0.767592C11.2361 1.67238 11.9536 2.36481 12.8527 2.52386C13.1029 2.56812 13.1029 2.93326 12.8527 2.97751C11.9536 3.13657 11.2361 3.82901 11.0332 4.73379L11.015 4.815C10.959 5.06463 10.6087 5.06307 10.5549 4.81295L10.5399 4.74327C10.3441 3.83419 9.62696 3.13587 8.72525 2.97637Z" stroke="#4570EA" stroke-linecap="round" stroke-linejoin="round"/>
</svg>
