<svg width="24" height="25" viewBox="0 0 24 25" fill="none" xmlns="http://www.w3.org/2000/svg">
<path d="M9.5 7.25C9.34529 7.25 9.19692 7.31321 9.08752 7.42574C8.97812 7.53826 8.91667 7.69087 8.91667 7.85C8.91667 8.00913 8.97812 8.16174 9.08752 8.27426C9.19692 8.38679 9.34529 8.45 9.5 8.45H13C13.1547 8.45 13.3031 8.38679 13.4125 8.27426C13.5219 8.16174 13.5833 8.00913 13.5833 7.85C13.5833 7.69087 13.5219 7.53826 13.4125 7.42574C13.3031 7.31321 13.1547 7.25 13 7.25H9.5ZM8.33333 13.85C8.33333 14.1683 8.21042 14.4735 7.99162 14.6985C7.77283 14.9236 7.47609 15.05 7.16667 15.05C6.85725 15.05 6.5605 14.9236 6.34171 14.6985C6.12292 14.4735 6 14.1683 6 13.85C6 13.5317 6.12292 13.2265 6.34171 13.0015C6.5605 12.7764 6.85725 12.65 7.16667 12.65C7.47609 12.65 7.77283 12.7764 7.99162 13.0015C8.21042 13.2265 8.33333 13.5317 8.33333 13.85ZM8.33333 18.05C8.33333 18.3683 8.21042 18.6735 7.99162 18.8985C7.77283 19.1236 7.47609 19.25 7.16667 19.25C6.85725 19.25 6.5605 19.1236 6.34171 18.8985C6.12292 18.6735 6 18.3683 6 18.05C6 17.7317 6.12292 17.4265 6.34171 17.2015C6.5605 16.9764 6.85725 16.85 7.16667 16.85C7.47609 16.85 7.77283 16.9764 7.99162 17.2015C8.21042 17.4265 8.33333 17.7317 8.33333 18.05ZM11.25 15.05C11.5594 15.05 11.8562 14.9236 12.075 14.6985C12.2937 14.4735 12.4167 14.1683 12.4167 13.85C12.4167 13.5317 12.2937 13.2265 12.075 13.0015C11.8562 12.7764 11.5594 12.65 11.25 12.65C10.9406 12.65 10.6438 12.7764 10.425 13.0015C10.2062 13.2265 10.0833 13.5317 10.0833 13.85C10.0833 14.1683 10.2062 14.4735 10.425 14.6985C10.6438 14.9236 10.9406 15.05 11.25 15.05ZM12.4167 18.05C12.4167 18.3683 12.2937 18.6735 12.075 18.8985C11.8562 19.1236 11.5594 19.25 11.25 19.25C10.9406 19.25 10.6438 19.1236 10.425 18.8985C10.2062 18.6735 10.0833 18.3683 10.0833 18.05C10.0833 17.7317 10.2062 17.4265 10.425 17.2015C10.6438 16.9764 10.9406 16.85 11.25 16.85C11.5594 16.85 11.8562 16.9764 12.075 17.2015C12.2937 17.4265 12.4167 17.7317 12.4167 18.05ZM15.3333 15.05C15.6428 15.05 15.9395 14.9236 16.1583 14.6985C16.3771 14.4735 16.5 14.1683 16.5 13.85C16.5 13.5317 16.3771 13.2265 16.1583 13.0015C15.9395 12.7764 15.6428 12.65 15.3333 12.65C15.0239 12.65 14.7272 12.7764 14.5084 13.0015C14.2896 13.2265 14.1667 13.5317 14.1667 13.85C14.1667 14.1683 14.2896 14.4735 14.5084 14.6985C14.7272 14.9236 15.0239 15.05 15.3333 15.05Z" fill="#7C8FAC"/>
<path fill-rule="evenodd" clip-rule="evenodd" d="M6.05 2.75C6.22239 2.75 6.38772 2.81705 6.50962 2.93639C6.63152 3.05573 6.7 3.21759 6.7 3.38636V4.65909H15.8V3.38636C15.8 3.21759 15.8685 3.05573 15.9904 2.93639C16.1123 2.81705 16.2776 2.75 16.45 2.75C16.6224 2.75 16.7877 2.81705 16.9096 2.93639C17.0315 3.05573 17.1 3.21759 17.1 3.38636V4.66291C17.4181 4.66545 17.7015 4.67648 17.9502 4.696C18.4247 4.73418 18.8407 4.81436 19.2255 5.00527C19.8369 5.31059 20.3338 5.79755 20.6451 6.39636C20.8414 6.77309 20.9233 7.18036 20.9623 7.64364C21 8.09545 21 8.65164 21 9.34145V19.0676C21 19.7575 21 20.3149 20.9623 20.7642C20.9233 21.2287 20.8414 21.636 20.6451 22.0127C20.3336 22.6111 19.8367 23.0976 19.2255 23.4025C18.8407 23.5947 18.4247 23.6749 17.9515 23.7131C17.49 23.75 16.9219 23.75 16.2186 23.75H6.2827C5.5781 23.75 5.0087 23.75 4.5498 23.7131C4.0753 23.6749 3.6593 23.5947 3.2745 23.4025C2.66286 23.0978 2.16546 22.6113 1.8536 22.0127C1.6586 21.636 1.5767 21.2287 1.5377 20.7655C1.5 20.3136 1.5 19.7562 1.5 19.0664V9.34273C1.5 8.73818 1.5 8.238 1.526 7.81927L1.5377 7.64618C1.5767 7.18164 1.6586 6.77436 1.8536 6.39764C2.16524 5.79863 2.66266 5.31165 3.2745 5.00655C3.6593 4.81564 4.0753 4.73545 4.5485 4.69727C4.79897 4.67776 5.0828 4.66673 5.4 4.66418V3.38636C5.4 3.21759 5.46848 3.05573 5.59038 2.93639C5.71228 2.81705 5.87761 2.75 6.05 2.75ZM5.4 6.56818V5.93564C5.15145 5.93764 4.90302 5.94741 4.6551 5.96491C4.2625 5.99545 4.0363 6.054 3.8647 6.13927C3.49746 6.32236 3.19891 6.61465 3.0119 6.97418C2.9248 7.14218 2.865 7.36364 2.8338 7.748C2.8 8.14127 2.8 8.64527 2.8 9.36818V10.0682H19.7V9.36818C19.7 8.64527 19.7 8.14127 19.6662 7.748C19.635 7.36364 19.5752 7.14218 19.4881 6.97418C19.3011 6.61465 19.0025 6.32236 18.6353 6.13927C18.4637 6.054 18.2375 5.99545 17.8449 5.96491C17.597 5.94741 17.3486 5.93764 17.1 5.93564V6.56818C17.1 6.73696 17.0315 6.89882 16.9096 7.01816C16.7877 7.1375 16.6224 7.20455 16.45 7.20455C16.2776 7.20455 16.1123 7.1375 15.9904 7.01816C15.8685 6.89882 15.8 6.73696 15.8 6.56818V5.93182H6.7V6.56818C6.7 6.73696 6.63152 6.89882 6.50962 7.01816C6.38772 7.1375 6.22239 7.20455 6.05 7.20455C5.87761 7.20455 5.71228 7.1375 5.59038 7.01816C5.46848 6.89882 5.4 6.73696 5.4 6.56818ZM19.7 11.3409H2.8V19.0409C2.8 19.7638 2.8 20.2691 2.8338 20.6611C2.865 21.0455 2.9248 21.2669 3.0119 21.4349C3.19891 21.7944 3.49746 22.0867 3.8647 22.2698C4.0363 22.3551 4.2625 22.4136 4.6551 22.4442C5.0568 22.4773 5.5716 22.4773 6.31 22.4773H16.19C16.9284 22.4773 17.4445 22.4773 17.8449 22.4442C18.2375 22.4136 18.4637 22.3551 18.6353 22.2698C19.0025 22.0867 19.3011 21.7944 19.4881 21.4349C19.5752 21.2669 19.635 21.0455 19.6662 20.6611C19.7 20.2691 19.7 19.7638 19.7 19.0409V11.3409Z" fill="#7C8FAC"/>
</svg>
