<svg width="24" height="25" viewBox="0 0 24 25" fill="none" xmlns="http://www.w3.org/2000/svg">
<path d="M12.0001 8.21471C12.3411 8.21471 12.6682 8.07925 12.9093 7.83813C13.1504 7.59701 13.2859 7.26999 13.2859 6.929C13.2859 6.588 13.1504 6.26098 12.9093 6.01986C12.6682 5.77874 12.3411 5.64328 12.0001 5.64328C11.6592 5.64328 11.3321 5.77874 11.091 6.01986C10.8499 6.26098 10.7144 6.588 10.7144 6.929C10.7144 7.26999 10.8499 7.59701 11.091 7.83813C11.3321 8.07925 11.6592 8.21471 12.0001 8.21471ZM12.763 2.46757C12.542 2.30467 12.2747 2.2168 12.0001 2.2168C11.7256 2.2168 11.4583 2.30467 11.2373 2.46757L3.09443 8.47185C2.09672 9.20814 2.617 10.7921 3.85729 10.7921H4.28586V16.9996C3.77806 17.2112 3.34427 17.5683 3.03919 18.0261C2.73412 18.4839 2.5714 19.0217 2.57157 19.5719V20.8576C2.57157 21.2124 2.85957 21.5004 3.21443 21.5004H20.7859C20.9564 21.5004 21.1199 21.4327 21.2404 21.3121C21.361 21.1916 21.4287 21.0281 21.4287 20.8576V19.5719C21.4287 19.0219 21.2659 18.4842 20.9609 18.0266C20.6558 17.569 20.2221 17.212 19.7144 17.0004V10.7921H20.1421C21.3833 10.7921 21.9036 9.20814 20.905 8.47185L12.763 2.46757ZM5.57157 16.7861V10.7921H7.71443V16.7861H5.57157ZM18.4287 10.7921V16.7861H16.2859V10.7921H18.4287ZM15.0001 10.7921V16.7861H12.643V10.7921H15.0001ZM11.3573 10.7921V16.7861H9.00014V10.7921H11.3573ZM3.85729 9.50642L12.0001 3.50214L20.1421 9.50642H3.85729ZM3.85729 19.5719C3.85729 18.7439 4.52929 18.0719 5.35729 18.0719H18.643C19.471 18.0719 20.143 18.7439 20.143 19.5719V20.2147H3.85729V19.5719Z" fill="#7C8FAC"/>
</svg>
