<svg width="24" height="25" viewBox="0 0 24 25" fill="none" xmlns="http://www.w3.org/2000/svg">
<g clip-path="url(#clip0_902_27320)">
<path d="M12 7.7L18.4 10.9V23.7H5.6V10.9L12 7.7ZM12 7.7V0.5M0 23.7H24M2.4 23.7V14.1H5.6M21.6 23.7V14.1H18.4M10.4 23.7V18.9H13.6V23.7M12 1.3H16.8V4.5H12M12 15.7C11.5757 15.7 11.1687 15.5314 10.8686 15.2314C10.5686 14.9313 10.4 14.5243 10.4 14.1C10.4 13.6757 10.5686 13.2687 10.8686 12.9686C11.1687 12.6686 11.5757 12.5 12 12.5C12.4243 12.5 12.8313 12.6686 13.1314 12.9686C13.4314 13.2687 13.6 13.6757 13.6 14.1C13.6 14.5243 13.4314 14.9313 13.1314 15.2314C12.8313 15.5314 12.4243 15.7 12 15.7Z" stroke="#7C8FAC" stroke-width="1.2"/>
</g>
<defs>
<clipPath id="clip0_902_27320">
<rect width="24" height="24" fill="white" transform="translate(0 0.5)"/>
</clipPath>
</defs>
</svg>
