<svg width="24" height="25" viewBox="0 0 24 25" fill="none" xmlns="http://www.w3.org/2000/svg">
<g clip-path="url(#clip0_902_27330)">
<path d="M11.9332 12.0625C13.7332 12.0625 15.1332 10.6875 15.1332 9C15.1332 7.3125 13.6665 6 11.8665 6C10.0665 6 8.6665 7.375 8.6665 9C8.6665 10.6875 10.1332 12.0625 11.9332 12.0625ZM11.8665 7.25C11.9332 7.25 11.9332 7.25 11.8665 7.25C12.9332 7.25 13.7998 8.0625 13.7998 9.0625C13.7998 10.0625 12.9332 10.8125 11.8665 10.8125C10.7998 10.8125 9.99984 10 9.99984 9.0625C9.99984 8.0625 10.8665 7.25 11.8665 7.25Z" fill="#7C8FAC"/>
<path d="M21.8 11.6873C20.5333 10.6248 18.8667 10.0623 17.1333 10.1248H16.6C16.4667 10.6248 16.2667 11.0623 16 11.4373C16.4 11.3748 16.7333 11.3748 17.1333 11.3748C18.4 11.3123 19.6667 11.6873 20.6667 12.3748V16.8748H22V11.8748L21.8 11.6873Z" fill="#7C8FAC"/>
<path d="M15.5998 6.125C15.9332 5.375 16.8665 5 17.7332 5.3125C18.5332 5.625 18.9332 6.5 18.5998 7.3125C18.3332 7.875 17.7332 8.25 17.1332 8.25C16.9998 8.25 16.7998 8.25 16.6665 8.1875C16.7332 8.5 16.7332 8.8125 16.7332 9.0625V9.4375C16.8665 9.4375 16.9998 9.5 17.1332 9.5C18.7998 9.5 20.1332 8.25 20.1332 6.75C20.1332 5.1875 18.7998 3.9375 17.1998 3.9375C16.1332 3.9375 15.1998 4.4375 14.6665 5.3125C14.9998 5.5 15.3332 5.75 15.5998 6.125Z" fill="#7C8FAC"/>
<path d="M8 11.4998C7.73333 11.1248 7.53333 10.6873 7.4 10.1873H6.86667C5.13333 10.1248 3.46667 10.6873 2.2 11.6873L2 11.8748V16.8748H3.33333V12.3748C4.4 11.6873 5.6 11.3123 6.86667 11.3748C7.26667 11.3748 7.66667 11.4373 8 11.4998Z" fill="#7C8FAC"/>
<path d="M6.86668 9.43736C7.00001 9.43736 7.13334 9.43736 7.26668 9.37486V8.99986C7.26668 8.68736 7.26668 8.37486 7.33334 8.12486C7.20001 8.18736 7.00001 8.18736 6.86668 8.18736C6.00001 8.18736 5.26668 7.49986 5.26668 6.68736C5.26668 5.87486 6.00001 5.18736 6.86668 5.18736C7.53334 5.18736 8.13334 5.56236 8.40001 6.12486C8.66668 5.81236 9.06668 5.49986 9.40001 5.24986C8.53334 3.93736 6.73334 3.49986 5.33334 4.31236C3.93334 5.12486 3.46668 6.81236 4.33334 8.12486C4.86668 8.93736 5.80001 9.43736 6.86668 9.43736Z" fill="#7C8FAC"/>
<path d="M17.3998 15.4379L17.2665 15.2504C15.9332 13.8754 14.0665 13.0629 12.0665 13.1254C10.0665 13.0629 8.13317 13.8754 6.79984 15.2504L6.6665 15.4379V20.1879C6.6665 20.7504 7.13317 21.2504 7.79984 21.2504H16.3332C16.9332 21.2504 17.4665 20.7504 17.4665 20.1879V15.4379H17.3998ZM16.0665 20.0004H7.99984V15.8754C9.0665 14.8754 10.5332 14.3754 12.0665 14.3754C13.5332 14.3129 14.9998 14.8754 16.0665 15.8754V20.0004Z" fill="#7C8FAC"/>
</g>
<defs>
<clipPath id="clip0_902_27330">
<rect width="24" height="22.5" fill="white" transform="translate(0 1.25)"/>
</clipPath>
</defs>
</svg>
