<svg width="38" height="38" viewBox="0 0 38 38" fill="none" xmlns="http://www.w3.org/2000/svg">
<path fill-rule="evenodd" clip-rule="evenodd" d="M18.6207 8.53824C18.8456 8.31366 19.1507 8.1875 19.4688 8.1875C19.7868 8.1875 20.0919 8.31366 20.3168 8.53824L27.5142 15.7258L29.9133 18.1217C30.1318 18.3476 30.2527 18.6502 30.25 18.9643C30.2472 19.2784 30.1211 19.5789 29.8987 19.801C29.6763 20.0231 29.3754 20.1491 29.0609 20.1518C28.7463 20.1545 28.4433 20.0338 28.2171 19.8156C28.0873 19.686 27.8656 19.7779 27.8656 19.9613V27.3541C27.8656 27.9896 27.6129 28.599 27.1629 29.0483C26.713 29.4976 26.1028 29.75 25.4665 29.75H21.8679C21.5497 29.75 21.2446 29.6238 21.0196 29.3991C20.7947 29.1745 20.6683 28.8698 20.6683 28.5521V25.9583C20.6683 25.406 20.2206 24.9583 19.6683 24.9583H19.2692C18.7169 24.9583 18.2692 25.406 18.2692 25.9583V28.5521C18.2692 28.8698 18.1428 29.1745 17.9179 29.3991C17.6929 29.6238 17.3878 29.75 17.0696 29.75H13.471C12.8347 29.75 12.2245 29.4976 11.7746 29.0483C11.3246 28.599 11.0719 27.9896 11.0719 27.3541V19.9613C11.0719 19.7779 10.8502 19.686 10.7204 19.8156C10.4942 20.0338 10.1912 20.1545 9.87663 20.1518C9.56211 20.1491 9.26125 20.0231 9.03884 19.801C8.81643 19.5789 8.69028 19.2784 8.68755 18.9643C8.68481 18.6502 8.80572 18.3476 9.02423 18.1217L11.4233 15.7258L18.6207 8.53824Z" fill="#DFE5EF"/>
</svg>
