<svg width="200" height="200" viewBox="0 0 200 200" fill="none" xmlns="http://www.w3.org/2000/svg">
<path d="M155.318 45.7092H152.892V43.2832H151.171V45.7092H148.745V47.4308H151.171V49.8572H152.892V47.4308H155.318V45.7092Z" fill="#CAD2F9"/>
<path d="M140.694 36.5604H138.935V34.8008H137.686V36.5604H135.927V37.8092H137.686V39.5684H138.935V37.8092H140.694V36.5604Z" fill="#CAD2F9"/>
<path d="M64.6783 65.0916H62.9187V63.332H61.6703V65.0916H59.9111V66.34H61.6703V68.0996H62.9187V66.34H64.6783V65.0916Z" fill="#CAD2F9"/>
<path d="M17.1328 104.794H14.7068V102.367H12.9852V104.794H10.5596V106.515H12.9852V108.941H14.7068V106.515H17.1328V104.794Z" fill="#CAD2F9"/>
<path d="M182.73 62.7065H180.971V60.9473H179.722V62.7065H177.963V63.9553H179.722V65.7145H180.971V63.9553H182.73V62.7065Z" fill="#CAD2F9"/>
<path d="M135.302 51.3078C136.14 51.3078 136.82 50.6286 136.82 49.7906C136.82 48.9527 136.14 48.2734 135.302 48.2734C134.464 48.2734 133.785 48.9527 133.785 49.7906C133.785 50.6286 134.464 51.3078 135.302 51.3078Z" fill="#EEF1FF"/>
<path d="M160.893 35.6024C161.335 35.6024 161.694 35.2437 161.694 34.8012C161.694 34.3587 161.335 34 160.893 34C160.451 34 160.092 34.3587 160.092 34.8012C160.092 35.2437 160.451 35.6024 160.893 35.6024Z" fill="#EEF1FF"/>
<path d="M92.9188 74.6879C92.9188 75.1303 92.56 75.4891 92.1176 75.4891C91.6752 75.4891 91.3164 75.1303 91.3164 74.6879C91.3164 74.2455 91.6752 73.8867 92.1176 73.8867C92.56 73.8867 92.9188 74.2455 92.9188 74.6879Z" fill="#EEF1FF"/>
<path d="M173.314 48.1442C173.314 48.9822 172.634 49.6614 171.796 49.6614C170.958 49.6614 170.279 48.9822 170.279 48.1442C170.279 47.3062 170.958 46.627 171.796 46.627C172.634 46.6266 173.314 47.3062 173.314 48.1442Z" fill="#EEF1FF"/>
<path d="M80.6795 61.2504C80.6795 61.6928 80.3208 62.0516 79.8784 62.0516C79.436 62.0516 79.0771 61.6928 79.0771 61.2504C79.0771 60.808 79.436 60.4492 79.8784 60.4492C80.3208 60.4492 80.6795 60.8076 80.6795 61.2504Z" fill="#EEF1FF"/>
<path d="M57.8553 35.602C57.8553 36.0444 57.4965 36.4032 57.0541 36.4032C56.6117 36.4032 56.2529 36.0444 56.2529 35.602C56.2529 35.1596 56.6117 34.8008 57.0541 34.8008C57.4965 34.8008 57.8553 35.1596 57.8553 35.602Z" fill="#EEF1FF"/>
<path d="M23.4768 82.7516C23.4768 83.5896 22.7976 84.2688 21.9596 84.2688C21.1216 84.2688 20.4424 83.5896 20.4424 82.7516C20.4424 81.9136 21.1216 81.2344 21.9596 81.2344C22.7972 81.2344 23.4768 81.9136 23.4768 82.7516Z" fill="#EEF1FF"/>
<path d="M63.2262 97.5051C64.0641 97.5051 64.7434 96.8258 64.7434 95.9879C64.7434 95.15 64.0641 94.4707 63.2262 94.4707C62.3883 94.4707 61.709 95.15 61.709 95.9879C61.709 96.8258 62.3883 97.5051 63.2262 97.5051Z" fill="#EEF1FF"/>
<path d="M24.4156 45.0324C25.2536 45.0324 25.9328 44.3532 25.9328 43.5152C25.9328 42.6773 25.2536 41.998 24.4156 41.998C23.5777 41.998 22.8984 42.6773 22.8984 43.5152C22.8984 44.3532 23.5777 45.0324 24.4156 45.0324Z" fill="#EEF1FF"/>
<path d="M8.87681 117.551C8.87681 117.994 8.51801 118.352 8.07561 118.352C7.63321 118.352 7.27441 117.994 7.27441 117.551C7.27441 117.109 7.63321 116.75 8.07561 116.75C8.51841 116.75 8.87681 117.109 8.87681 117.551Z" fill="#EEF1FF"/>
<path d="M184.972 145.332C184.972 145.775 184.613 146.134 184.17 146.134C183.728 146.134 183.369 145.775 183.369 145.332C183.369 144.89 183.728 144.531 184.17 144.531C184.613 144.531 184.972 144.89 184.972 145.332Z" fill="#EEF1FF"/>
<path d="M96.8787 174.001C146.493 174.001 186.714 168.64 186.714 162.027C186.714 155.414 146.493 150.053 96.8787 150.053C47.2644 150.053 7.04395 155.414 7.04395 162.027C7.04395 168.64 47.2644 174.001 96.8787 174.001Z" fill="#EDF0FC"/>
<path d="M175.954 93.7975C181.04 95.2691 188.333 91.8135 186.313 87.8791C184.626 84.5935 178.571 90.3999 176.323 92.7343C176.823 91.2847 177.286 89.8223 177.708 88.3483C182.056 85.3611 184.05 77.6267 179.759 76.6535C176.08 75.8191 176.745 84.5691 177.087 87.6287C176.803 88.6455 176.493 89.6551 176.171 90.6603C176.554 86.1379 174.154 81.1931 170.752 82.5023C166.858 84.0011 173.906 92.2807 175.143 93.6887C175.095 93.8227 175.051 93.9579 175.002 94.0915C174.426 95.6651 173.802 97.2219 173.132 98.7583C173.83 94.3415 171.899 89.3755 168.447 90.3511C164.505 91.4655 170.465 100.054 171.726 101.801C171.157 102.963 170.563 104.112 169.933 105.242C169.461 106.087 168.967 106.921 168.459 107.746C170.023 103.232 168.543 97.2491 164.752 97.9991C160.659 98.8087 166.184 108.172 167.16 109.769C165.972 111.537 164.686 113.237 163.297 114.85C165.309 110.475 164.356 104.269 160.479 104.703C156.435 105.155 160.823 114.477 161.821 116.493C160.25 118.155 158.552 119.697 156.737 121.081C159.566 117.207 159.882 110.991 156.016 110.623C151.994 110.241 154.32 120.123 154.907 122.396C153.446 123.381 151.916 124.265 150.32 125.028C149.754 125.299 149.182 125.554 148.602 125.792C148.133 125.985 148.338 126.76 148.815 126.564C151.178 125.591 153.418 124.367 155.52 122.939C159.368 126.632 167.601 126.843 167.547 122.375C167.503 118.709 159.616 121.141 156.513 122.241C158.123 121.073 159.647 119.784 161.077 118.391C161.58 117.9 162.067 117.395 162.547 116.882C167.076 119.68 175.135 118.198 174.17 113.847C173.385 110.304 166.298 114.183 163.428 115.921C165.072 114.066 166.575 112.086 167.95 110.023C172.709 112.337 180.477 110.182 179.162 105.963C178.09 102.525 171.449 106.89 168.693 108.885C169.029 108.357 169.358 107.825 169.677 107.288C170.694 105.58 171.63 103.825 172.499 102.037C177.425 104.041 185.109 101.263 183.449 97.1343C182.042 93.6371 175.235 99.1531 172.909 101.179C173.736 99.4207 174.5 97.6327 175.201 95.8215C175.461 95.1503 175.71 94.4751 175.954 93.7975Z" fill="#E2E6FF"/>
<path d="M24.2668 129.383C23.9916 124.095 18.338 118.336 15.2824 121.533C12.7304 124.203 20.1996 128.022 23.1412 129.382C21.608 129.384 20.0748 129.426 18.5436 129.51C14.2972 126.38 6.33642 127.029 6.82202 131.402C7.23842 135.151 15.288 131.657 18.0672 130.333C19.1208 130.268 20.176 130.23 21.2316 130.205C16.8332 131.325 12.9472 135.212 15.2984 137.997C17.9896 141.185 23.5044 131.814 24.43 130.184C24.5724 130.186 24.7148 130.184 24.8572 130.186C26.5328 130.215 28.2076 130.295 29.8788 130.425C25.4772 131.212 21.4176 134.663 23.4696 137.604C25.8136 140.964 31.9772 132.52 33.214 130.757C34.498 130.913 35.7784 131.099 37.0524 131.324C38.006 131.493 38.9556 131.686 39.9012 131.897C35.124 131.897 29.9556 135.255 31.9052 138.591C34.0108 142.193 41.0484 133.906 42.238 132.461C44.2968 133.004 46.324 133.663 48.3032 134.447C43.5112 133.979 37.9596 136.911 39.6384 140.432C41.3896 144.105 48.7612 136.907 50.3388 135.303C52.424 136.243 54.4368 137.342 56.3396 138.604C51.7524 137.2 45.7752 138.937 46.694 142.71C47.65 146.635 56.2256 141.201 58.1808 139.903C59.59 140.961 60.926 142.116 62.17 143.375C62.6104 143.82 63.0392 144.278 63.4544 144.747C63.7908 145.128 64.4552 144.68 64.1136 144.294C62.4204 142.38 60.5312 140.664 58.4928 139.146C60.7216 134.301 58.2244 126.452 54.0208 127.967C50.572 129.209 55.4524 135.864 57.5072 138.436C55.8764 137.298 54.1596 136.279 52.3752 135.385C51.7472 135.07 51.11 134.775 50.4684 134.489C51.6288 129.294 47.5892 122.165 43.7944 124.502C40.7036 126.405 46.69 131.83 49.2716 133.973C46.9808 133.026 44.6176 132.255 42.218 131.631C42.846 126.376 38.266 119.743 34.71 122.367C31.8132 124.505 38.112 129.351 40.8996 131.301C40.2908 131.157 39.6804 131.021 39.0684 130.895C37.1216 130.493 35.1572 130.183 33.1836 129.948C33.4636 124.637 28.322 118.287 24.9648 121.208C22.1212 123.682 29.5624 128.307 32.238 129.842C30.306 129.636 28.3664 129.499 26.4256 129.43C25.706 129.405 24.9864 129.391 24.2668 129.383Z" fill="#E2E6FF"/>
<path d="M178.316 112.204C179.53 111.476 180.789 110.822 182.08 110.244C188.189 111.188 193.199 107.545 193.199 107.545C186.274 105.45 183.006 108.481 182.016 109.705C181.606 109.891 181.2 110.08 180.802 110.274C178.889 111.205 177.066 112.308 175.352 113.557C179.048 109.509 179.367 104.223 179.367 104.223C172.76 108.622 173.715 113.55 174.006 114.586C172.522 115.78 171.134 117.092 169.859 118.509C172.3 113.13 170.484 107.575 170.484 107.575C166.01 114.024 168.601 118.234 169.291 119.156C168.338 120.268 167.451 121.439 166.644 122.669C166.402 123.037 166.176 123.415 165.948 123.793C167.04 118.079 164.092 113.167 164.092 113.167C161.229 120.283 164.47 123.814 165.437 124.666C164.43 126.447 163.577 128.31 162.866 130.228C163.596 124.828 160.893 120.321 160.893 120.321C157.973 127.581 161.406 131.112 162.296 131.871C161.832 133.303 161.433 134.757 161.115 136.227C161.044 136.554 161.546 136.693 161.616 136.366C162.12 134.039 162.813 131.765 163.692 129.574C169.968 129.327 174.207 124.637 174.207 124.637C168.367 124.13 165.568 126.423 164.335 128.057C165.04 126.49 165.849 124.976 166.759 123.524C172.905 124.728 178.101 121.17 178.101 121.17C172.334 119.246 169.047 121.013 167.536 122.335C168.491 120.938 169.547 119.609 170.705 118.358C176.639 120.277 182.203 117.399 182.203 117.399C177.228 115.025 173.904 115.914 172.088 116.941C172.446 116.597 172.813 116.261 173.189 115.931C174.246 115.007 175.362 114.147 176.525 113.352C182.016 116.374 188.054 114.562 188.054 114.562C183.69 111.374 180.308 111.561 178.316 112.204Z" fill="#EB725F"/>
<path d="M22.4484 149.328C21.0324 149.332 19.6164 149.252 18.2108 149.088C13.4424 145.155 7.27441 145.727 7.27441 145.727C12.156 151.066 16.5148 150.13 17.9908 149.585C18.438 149.634 18.8836 149.679 19.3248 149.716C21.4456 149.893 23.576 149.877 25.6868 149.679C20.4416 151.27 17.4656 155.65 17.4656 155.65C25.3928 155.245 27.0908 150.522 27.3696 149.482C29.256 149.215 31.1192 148.796 32.9396 148.23C28.0924 151.606 26.8148 157.309 26.8148 157.309C33.9552 154.052 33.88 149.109 33.758 147.964C35.1452 147.495 36.5064 146.942 37.8284 146.298C38.2252 146.104 38.6128 145.895 39.0012 145.687C35.1432 150.041 35.166 155.77 35.166 155.77C41.2632 151.116 40.2828 146.425 39.8868 145.198C41.6632 144.181 43.3476 143.016 44.9388 141.73C41.5512 145.999 41.572 151.254 41.572 151.254C47.7924 146.506 46.646 141.717 46.2692 140.61C47.3996 139.616 48.4848 138.57 49.51 137.469C49.7376 137.224 49.3776 136.848 49.1496 137.094C47.528 138.836 45.7696 140.437 43.8952 141.871C38.3736 138.875 32.334 140.74 32.334 140.74C37.0948 144.161 40.6724 143.62 42.5676 142.846C41.1608 143.832 39.6916 144.721 38.1676 145.504C33.5 141.328 27.2156 141.731 27.2156 141.731C31.1888 146.332 34.9176 146.493 36.8924 146.128C35.358 146.842 33.7708 147.445 32.1364 147.928C28.0164 143.246 21.7632 142.876 21.7632 142.876C24.8264 147.459 28.138 148.394 30.224 148.439C29.74 148.552 29.2524 148.654 28.7612 148.744C27.3804 148.999 25.9812 149.168 24.5756 149.256C21.3996 143.853 15.2844 142.325 15.2844 142.325C17.4048 147.294 20.4076 148.862 22.4484 149.328Z" fill="#EB725F"/>
<path d="M165.222 161.931C165.222 162.9 164.429 163.693 163.46 163.693H101.414C100.445 163.693 99.6523 162.9 99.6523 161.931V70.1225C99.6523 69.1537 100.445 68.3613 101.414 68.3613H163.46C164.429 68.3613 165.222 69.1537 165.222 70.1225V161.931Z" fill="#92A6F4"/>
<path d="M162.14 73.4941H102.735V155.035H162.14V73.4941Z" fill="#D0DBF7"/>
<path d="M155.318 79.5859H109.557V148.539H155.318V79.5859Z" fill="#F5F9FF"/>
<path d="M155.318 79.5859H109.557V83.7963H155.318V79.5859Z" fill="#E2E6FF"/>
<path d="M113.231 81.7878C113.231 82.3198 112.8 82.7514 112.267 82.7514C111.735 82.7514 111.304 82.3202 111.304 81.7878C111.304 81.2558 111.735 80.8242 112.267 80.8242C112.799 80.8242 113.231 81.2554 113.231 81.7878Z" fill="#EB725F"/>
<path d="M116.475 81.7878C116.475 82.3198 116.044 82.7514 115.511 82.7514C114.979 82.7514 114.548 82.3202 114.548 81.7878C114.548 81.2558 114.979 80.8242 115.511 80.8242C116.044 80.8242 116.475 81.2554 116.475 81.7878Z" fill="#F9AB43"/>
<path d="M119.719 81.7878C119.719 82.3198 119.288 82.7514 118.756 82.7514C118.224 82.7514 117.792 82.3202 117.792 81.7878C117.792 81.2558 118.223 80.8242 118.756 80.8242C119.288 80.8242 119.719 81.2554 119.719 81.7878Z" fill="#6E7FDD"/>
<path d="M145.579 106.755L141.709 102.885L132.438 112.156L123.166 102.885L119.297 106.755L128.568 116.026L119.297 125.296L123.166 129.166L132.438 119.895L141.709 129.166L145.579 125.296L136.308 116.026L145.579 106.755Z" fill="#E2E6FF"/>
<path d="M124.724 160.818C124.724 161.731 123.977 162.478 123.064 162.478H36.0623C35.1491 162.478 34.4023 161.731 34.4023 160.818V104.545C34.4023 103.632 35.1495 102.885 36.0623 102.885H123.064C123.978 102.885 124.724 103.632 124.724 104.545V160.818Z" fill="#6E7FDD"/>
<path d="M122.083 105.654H37.043V159.707H122.083V105.654Z" fill="#D0DBF7"/>
<path d="M28.5342 157.021V161.816C28.5342 162.848 29.3782 163.692 30.4098 163.692H128.717C129.748 163.692 130.592 162.848 130.592 161.816V157.021H28.5342Z" fill="#6E7FDD"/>
<path d="M64.4521 157.021V158.441C64.4521 158.747 64.7021 158.997 65.0077 158.997H94.1201C94.4257 158.997 94.6757 158.747 94.6757 158.441V157.021H64.4521Z" fill="#92A6F4"/>
<path d="M174.127 153.222C173.854 154.455 172.597 155.463 171.335 155.463H144.563C143.301 155.463 142.044 154.454 141.771 153.222L135.8 126.342C135.527 125.11 136.335 124.102 137.598 124.102H178.301C179.563 124.102 180.372 125.11 180.098 126.342L174.127 153.222Z" fill="#F9AB43"/>
<path d="M163.916 127.305C162.653 127.305 161.273 128.277 160.848 129.466L159.576 133.029C159.151 134.217 157.771 135.19 156.508 135.19H137.078C135.816 135.19 135.051 136.187 135.378 137.407L141.839 161.474C142.166 162.693 143.466 163.691 144.729 163.691H171.253C172.516 163.691 173.816 162.693 174.143 161.474L180.604 137.407C180.931 136.187 181.546 134.217 181.971 133.029L183.244 129.466C183.668 128.277 182.983 127.305 181.72 127.305H163.916Z" fill="#FFCF74"/>
<path opacity="0.1" d="M181.72 127.305H174.561C175.423 129.783 175.897 132.433 175.897 135.19C175.897 148.909 164.344 160.029 150.094 160.029C146.902 160.029 143.848 159.468 141.026 158.448L141.839 161.474C142.166 162.693 143.466 163.691 144.729 163.691H171.253C172.516 163.691 173.816 162.693 174.143 161.474L180.604 137.407C180.931 136.188 181.546 134.218 181.971 133.029L183.244 129.466C183.668 128.277 182.983 127.305 181.72 127.305Z" fill="#0046A0"/>
<path d="M155.319 145.332C155.319 146.664 154.545 147.744 153.591 147.744C152.636 147.744 151.862 146.664 151.862 145.332C151.862 144 152.636 142.92 153.591 142.92C154.545 142.92 155.319 144 155.319 145.332Z" fill="#EB725F"/>
<path d="M166.811 145.332C166.811 146.664 166.037 147.744 165.082 147.744C164.127 147.744 163.354 146.664 163.354 145.332C163.354 144 164.128 142.92 165.082 142.92C166.037 142.92 166.811 144 166.811 145.332Z" fill="#EB725F"/>
<path d="M155.375 152.076C155.968 151.426 156.792 150.916 157.613 150.62C159.689 149.872 161.695 150.654 163.277 152.076C163.699 152.455 164.327 151.832 163.902 151.45C162.149 149.874 159.875 148.949 157.543 149.711C156.521 150.045 155.482 150.648 154.75 151.45C154.367 151.87 154.991 152.497 155.375 152.076Z" fill="#EB725F"/>
<path d="M81.8773 123.82H42.7109V152.712H81.8773V123.82Z" fill="#F8FAFF"/>
<path d="M81.8773 123.82H42.7109V127.424H81.8773V123.82Z" fill="#E2E6FF"/>
<path d="M45.8553 125.706C45.8553 126.161 45.4861 126.53 45.0305 126.53C44.5753 126.53 44.2061 126.161 44.2061 125.706C44.2061 125.25 44.5753 124.881 45.0305 124.881C45.4861 124.881 45.8553 125.25 45.8553 125.706Z" fill="#EB725F"/>
<path d="M48.632 125.706C48.632 126.161 48.2628 126.53 47.8072 126.53C47.3516 126.53 46.9824 126.161 46.9824 125.706C46.9824 125.25 47.3516 124.881 47.8072 124.881C48.2628 124.881 48.632 125.25 48.632 125.706Z" fill="#F9AB43"/>
<path d="M51.4084 125.706C51.4084 126.161 51.0392 126.53 50.5836 126.53C50.128 126.53 49.7588 126.161 49.7588 125.706C49.7588 125.25 50.128 124.881 50.5836 124.881C51.0392 124.881 51.4084 125.25 51.4084 125.706Z" fill="#6E7FDD"/>
<path d="M60.0127 141.775C60.0127 140.568 60.4923 139.627 61.4507 138.952L61.9123 138.633C62.3503 138.349 62.6551 138.115 62.8267 137.931C62.9979 137.748 63.0843 137.52 63.0843 137.248C63.0843 136.561 62.5099 136.218 61.3615 136.218C60.8291 136.218 60.2783 136.289 59.7103 136.431C59.1423 136.573 58.6035 136.775 58.0947 137.035V134.3C59.1835 133.803 60.4031 133.555 61.7523 133.555C63.2083 133.555 64.3623 133.859 65.2143 134.469C66.0667 135.079 66.4927 135.922 66.4927 136.999C66.4927 137.603 66.3567 138.091 66.0847 138.464C65.8123 138.837 65.3507 139.254 64.6999 139.715C64.2619 140.035 63.9419 140.281 63.7411 140.453C63.5399 140.624 63.3891 140.817 63.2887 141.029C63.1879 141.243 63.1379 141.503 63.1379 141.811V142.148H60.0131L60.0127 141.775ZM60.3767 146.028C60.0627 145.714 59.9059 145.327 59.9059 144.865C59.9059 144.391 60.0627 144.001 60.3767 143.693C60.6899 143.385 61.0839 143.231 61.5571 143.231C62.0187 143.231 62.4123 143.388 62.7379 143.702C63.0631 144.016 63.2263 144.403 63.2263 144.865C63.2263 145.327 63.0631 145.715 62.7379 146.028C62.4123 146.342 62.0187 146.499 61.5571 146.499C61.0839 146.498 60.6899 146.341 60.3767 146.028Z" fill="#D0DBF7"/>
<path d="M115.901 111.846H76.7344V140.738H115.901V111.846Z" fill="#F5F9FF"/>
<path d="M115.901 111.846H76.7344V115.449H115.901V111.846Z" fill="#E2E6FF"/>
<path d="M79.0533 114.556C79.5088 114.556 79.8781 114.187 79.8781 113.731C79.8781 113.276 79.5088 112.906 79.0533 112.906C78.5978 112.906 78.2285 113.276 78.2285 113.731C78.2285 114.187 78.5978 114.556 79.0533 114.556Z" fill="#EB725F"/>
<path d="M82.6545 113.731C82.6545 114.187 82.2853 114.556 81.8297 114.556C81.3741 114.556 81.0049 114.187 81.0049 113.731C81.0049 113.275 81.3741 112.906 81.8297 112.906C82.2853 112.906 82.6545 113.275 82.6545 113.731Z" fill="#F9AB43"/>
<path d="M84.607 114.556C85.0625 114.556 85.4318 114.187 85.4318 113.731C85.4318 113.276 85.0625 112.906 84.607 112.906C84.1515 112.906 83.7822 113.276 83.7822 113.731C83.7822 114.187 84.1515 114.556 84.607 114.556Z" fill="#6E7FDD"/>
<path d="M94.0362 129.801C94.0362 128.593 94.5158 127.652 95.4742 126.977L95.9358 126.658C96.3738 126.374 96.6786 126.14 96.8502 125.957C97.0214 125.774 97.1078 125.546 97.1078 125.273C97.1078 124.587 96.5334 124.243 95.385 124.243C94.8526 124.243 94.3022 124.314 93.7338 124.456C93.1658 124.598 92.627 124.8 92.1182 125.06V122.326C93.207 121.828 94.4266 121.58 95.7758 121.58C97.2318 121.58 98.3858 121.885 99.2378 122.494C100.09 123.104 100.516 123.947 100.516 125.024C100.516 125.628 100.38 126.116 100.108 126.489C99.8358 126.862 99.3742 127.279 98.7234 127.741C98.2854 128.06 97.9654 128.306 97.7646 128.478C97.5634 128.65 97.4126 128.842 97.3122 129.055C97.2114 129.268 97.1614 129.528 97.1614 129.836V130.174H94.0366L94.0362 129.801ZM94.4002 134.053C94.0862 133.74 93.9294 133.352 93.9294 132.89C93.9294 132.417 94.0862 132.026 94.4002 131.718C94.7134 131.41 95.1074 131.257 95.5806 131.257C96.0422 131.257 96.4358 131.414 96.7614 131.727C97.0866 132.041 97.2498 132.429 97.2498 132.89C97.2498 133.352 97.0866 133.74 96.7614 134.054C96.4358 134.367 96.0422 134.524 95.5806 134.524C95.1074 134.524 94.7134 134.367 94.4002 134.053Z" fill="#D0DBF7"/>
<path d="M86.966 76.2547L80.764 77.9395L79.0656 71.6875L66.4072 75.1263L72.3176 96.8823L91.2028 91.7515L86.9976 76.2731L86.966 76.2547ZM80.6112 88.7675C80.4372 89.0583 80.1832 89.2491 79.8492 89.3399C79.5068 89.4331 79.1908 89.3971 78.9024 89.2315C78.6136 89.0663 78.424 88.8167 78.3332 88.4827C78.24 88.1403 78.2768 87.8267 78.4436 87.5423C78.6096 87.2579 78.8644 87.0691 79.2072 86.9763C79.5412 86.8855 79.8568 86.9215 80.154 87.0847C80.4512 87.2479 80.6452 87.4963 80.736 87.8303C80.8268 88.1639 80.7848 88.4767 80.6112 88.7675ZM81.5464 82.6371C81.4224 82.9603 81.1704 83.3531 80.7904 83.8151C80.5364 84.1327 80.3532 84.3731 80.2412 84.5367C80.1296 84.7007 80.058 84.8691 80.0272 85.0431C79.9964 85.2171 80.0112 85.4155 80.0716 85.6379L80.138 85.8823L77.8772 86.4967L77.804 86.2271C77.5668 85.3535 77.7288 84.5783 78.2896 83.9015L78.5608 83.5799C78.822 83.2883 78.9968 83.0595 79.0848 82.8927C79.1728 82.7263 79.1904 82.5447 79.1368 82.3475C79.002 81.8507 78.5188 81.7151 77.688 81.9411C77.3024 82.0459 76.9184 82.2055 76.5352 82.4199C76.1524 82.6343 75.802 82.8859 75.4848 83.1739L74.9472 81.1955C75.6372 80.6219 76.4708 80.2023 77.4472 79.9371C78.5004 79.6511 79.3956 79.6447 80.132 79.9179C80.8684 80.1915 81.3424 80.7179 81.554 81.4971C81.672 81.9339 81.6696 82.3135 81.5464 82.6371Z" fill="#E2E6FF"/>
<path d="M80.2705 71.9551L81.5289 76.5867L86.1229 75.3387L80.2705 71.9551Z" fill="#E2E6FF"/>
<path d="M122.131 51.4644L113.781 48.7904L116.477 40.3732L99.4353 34.916L90.0557 64.206L115.481 72.348L122.154 51.5096L122.131 51.4644ZM105.571 61.0712C105.156 61.2752 104.724 61.3052 104.274 61.1612C103.813 61.0136 103.478 60.738 103.271 60.3348C103.063 59.9316 103.031 59.5048 103.175 59.0552C103.323 58.5944 103.597 58.2624 103.999 58.0604C104.4 57.8584 104.832 57.8312 105.293 57.9788C105.743 58.1228 106.077 58.3984 106.297 58.8052C106.516 59.2124 106.554 59.6408 106.41 60.0904C106.265 60.5404 105.986 60.8672 105.571 61.0712ZM111.19 54.7476C110.808 55.0256 110.229 55.288 109.451 55.5348C108.924 55.7096 108.536 55.8492 108.287 55.9536C108.037 56.058 107.83 56.198 107.666 56.3744C107.501 56.5508 107.371 56.7888 107.275 57.088L107.17 57.4168L104.126 56.442L104.242 56.0788C104.619 54.9024 105.38 54.1356 106.524 53.7772L107.073 53.61C107.588 53.47 107.958 53.3376 108.183 53.2124C108.407 53.0872 108.562 52.892 108.647 52.6268C108.861 51.958 108.408 51.4444 107.29 51.0864C106.771 50.9204 106.213 50.818 105.615 50.7788C105.018 50.74 104.43 50.768 103.853 50.8628L104.706 48.1992C105.921 48.0548 107.186 48.1932 108.501 48.614C109.919 49.068 110.948 49.7252 111.588 50.5848C112.228 51.4448 112.38 52.3988 112.044 53.448C111.857 54.0364 111.572 54.4692 111.19 54.7476Z" fill="#E2E6FF"/>
<path d="M117.657 41.5742L115.66 47.8094L121.845 49.7902L117.657 41.5742Z" fill="#E2E6FF"/>
<path d="M171.797 83.1062C171.797 84.9374 170.298 86.4358 168.467 86.4358H132.784C130.953 86.4358 129.454 84.9374 129.454 83.1062V60.7534C129.454 58.9222 130.953 57.4238 132.784 57.4238H168.467C170.298 57.4238 171.797 58.9222 171.797 60.7534V83.1062Z" fill="#EB725F"/>
<path d="M160.323 81.7834H140.927C139.834 81.7834 138.97 81.3462 138.557 80.5846C138.145 79.8226 138.251 78.8606 138.849 77.9446L148.296 63.4706C148.874 62.5846 149.723 62.0762 150.625 62.0762C151.527 62.0762 152.376 62.5846 152.954 63.4702L162.401 77.9442C162.999 78.8598 163.105 79.8222 162.693 80.5842C162.28 81.3466 161.417 81.7834 160.323 81.7834ZM140.566 79.0658C140.354 79.3906 140.351 79.5786 140.363 79.6114C140.38 79.6318 140.54 79.7326 140.927 79.7326H160.323C160.711 79.7326 160.87 79.6318 160.891 79.605C160.899 79.5786 160.896 79.3902 160.684 79.0658L151.237 64.5918C151.047 64.301 150.818 64.1274 150.625 64.1274C150.432 64.1274 150.203 64.301 150.013 64.5918L140.566 79.0658Z" fill="white"/>
<path d="M150.03 77.8593C149.874 77.7029 149.796 77.5093 149.796 77.2789C149.796 77.0485 149.874 76.8553 150.03 76.6985C150.187 76.5417 150.38 76.4633 150.611 76.4633C150.841 76.4633 151.037 76.5417 151.198 76.6985C151.359 76.8553 151.44 77.0485 151.44 77.2789C151.44 77.5093 151.359 77.7025 151.198 77.8593C151.037 78.0157 150.841 78.0941 150.611 78.0941C150.38 78.0941 150.187 78.0157 150.03 77.8593ZM149.547 68.2285H151.702L151.302 75.1233H149.947L149.547 68.2285Z" fill="white"/>
<path d="M57.054 111.528C57.054 113.046 55.8124 114.288 54.2944 114.288H24.7196C23.202 114.288 21.96 113.046 21.96 111.528V93.0018C21.96 91.4842 23.202 90.2422 24.7196 90.2422H54.2948C55.8128 90.2422 57.0544 91.4842 57.0544 93.0018V111.528H57.054Z" fill="#EB725F"/>
<path d="M39.5063 92.6602C34.2107 92.6602 29.9023 96.9686 29.9023 102.264C29.9023 107.56 34.2107 111.869 39.5063 111.869C44.8019 111.869 49.1103 107.56 49.1103 102.264C49.1107 96.9686 44.8023 92.6602 39.5063 92.6602ZM39.5063 94.4714C41.3291 94.4714 43.0067 95.1022 44.3355 96.1546L33.3967 107.093C32.3443 105.765 31.7135 104.087 31.7135 102.264C31.7135 97.9674 35.2091 94.4714 39.5063 94.4714ZM39.5063 110.058C37.6835 110.058 36.0059 109.427 34.6771 108.374L45.6159 97.4354C46.6687 98.7642 47.2995 100.442 47.2995 102.265C47.2995 106.561 43.8035 110.058 39.5063 110.058Z" fill="white"/>
<path d="M126.85 150.277L104.625 160.898L105.881 163.527L128.106 152.906L126.85 150.277Z" fill="#EB725F"/>
<path d="M126.852 150.274L118.594 154.221L119.85 156.849L128.108 152.903L126.852 150.274Z" fill="#FFCF74"/>
<path d="M148.332 141.623C145.377 135.439 137.968 132.821 131.783 135.776C125.599 138.731 122.981 146.141 125.936 152.325C128.892 158.509 136.301 161.127 142.485 158.172C148.67 155.216 151.287 147.807 148.332 141.623ZM128.377 151.159C126.066 146.322 128.113 140.528 132.95 138.217C137.786 135.906 143.58 137.953 145.891 142.79C148.202 147.626 146.155 153.42 141.318 155.731C136.482 158.042 130.688 155.995 128.377 151.159Z" fill="#EB725F"/>
<path opacity="0.3" d="M139.277 156.45C144.505 155.268 147.785 150.071 146.602 144.843C145.42 139.615 140.223 136.335 134.995 137.517C129.767 138.7 126.487 143.896 127.669 149.125C128.852 154.353 134.049 157.633 139.277 156.45Z" fill="#F5F9FF"/>
<path d="M136.966 144.694C135.558 145.367 133.87 144.771 133.198 143.363C132.525 141.955 133.121 140.268 134.529 139.595C135.937 138.922 137.624 139.518 138.297 140.926C138.97 142.334 138.374 144.022 136.966 144.694Z" fill="white"/>
<path d="M72.4241 50.2052C72.8169 48.5176 73.7937 47.358 75.3529 46.7264L76.1021 46.4304C76.8069 46.176 77.3089 45.9484 77.6085 45.748C77.9077 45.5476 78.1025 45.2568 78.1909 44.8764C78.4145 43.9168 77.7229 43.25 76.1181 42.8764C75.3737 42.7032 74.5813 42.6236 73.7405 42.6372C72.9005 42.6508 72.0821 42.7572 71.2857 42.9552L72.1753 39.1332C73.8589 38.7928 75.6445 38.842 77.5305 39.2812C79.5657 39.7548 81.0801 40.5568 82.0725 41.686C83.0657 42.8156 83.3865 44.1332 83.0361 45.6384C82.8397 46.4824 82.4905 47.1204 81.9889 47.5532C81.4865 47.9856 80.7057 48.4184 79.6457 48.852C78.9293 49.1564 78.4025 49.3956 78.0653 49.5704C77.7281 49.7448 77.4545 49.9644 77.2449 50.2296C77.0345 50.4948 76.8797 50.8424 76.7797 51.272L76.6697 51.744L72.3017 50.7272L72.4241 50.2052ZM71.5493 56.2676C71.2125 55.7272 71.1197 55.134 71.2697 54.4888C71.4237 53.8272 71.7701 53.332 72.3089 53.004C72.8469 52.6756 73.4477 52.5888 74.1093 52.7428C74.7545 52.8928 75.2537 53.2404 75.6069 53.7844C75.9593 54.3292 76.0609 54.9236 75.9109 55.5692C75.7609 56.2148 75.4065 56.7036 74.8501 57.036C74.2929 57.3684 73.6917 57.4596 73.0465 57.3092C72.3849 57.1552 71.8853 56.808 71.5493 56.2676Z" fill="#D0DBF7"/>
<path d="M42.9624 83.4752C42.51 82.5504 42.5244 81.65 43.0056 80.7736L43.2396 80.356C43.4688 79.9744 43.6148 79.6812 43.6772 79.4764C43.7396 79.2716 43.7204 79.0648 43.6184 78.8564C43.3612 78.3308 42.7924 78.2828 41.9132 78.7132C41.5052 78.9128 41.1104 79.1736 40.7284 79.4952C40.3468 79.8168 40.0096 80.1728 39.7172 80.5628L38.6924 78.4684C39.34 77.6796 40.1808 77.0324 41.2144 76.5268C42.3296 75.9812 43.328 75.7824 44.2088 75.93C45.09 76.0776 45.7324 76.564 46.136 77.3888C46.3624 77.8512 46.4408 78.276 46.3724 78.6636C46.3032 79.0512 46.106 79.544 45.7808 80.1412C45.5652 80.5504 45.4124 80.858 45.3224 81.0652C45.2328 81.272 45.1888 81.476 45.192 81.6768C45.1948 81.878 45.254 82.096 45.3692 82.3316L45.4956 82.5904L43.102 83.7616L42.9624 83.4752ZM44.8348 86.5956C44.4768 86.4732 44.2112 86.2348 44.0384 85.8812C43.8612 85.5188 43.8348 85.1608 43.96 84.8072C44.0844 84.454 44.3288 84.1884 44.6912 84.0112C45.0448 83.8384 45.4052 83.8108 45.772 83.9288C46.1388 84.0476 46.4088 84.2832 46.5816 84.6368C46.7548 84.9904 46.7752 85.3484 46.6436 85.7104C46.5116 86.0728 46.2688 86.34 45.9152 86.5132C45.5528 86.6908 45.192 86.7184 44.8348 86.5956Z" fill="#D0DBF7"/>
<path d="M38.9792 65.9859V64.4171H36.9908C36.8596 63.5247 36.5096 62.7055 35.9952 62.0131L37.4012 60.6071L36.292 59.4979L34.886 60.9039C34.1936 60.3895 33.3744 60.0395 32.482 59.9083V57.9199H30.9132V59.9083C30.0208 60.0395 29.2016 60.3891 28.5092 60.9039L27.1032 59.4979L25.994 60.6071L27.4 62.0131C26.8856 62.7055 26.5356 63.5247 26.4044 64.4171H24.416V65.9859H26.4044C26.5356 66.8783 26.8856 67.6975 27.4 68.3899L25.994 69.7959L27.1032 70.9051L28.5092 69.4991C29.2016 70.0135 30.0208 70.3635 30.9132 70.4947V72.4831H32.482V70.4947C33.3744 70.3635 34.1936 70.0135 34.886 69.4991L36.292 70.9051L37.4012 69.7959L35.9952 68.3899C36.5096 67.6975 36.8596 66.8783 36.9908 65.9859H38.9792ZM31.6972 68.5187C29.8652 68.5187 28.38 67.0335 28.38 65.2015C28.38 63.3695 29.8652 61.8843 31.6972 61.8843C33.5292 61.8843 35.0144 63.3695 35.0144 65.2015C35.0144 67.0335 33.5296 68.5187 31.6972 68.5187Z" fill="#FFCF74"/>
<path d="M55.8841 56.3204V54.1252H53.1017C52.9181 52.8764 52.4285 51.73 51.7085 50.7612L53.6757 48.794L52.1233 47.2416L50.1561 49.2088C49.1873 48.4888 48.0409 47.9996 46.7921 47.8156V45.0332H44.5969V47.8156C43.3481 47.9992 42.2017 48.4888 41.2329 49.2088L39.2657 47.2416L37.7133 48.794L39.6805 50.7612C38.9605 51.73 38.4709 52.8764 38.2873 54.1252H35.5049V56.3204H38.2873C38.4709 57.5692 38.9605 58.7156 39.6805 59.6844L37.7133 61.6516L39.2657 63.204L41.2329 61.2368C42.2017 61.9568 43.3481 62.446 44.5969 62.63V65.4124H46.7921V62.63C48.0409 62.4464 49.1873 61.9568 50.1561 61.2368L52.1233 63.204L53.6757 61.6516L51.7085 59.6844C52.4285 58.7156 52.9177 57.5692 53.1017 56.3204H55.8841ZM45.6945 59.8648C43.1309 59.8648 41.0525 57.7864 41.0525 55.2228C41.0525 52.6592 43.1309 50.5808 45.6945 50.5808C48.2581 50.5808 50.3361 52.6588 50.3361 55.2228C50.3365 57.7864 48.2581 59.8648 45.6945 59.8648Z" fill="#F9AB43"/>
</svg>
