<svg width="32" height="33" viewBox="0 0 32 33" fill="none" xmlns="http://www.w3.org/2000/svg">
<path d="M15.3333 5.8335C13.2562 5.8335 11.2642 6.66156 9.79548 8.13553C8.32678 9.6095 7.50166 11.6086 7.50166 13.6931V17.6544C7.50183 17.8286 7.46161 18.0004 7.38419 18.1563L5.46321 22.0109C5.36938 22.1992 5.32507 22.4085 5.3345 22.6188C5.34392 22.8292 5.40677 23.0336 5.51708 23.2127C5.62738 23.3918 5.78148 23.5396 5.96473 23.6421C6.14799 23.7446 6.35431 23.7984 6.56411 23.7984H24.1024C24.3122 23.7984 24.5185 23.7446 24.7018 23.6421C24.885 23.5396 25.0391 23.3918 25.1494 23.2127C25.2597 23.0336 25.3226 22.8292 25.332 22.6188C25.3414 22.4085 25.2971 22.1992 25.2033 22.0109L23.2834 18.1563C23.2056 18.0005 23.165 17.8287 23.1648 17.6544V13.6931C23.1648 11.6086 22.3397 9.6095 20.871 8.13553C19.4023 6.66156 17.4103 5.8335 15.3333 5.8335ZM15.3333 27.1668C14.6389 27.1672 13.9615 26.9514 13.3944 26.5492C12.8273 26.147 12.3985 25.5782 12.1671 24.9212H18.4995C18.268 25.5782 17.8392 26.147 17.2721 26.5492C16.705 26.9514 16.0276 27.1672 15.3333 27.1668Z" fill="#5D87FF"/>
</svg>
