<svg width="24" height="24" viewBox="0 0 24 24" fill="none" xmlns="http://www.w3.org/2000/svg">
<path d="M17.7241 8.31712L17.7248 8.31779C18.0917 8.68474 18.0917 9.27879 17.7248 9.64573L16.9775 10.3929L14.6067 8.02235L15.1343 7.49488H15.1369L15.3566 7.27524C15.7235 6.90832 16.3175 6.90825 16.6846 7.27503C16.6846 7.2751 16.6847 7.27517 16.6848 7.27524L17.7241 8.31712ZM7.32693 15.3042L7.32704 15.3041L12.9496 9.67958L15.3202 12.0499L9.69261 17.6746L9.69249 17.6747C9.50822 17.859 9.27743 17.9958 9.02246 18.072C9.02214 18.0721 9.02182 18.0721 9.02151 18.0722L6.05543 18.945L6.92941 15.9751C6.92952 15.9748 6.92962 15.9744 6.92973 15.9741C7.00585 15.7192 7.14267 15.4885 7.32693 15.3042Z" stroke="#7C8FAC" stroke-width="1.5"/>
</svg>
