<svg width="38" height="38" viewBox="0 0 38 38" fill="none" xmlns="http://www.w3.org/2000/svg">
<path d="M19.5665 8.19987V12.0999C19.5665 12.7894 19.8405 13.4507 20.3281 13.9383C20.8156 14.4259 21.477 14.6998 22.1665 14.6998H26.9334V17.9682C26.9334 17.9682 25.2 16.8667 23.0333 17.7333C20.426 18.7762 20.8667 22.0667 20.8667 22.0667C20.8667 23.3667 22.6 24.6668 22.6 24.6668V25.5334C22.6 25.5334 20.7513 25.5334 19.5667 25.5334C18.2667 25.5334 17.4 27.2668 17.4 28.5668C17.4 28.693 17.3625 29.3225 17.3566 29.7009C17.3508 30.0718 17.3566 30.2392 17.3566 30.2996H11.1166C10.5994 30.2996 10.1035 30.0942 9.73776 29.7285C9.37207 29.3628 9.16663 28.8668 9.16663 28.3496V10.1498C9.16663 9.63268 9.37207 9.1367 9.73776 8.77101C10.1035 8.40532 10.5994 8.19987 11.1166 8.19987H19.5665ZM21.5165 8.84986V12.0999C21.5165 12.2723 21.585 12.4376 21.7069 12.5595C21.8288 12.6814 21.9941 12.7499 22.1665 12.7499H26.9334L21.5165 8.84986Z" fill="#4570EA"/>
<path d="M26.5362 23.6639V26.2554H28.8112C29.3475 26.2554 29.8619 26.4685 30.2411 26.8478C30.6203 27.227 30.8334 27.7414 30.8334 28.2777H18.7C18.7 27.7414 18.9131 27.227 19.2923 26.8478C19.6716 26.4685 20.1859 26.2554 20.7222 26.2554H22.9973V23.6639C22.4758 23.2894 22.0866 22.7591 21.8857 22.1493C21.6848 21.5395 21.6825 20.8817 21.8793 20.2706C22.076 19.6595 22.4615 19.1265 22.9804 18.7484C23.4993 18.3703 24.1247 18.1666 24.7667 18.1666C25.4087 18.1666 26.0342 18.3703 26.553 18.7484C27.0719 19.1265 27.4574 19.6595 27.6541 20.2706C27.8509 20.8817 27.8486 21.5395 27.6477 22.1493C27.4468 22.7591 27.0576 23.2894 26.5362 23.6639ZM18.7 30.3V29.2889H30.8334V30.3H18.7Z" fill="#4570EA"/>
</svg>
