<svg width="39" height="38" viewBox="0 0 39 38" fill="none" xmlns="http://www.w3.org/2000/svg">
<path d="M19.7332 8.19987V12.0999C19.7332 12.7894 20.0071 13.4507 20.4947 13.9383C20.9823 14.4259 21.6436 14.6998 22.3331 14.6998H27.1V17.9682C27.1 17.9682 25.3666 16.8667 23.2 17.7333C20.5927 18.7762 21.0333 22.0667 21.0333 22.0667C21.0333 23.3667 22.7666 24.6668 22.7666 24.6668V25.5334C22.7666 25.5334 20.9179 25.5334 19.7333 25.5334C18.4333 25.5334 17.5666 27.2668 17.5666 28.5668C17.5666 28.693 17.5291 29.3225 17.5232 29.7009C17.5174 30.0718 17.5232 30.2392 17.5232 30.2996H11.2832C10.7661 30.2996 10.2701 30.0942 9.90439 29.7285C9.5387 29.3628 9.33325 28.8668 9.33325 28.3496V10.1498C9.33325 9.63268 9.5387 9.1367 9.90439 8.77101C10.2701 8.40532 10.7661 8.19987 11.2832 8.19987H19.7332ZM21.6831 8.84986V12.0999C21.6831 12.2723 21.7516 12.4376 21.8735 12.5595C21.9954 12.6814 22.1608 12.7499 22.3331 12.7499H27.1L21.6831 8.84986Z" fill="#DFE5EF"/>
<path d="M26.7028 23.6639V26.2554H28.9778C29.5141 26.2554 30.0285 26.4685 30.4077 26.8478C30.787 27.227 31 27.7414 31 28.2777H18.8666C18.8666 27.7414 19.0797 27.227 19.4589 26.8478C19.8382 26.4685 20.3525 26.2554 20.8889 26.2554H23.1639V23.6639C22.6424 23.2894 22.2532 22.7591 22.0523 22.1493C21.8514 21.5395 21.8492 20.8817 22.0459 20.2706C22.2426 19.6595 22.6281 19.1265 23.147 18.7484C23.6659 18.3703 24.2913 18.1666 24.9333 18.1666C25.5753 18.1666 26.2008 18.3703 26.7197 18.7484C27.2385 19.1265 27.6241 19.6595 27.8208 20.2706C28.0175 20.8817 28.0152 21.5395 27.8143 22.1493C27.6134 22.7591 27.2242 23.2894 26.7028 23.6639ZM18.8666 30.3V29.2889H31V30.3H18.8666Z" fill="#DFE5EF"/>
</svg>
