<svg width="24" height="25" viewBox="0 0 24 25" fill="none" xmlns="http://www.w3.org/2000/svg">
<path d="M19 21.25C19.2652 21.25 19.5196 21.1446 19.7071 20.9571C19.8946 20.7696 20 20.5152 20 20.25V19.004C20.004 16.198 16.026 14 12 14C7.974 14 4 16.198 4 19.004V20.25C4 20.5152 4.10536 20.7696 4.29289 20.9571C4.48043 21.1446 4.73478 21.25 5 21.25H19ZM15.604 7.354C15.604 7.82728 15.5108 8.29593 15.3297 8.73319C15.1485 9.17045 14.8831 9.56775 14.5484 9.90241C14.2138 10.2371 13.8164 10.5025 13.3792 10.6837C12.9419 10.8648 12.4733 10.958 12 10.958C11.5267 10.958 11.0581 10.8648 10.6208 10.6837C10.1836 10.5025 9.78625 10.2371 9.45159 9.90241C9.11692 9.56775 8.85146 9.17045 8.67034 8.73319C8.48922 8.29593 8.396 7.82728 8.396 7.354C8.396 6.39816 8.77571 5.48147 9.45159 4.80559C10.1275 4.12971 11.0442 3.75 12 3.75C12.9558 3.75 13.8725 4.12971 14.5484 4.80559C15.2243 5.48147 15.604 6.39816 15.604 7.354Z" stroke="#7C8FAC" stroke-width="1.64" stroke-linecap="round" stroke-linejoin="round"/>
</svg>
