<svg width="24" height="25" viewBox="0 0 24 25" fill="none" xmlns="http://www.w3.org/2000/svg">
<g clip-path="url(#clip0_11289_150392)">
<path d="M10.8848 1.35742H21.6889C22.4925 1.35742 23.1439 2.0089 23.1439 2.81254V14.4331C23.1439 15.2368 22.4925 15.8883 21.6889 15.8883H12.8569" stroke="#2A3547" stroke-width="1.3" stroke-linecap="round" stroke-linejoin="round"/>
<path d="M5.39739 7.35926C7.05476 7.35926 8.39832 6.0157 8.39832 4.35833C8.39832 2.70098 7.05476 1.35742 5.39739 1.35742C3.74004 1.35742 2.39648 2.70098 2.39648 4.35833C2.39648 6.0157 3.74004 7.35926 5.39739 7.35926Z" stroke="#2A3547" stroke-width="1.3" stroke-linecap="round" stroke-linejoin="round"/>
<path d="M15.4284 9.97622C15.4284 9.00343 14.6398 8.21484 13.667 8.21484H5.39796C2.89003 8.21484 0.856935 10.2479 0.856934 12.7559V16.7863H2.80308L3.4518 23.6434H7.3441L8.83908 11.7376H13.667C14.6398 11.7376 15.4284 10.949 15.4284 9.97622Z" stroke="#2A3547" stroke-width="1.3" stroke-linecap="round" stroke-linejoin="round"/>
</g>
<defs>
<clipPath id="clip0_11289_150392">
<rect width="24" height="24" fill="white" transform="translate(0 0.5)"/>
</clipPath>
</defs>
</svg>
