<svg width="24" height="25" viewBox="0 0 24 25" fill="none" xmlns="http://www.w3.org/2000/svg">
<path fill-rule="evenodd" clip-rule="evenodd" d="M8.172 16.3295C12.017 20.1745 15.58 20.5955 16.626 20.6345C17.89 20.6805 19.18 19.6485 19.738 18.5915C18.848 17.5475 17.689 16.7375 16.42 15.8595C15.671 16.6075 14.748 17.9975 13.519 17.4995C12.82 17.2185 11.094 16.4235 9.586 14.9145C8.078 13.4055 7.283 11.6805 7 10.9825C6.502 9.75146 7.896 8.82646 8.645 8.07746C7.767 6.78746 6.971 5.59846 5.929 4.75346C4.857 5.31346 3.819 6.59346 3.866 7.87446C3.905 8.92046 4.326 12.4835 8.172 16.3295ZM16.552 22.6335C15.112 22.5805 11.031 22.0165 6.757 17.7435C2.484 13.4695 1.921 9.38946 1.867 7.94846C1.787 5.75246 3.469 3.61946 5.412 2.78646C5.64598 2.68543 5.9022 2.64696 6.15553 2.67484C6.40886 2.70271 6.65059 2.79597 6.857 2.94546C8.465 4.11846 9.574 5.89546 10.527 7.28746C10.7252 7.57691 10.8161 7.92656 10.7837 8.2759C10.7514 8.62525 10.598 8.9523 10.35 9.20046L8.994 10.5575C9.309 11.2525 9.95 12.4505 11 13.5005C12.05 14.5505 13.248 15.1915 13.944 15.5065L15.299 14.1505C15.5478 13.9014 15.8763 13.7478 16.2269 13.7166C16.5776 13.6853 16.9281 13.7784 17.217 13.9795C18.637 14.9635 20.305 16.0565 21.521 17.6135C21.6826 17.8214 21.7854 18.0689 21.8187 18.3301C21.8519 18.5913 21.8144 18.8567 21.71 19.0985C20.873 21.0515 18.755 22.7145 16.552 22.6335Z" fill="#7C8FAC"/>
</svg>
