<svg width="38" height="39" viewBox="0 0 38 39" fill="none" xmlns="http://www.w3.org/2000/svg">
<path d="M18.5 20.6875C21.4502 20.6875 23.8438 18.2939 23.8438 15.3438C23.8438 12.3936 21.4502 10 18.5 10C15.5498 10 13.1562 12.3936 13.1562 15.3438C13.1562 18.2939 15.5498 20.6875 18.5 20.6875ZM23.25 21.875H21.2053C20.3814 22.2535 19.4648 22.4688 18.5 22.4688C17.5352 22.4688 16.6223 22.2535 15.7947 21.875H13.75C11.1264 21.875 9 24.0014 9 26.625V27.2188C9 28.2021 9.79785 29 10.7812 29H26.2188C27.2021 29 28 28.2021 28 27.2188V26.625C28 24.0014 25.8736 21.875 23.25 21.875Z" fill="#DFE5EF"/>
</svg>
