<svg width="38" height="38" viewBox="0 0 38 38" fill="none" xmlns="http://www.w3.org/2000/svg">
<path d="M18.5 20.1875C21.4502 20.1875 23.8438 17.7939 23.8438 14.8438C23.8438 11.8936 21.4502 9.5 18.5 9.5C15.5498 9.5 13.1562 11.8936 13.1562 14.8438C13.1562 17.7939 15.5498 20.1875 18.5 20.1875ZM23.25 21.375H21.2053C20.3814 21.7535 19.4648 21.9688 18.5 21.9688C17.5352 21.9688 16.6223 21.7535 15.7947 21.375H13.75C11.1264 21.375 9 23.5014 9 26.125V26.7188C9 27.7021 9.79785 28.5 10.7812 28.5H26.2188C27.2021 28.5 28 27.7021 28 26.7188V26.125C28 23.5014 25.8736 21.375 23.25 21.375Z" fill="#4570EA"/>
</svg>
