<svg width="38" height="39" viewBox="0 0 38 39" fill="none" xmlns="http://www.w3.org/2000/svg">
<path fill-rule="evenodd" clip-rule="evenodd" d="M18.6207 9.03824C18.8456 8.81366 19.1507 8.6875 19.4688 8.6875C19.7868 8.6875 20.0919 8.81366 20.3168 9.03824L27.5142 16.2258L29.9133 18.6217C30.1318 18.8476 30.2527 19.1502 30.25 19.4643C30.2472 19.7784 30.1211 20.0789 29.8987 20.301C29.6763 20.5231 29.3754 20.6491 29.0609 20.6518C28.7463 20.6545 28.4433 20.5338 28.2171 20.3156C28.0873 20.186 27.8656 20.2779 27.8656 20.4613V27.8541C27.8656 28.4896 27.6129 29.099 27.1629 29.5483C26.713 29.9976 26.1028 30.25 25.4665 30.25H21.8679C21.5497 30.25 21.2446 30.1238 21.0196 29.8991C20.7947 29.6745 20.6683 29.3698 20.6683 29.0521V26.4583C20.6683 25.906 20.2206 25.4583 19.6683 25.4583H19.2692C18.7169 25.4583 18.2692 25.906 18.2692 26.4583V29.0521C18.2692 29.3698 18.1428 29.6745 17.9179 29.8991C17.6929 30.1238 17.3878 30.25 17.0696 30.25H13.471C12.8347 30.25 12.2245 29.9976 11.7746 29.5483C11.3246 29.099 11.0719 28.4896 11.0719 27.8541V20.4613C11.0719 20.2779 10.8502 20.186 10.7204 20.3156C10.4942 20.5338 10.1912 20.6545 9.87663 20.6518C9.56211 20.6491 9.26125 20.5231 9.03884 20.301C8.81643 20.0789 8.69028 19.7784 8.68755 19.4643C8.68481 19.1502 8.80572 18.8476 9.02423 18.6217L11.4233 16.2258L18.6207 9.03824Z" fill="#4570EA"/>
</svg>
