<svg width="39" height="38" viewBox="0 0 39 38" fill="none" xmlns="http://www.w3.org/2000/svg">
<path d="M27.6818 12.7271H11.3181C10.8161 12.7271 10.4091 13.1341 10.4091 13.6361V25.4543C10.4091 25.9564 10.8161 26.3634 11.3181 26.3634H27.6818C28.1839 26.3634 28.5909 25.9564 28.5909 25.4543V13.6361C28.5909 13.1341 28.1839 12.7271 27.6818 12.7271Z" fill="#4570EA"/>
<path fill-rule="evenodd" clip-rule="evenodd" d="M9.5 13.6365C9.5 12.6324 10.314 11.8184 11.3182 11.8184H27.6818C28.686 11.8184 29.5 12.6324 29.5 13.6365V25.4547C29.5 26.4589 28.686 27.2729 27.6818 27.2729H11.3182C10.314 27.2729 9.5 26.4589 9.5 25.4547V13.6365ZM27.6818 13.6365H11.3182V25.4547H27.6818V13.6365Z" fill="#4570EA"/>
<path d="M19.9546 18.6362H14.9546H19.9546ZM24.0455 22.2726H14.9546H24.0455Z" fill="#4570EA"/>
<path fill-rule="evenodd" clip-rule="evenodd" d="M14.0454 18.6366C14.0454 18.1346 14.4524 17.7275 14.9545 17.7275H19.9545C20.4566 17.7275 20.8636 18.1346 20.8636 18.6366C20.8636 19.1387 20.4566 19.5457 19.9545 19.5457H14.9545C14.4524 19.5457 14.0454 19.1387 14.0454 18.6366ZM14.0454 22.273C14.0454 21.7709 14.4524 21.3639 14.9545 21.3639H24.0454C24.5475 21.3639 24.9545 21.7709 24.9545 22.273C24.9545 22.7751 24.5475 23.1821 24.0454 23.1821H14.9545C14.4524 23.1821 14.0454 22.7751 14.0454 22.273Z" fill="white"/>
<path fill-rule="evenodd" clip-rule="evenodd" d="M24.0454 10C24.5475 10 24.9545 10.407 24.9545 10.9091V14.5455C24.9545 15.0475 24.5475 15.4545 24.0454 15.4545C23.5434 15.4545 23.1364 15.0475 23.1364 14.5455V10.9091C23.1364 10.407 23.5434 10 24.0454 10Z" fill="#4570EA"/>
<path fill-rule="evenodd" clip-rule="evenodd" d="M14.9545 10C15.4566 10 15.8636 10.407 15.8636 10.9091V14.5455C15.8636 15.0475 15.4566 15.4545 14.9545 15.4545C14.4524 15.4545 14.0454 15.0475 14.0454 14.5455V10.9091C14.0454 10.407 14.4524 10 14.9545 10Z" fill="#4570EA"/>
</svg>
