<svg width="38" height="38" viewBox="0 0 38 38" fill="none" xmlns="http://www.w3.org/2000/svg">
<path d="M15.15 19.63V26.46C15.15 26.8684 14.9878 27.2601 14.699 27.5489C14.4102 27.8378 14.0185 28 13.61 28H11.8C11.597 28.0013 11.3956 27.9625 11.2076 27.8857C11.0196 27.8089 10.8487 27.6956 10.7046 27.5525C10.5606 27.4094 10.4462 27.2391 10.3682 27.0517C10.2902 26.8642 10.25 26.6631 10.25 26.46V19.63C10.2487 19.4261 10.2879 19.2239 10.3653 19.0353C10.4427 18.8466 10.5569 18.6752 10.7011 18.531C10.8453 18.3868 11.0167 18.2727 11.2053 18.1953C11.394 18.1179 11.5961 18.0787 11.8 18.08H13.61C13.8131 18.08 14.0142 18.1202 14.2017 18.1982C14.3892 18.2762 14.5594 18.3905 14.7025 18.5346C14.8457 18.6786 14.9589 18.8496 15.0357 19.0376C15.1125 19.2256 15.1514 19.4269 15.15 19.63ZM21.85 10.05V26.46C21.85 26.6631 21.8099 26.8642 21.7319 27.0517C21.6538 27.2391 21.5395 27.4094 21.3954 27.5525C21.2514 27.6956 21.0804 27.8089 20.8924 27.8857C20.7044 27.9625 20.5031 28.0013 20.3 28H18.49C18.0807 28 17.6879 27.8381 17.3975 27.5496C17.1071 27.261 16.9427 26.8693 16.94 26.46V10.05C16.9427 9.63972 17.1068 9.247 17.3969 8.95688C17.687 8.66677 18.0798 8.50262 18.49 8.5H20.3C20.7111 8.5 21.1054 8.6633 21.396 8.95398C21.6867 9.24467 21.85 9.63891 21.85 10.05ZM28.54 15.23V26.46C28.54 26.8684 28.3778 27.2601 28.089 27.5489C27.8002 27.8378 27.4085 28 27 28H25.19C24.987 28.0013 24.7856 27.9625 24.5976 27.8857C24.4096 27.8089 24.2387 27.6956 24.0946 27.5525C23.9506 27.4094 23.8362 27.2391 23.7582 27.0517C23.6802 26.8642 23.64 26.6631 23.64 26.46V15.23C23.64 15.0265 23.6801 14.8249 23.758 14.6368C23.8359 14.4488 23.9501 14.2779 24.094 14.134C24.2379 13.9901 24.4088 13.8759 24.5969 13.798C24.7849 13.7201 24.9865 13.68 25.19 13.68H27.04C27.4424 13.693 27.8239 13.862 28.1039 14.1513C28.3838 14.4406 28.5402 14.8274 28.54 15.23Z" fill="#4570EA"/>
</svg>
