<svg width="38" height="39" viewBox="0 0 38 39" fill="none" xmlns="http://www.w3.org/2000/svg">
<path d="M15.15 20.13V26.96C15.15 27.3684 14.9878 27.7601 14.699 28.0489C14.4102 28.3378 14.0185 28.5 13.61 28.5H11.8C11.597 28.5013 11.3956 28.4625 11.2076 28.3857C11.0196 28.3089 10.8487 28.1956 10.7046 28.0525C10.5606 27.9094 10.4462 27.7391 10.3682 27.5517C10.2902 27.3642 10.25 27.1631 10.25 26.96V20.13C10.2487 19.9261 10.2879 19.7239 10.3653 19.5353C10.4427 19.3466 10.5569 19.1752 10.7011 19.031C10.8453 18.8868 11.0167 18.7727 11.2053 18.6953C11.394 18.6179 11.5961 18.5787 11.8 18.58H13.61C13.8131 18.58 14.0142 18.6202 14.2017 18.6982C14.3892 18.7762 14.5594 18.8905 14.7025 19.0346C14.8457 19.1786 14.9589 19.3496 15.0357 19.5376C15.1125 19.7256 15.1514 19.9269 15.15 20.13ZM21.85 10.55V26.96C21.85 27.1631 21.8099 27.3642 21.7319 27.5517C21.6538 27.7391 21.5395 27.9094 21.3954 28.0525C21.2514 28.1956 21.0804 28.3089 20.8924 28.3857C20.7044 28.4625 20.5031 28.5013 20.3 28.5H18.49C18.0807 28.5 17.6879 28.3381 17.3975 28.0496C17.1071 27.761 16.9427 27.3693 16.94 26.96V10.55C16.9427 10.1397 17.1068 9.747 17.3969 9.45688C17.687 9.16677 18.0798 9.00262 18.49 9H20.3C20.7111 9 21.1054 9.1633 21.396 9.45398C21.6867 9.74467 21.85 10.1389 21.85 10.55ZM28.54 15.73V26.96C28.54 27.3684 28.3778 27.7601 28.089 28.0489C27.8002 28.3378 27.4085 28.5 27 28.5H25.19C24.987 28.5013 24.7856 28.4625 24.5976 28.3857C24.4096 28.3089 24.2387 28.1956 24.0946 28.0525C23.9506 27.9094 23.8362 27.7391 23.7582 27.5517C23.6802 27.3642 23.64 27.1631 23.64 26.96V15.73C23.64 15.5265 23.6801 15.3249 23.758 15.1368C23.8359 14.9488 23.9501 14.7779 24.094 14.634C24.2379 14.4901 24.4088 14.3759 24.5969 14.298C24.7849 14.2201 24.9865 14.18 25.19 14.18H27.04C27.4424 14.193 27.8239 14.362 28.1039 14.6513C28.3838 14.9406 28.5402 15.3274 28.54 15.73Z" fill="#DFE5EF"/>
</svg>
