<svg width="24" height="25" viewBox="0 0 24 25" fill="none" xmlns="http://www.w3.org/2000/svg">
<g clip-path="url(#clip0_11289_150457)">
<path d="M13.7141 1.35742H2.57122C1.62445 1.35742 0.856934 2.12493 0.856934 3.07171V21.9289C0.856934 22.8757 1.62445 23.6431 2.57122 23.6431H17.9998C18.9466 23.6431 19.7141 22.8757 19.7141 21.9289V14.2146" stroke="#2A3547" stroke-width="1.3" stroke-linecap="round" stroke-linejoin="round"/>
<path d="M0.856934 18.5H19.7141" stroke="#2A3547" stroke-width="1.3" stroke-linecap="round" stroke-linejoin="round"/>
<path d="M6 5.64258H9.42857" stroke="#2A3547" stroke-width="1.3" stroke-linecap="round" stroke-linejoin="round"/>
<path d="M6 9.92969H7.71429" stroke="#2A3547" stroke-width="1.3" stroke-linecap="round" stroke-linejoin="round"/>
<path d="M15.4182 13.3674L10.2754 14.2931L11.1325 9.08165L18.3839 1.8645C18.5433 1.70383 18.7329 1.57629 18.9419 1.48926C19.1507 1.40223 19.3748 1.35742 19.601 1.35742C19.8275 1.35742 20.0516 1.40223 20.2604 1.48926C20.4693 1.57629 20.6589 1.70383 20.8182 1.8645L22.6353 3.68165C22.7961 3.84101 22.9237 4.03061 23.0106 4.23951C23.0977 4.44842 23.1424 4.67249 23.1424 4.89879C23.1424 5.1251 23.0977 5.34917 23.0106 5.55806C22.9237 5.76696 22.7961 5.95658 22.6353 6.11594L15.4182 13.3674Z" stroke="#2A3547" stroke-width="1.3" stroke-linecap="round" stroke-linejoin="round"/>
</g>
<defs>
<clipPath id="clip0_11289_150457">
<rect width="24" height="24" fill="white" transform="translate(0 0.5)"/>
</clipPath>
</defs>
</svg>
