<svg width="18" height="19" viewBox="0 0 18 19" fill="none" xmlns="http://www.w3.org/2000/svg">
<path d="M13.4986 8.00307C13.4986 7.80416 13.4196 7.61339 13.279 7.47274C13.1383 7.33209 12.9476 7.25307 12.7486 7.25307H4.05614L5.78114 5.53557C5.92237 5.39434 6.00171 5.2028 6.00171 5.00307C6.00171 4.80334 5.92237 4.6118 5.78114 4.47057C5.63991 4.32934 5.44837 4.25 5.24864 4.25C5.04891 4.25 4.85737 4.32934 4.71614 4.47057L1.71614 7.47057C1.61207 7.57604 1.54157 7.70997 1.51354 7.85546C1.48551 8.00095 1.50121 8.15149 1.55864 8.28807C1.6149 8.42503 1.71045 8.54228 1.83324 8.62503C1.95603 8.70778 2.10057 8.75233 2.24864 8.75307H12.7486C12.9476 8.75307 13.1383 8.67405 13.279 8.5334C13.4196 8.39275 13.4986 8.20198 13.4986 8.00307ZM16.4386 10.7181C16.3824 10.5811 16.2868 10.4639 16.164 10.3811C16.0412 10.2984 15.8967 10.2538 15.7486 10.2531H5.24864C5.04973 10.2531 4.85896 10.3321 4.71831 10.4727C4.57766 10.6134 4.49864 10.8042 4.49864 11.0031C4.49864 11.202 4.57766 11.3927 4.71831 11.5334C4.85896 11.6741 5.04973 11.7531 5.24864 11.7531H13.9411L12.2161 13.4706C12.1458 13.5403 12.09 13.6232 12.052 13.7146C12.0139 13.806 11.9943 13.9041 11.9943 14.0031C11.9943 14.1021 12.0139 14.2001 12.052 14.2915C12.09 14.3829 12.1458 14.4658 12.2161 14.5356C12.2859 14.6059 12.3688 14.6617 12.4602 14.6997C12.5516 14.7378 12.6496 14.7574 12.7486 14.7574C12.8476 14.7574 12.9457 14.7378 13.0371 14.6997C13.1285 14.6617 13.2114 14.6059 13.2811 14.5356L16.2811 11.5356C16.3852 11.4301 16.4557 11.2962 16.4837 11.1507C16.5118 11.0052 16.4961 10.8547 16.4386 10.7181Z" fill="#7C8FAC"/>
</svg>
