<svg width="24" height="24" viewBox="0 0 24 24" fill="none" xmlns="http://www.w3.org/2000/svg">
<path d="M3.825 0C3.6062 0 3.39635 0.0846617 3.24164 0.235361C3.08692 0.386059 3 0.590451 3 0.803571V12.8571C3 13.7096 3.34768 14.5272 3.96655 15.13C4.58542 15.7328 5.42479 16.0714 6.3 16.0714H7.95V19.2857C7.95 20.1382 8.29768 20.9558 8.91655 21.5586C9.53542 22.1614 10.3748 22.5 11.25 22.5C12.1252 22.5 12.9646 22.1614 13.5835 21.5586C14.2023 20.9558 14.55 20.1382 14.55 19.2857V16.0714H16.2C17.0752 16.0714 17.9146 15.7328 18.5335 15.13C19.1523 14.5272 19.5 13.7096 19.5 12.8571V0.803571C19.5 0.590451 19.4131 0.386059 19.2584 0.235361C19.1036 0.0846617 18.8938 0 18.675 0H3.825ZM4.65 9.64286V1.60714H11.25V4.01786C11.25 4.23098 11.3369 4.43537 11.4916 4.58607C11.6464 4.73677 11.8562 4.82143 12.075 4.82143C12.2938 4.82143 12.5036 4.73677 12.6584 4.58607C12.8131 4.43537 12.9 4.23098 12.9 4.01786V1.60714H14.55V5.625C14.55 5.83812 14.6369 6.04251 14.7916 6.19321C14.9464 6.34391 15.1562 6.42857 15.375 6.42857C15.5938 6.42857 15.8036 6.34391 15.9584 6.19321C16.1131 6.04251 16.2 5.83812 16.2 5.625V1.60714H17.85V9.64286H4.65ZM4.65 11.25H17.85V12.8571C17.85 13.2834 17.6762 13.6922 17.3667 13.9936C17.0573 14.295 16.6376 14.4643 16.2 14.4643H13.725C13.5062 14.4643 13.2964 14.5489 13.1416 14.6996C12.9869 14.8503 12.9 15.0547 12.9 15.2679V19.2857C12.9 19.712 12.7262 20.1207 12.4167 20.4221C12.1073 20.7235 11.6876 20.8929 11.25 20.8929C10.8124 20.8929 10.3927 20.7235 10.0833 20.4221C9.77384 20.1207 9.6 19.712 9.6 19.2857V15.2679C9.6 15.0547 9.51308 14.8503 9.35836 14.6996C9.20365 14.5489 8.9938 14.4643 8.775 14.4643H6.3C5.86239 14.4643 5.44271 14.295 5.13327 13.9936C4.82384 13.6922 4.65 13.2834 4.65 12.8571V11.25Z" fill="#7C8FAC"/>
</svg>
