<svg width="39" height="39" viewBox="0 0 39 39" fill="none" xmlns="http://www.w3.org/2000/svg">
<path d="M27.6819 13.2271H11.3183C10.8162 13.2271 10.4092 13.6341 10.4092 14.1361V25.9543C10.4092 26.4564 10.8162 26.8634 11.3183 26.8634H27.6819C28.184 26.8634 28.591 26.4564 28.591 25.9543V14.1361C28.591 13.6341 28.184 13.2271 27.6819 13.2271Z" fill="#DFE5EF"/>
<path fill-rule="evenodd" clip-rule="evenodd" d="M9.5 14.1365C9.5 13.1324 10.314 12.3184 11.3182 12.3184H27.6818C28.686 12.3184 29.5 13.1324 29.5 14.1365V25.9547C29.5 26.9589 28.686 27.7729 27.6818 27.7729H11.3182C10.314 27.7729 9.5 26.9589 9.5 25.9547V14.1365ZM27.6818 14.1365H11.3182V25.9547H27.6818V14.1365Z" fill="#DFE5EF"/>
<path d="M19.9546 19.1362H14.9546H19.9546ZM24.0455 22.7726H14.9546H24.0455Z" fill="#DFE5EF"/>
<path fill-rule="evenodd" clip-rule="evenodd" d="M14.0454 19.1366C14.0454 18.6346 14.4524 18.2275 14.9545 18.2275H19.9545C20.4566 18.2275 20.8636 18.6346 20.8636 19.1366C20.8636 19.6387 20.4566 20.0457 19.9545 20.0457H14.9545C14.4524 20.0457 14.0454 19.6387 14.0454 19.1366ZM14.0454 22.773C14.0454 22.2709 14.4524 21.8639 14.9545 21.8639H24.0454C24.5475 21.8639 24.9545 22.2709 24.9545 22.773C24.9545 23.2751 24.5475 23.6821 24.0454 23.6821H14.9545C14.4524 23.6821 14.0454 23.2751 14.0454 22.773Z" fill="white"/>
<path fill-rule="evenodd" clip-rule="evenodd" d="M24.0453 10.5C24.5474 10.5 24.9544 10.907 24.9544 11.4091V15.0455C24.9544 15.5475 24.5474 15.9545 24.0453 15.9545C23.5432 15.9545 23.1362 15.5475 23.1362 15.0455V11.4091C23.1362 10.907 23.5432 10.5 24.0453 10.5Z" fill="#DFE5EF"/>
<path fill-rule="evenodd" clip-rule="evenodd" d="M14.9545 10.5C15.4566 10.5 15.8636 10.907 15.8636 11.4091V15.0455C15.8636 15.5475 15.4566 15.9545 14.9545 15.9545C14.4524 15.9545 14.0454 15.5475 14.0454 15.0455V11.4091C14.0454 10.907 14.4524 10.5 14.9545 10.5Z" fill="#DFE5EF"/>
</svg>
