<svg width="32" height="32" viewBox="0 0 32 32" fill="none" xmlns="http://www.w3.org/2000/svg">
<g clip-path="url(#clip0_2_1385)">
<rect width="32" height="32" rx="16" fill="white"/>
<mask id="mask0_2_1385" style="mask-type:luminance" maskUnits="userSpaceOnUse" x="-2" y="-2" width="48" height="36">
<path d="M-1.31238 -1.43945H45.7067V33.8283H-1.31238V-1.43945Z" fill="white"/>
</mask>
<g mask="url(#mask0_2_1385)">
<path fill-rule="evenodd" clip-rule="evenodd" d="M-4.25366 -1.43945H48.648V33.8283H-4.25366V-1.43945Z" fill="#28AE66"/>
<path fill-rule="evenodd" clip-rule="evenodd" d="M13.8831 8.0319C15.8049 8.95492 18.0918 8.0319 18.9184 6.75069C19.7725 5.55213 19.8758 3.54766 18.4086 1.7085C20.6817 3.59587 21.1915 5.73812 20.0549 7.5015C18.5395 9.51976 15.1918 9.45776 13.8831 8.0319Z" fill="white"/>
<path fill-rule="evenodd" clip-rule="evenodd" d="M17.2928 3.34092L17.6785 3.34781L17.3754 3.5889L17.4925 3.97464L17.1688 3.74733L16.8588 3.97464L16.9621 3.59579L16.6522 3.3547L17.0379 3.34781L17.1688 2.96896L17.2928 3.34092ZM15.3847 5.73803H15.7705L15.4674 5.986L15.5845 6.36486L15.2607 6.13755L14.9439 6.37175L15.0541 5.986L14.7441 5.7518L15.1299 5.73803L15.2538 5.35917L15.3847 5.73803ZM15.5087 3.85065H15.9013L15.5914 4.09863L15.7085 4.47748L15.3916 4.25017L15.0748 4.48437L15.185 4.09863L14.875 3.85754L15.2607 3.85065L15.3847 3.4718L15.5087 3.85065ZM15.5087 1.95639H15.9013L15.5845 2.21125L15.7016 2.5901L15.3847 2.36968L15.0679 2.59699L15.1781 2.21814L14.8681 1.97705L15.2538 1.97016L15.3778 1.59131L15.5087 1.95639ZM13.394 4.35349H13.7798L13.4698 4.60147L13.5869 4.98032L13.27 4.75301L12.9532 4.98721L13.0634 4.60147L12.7534 4.36727L13.1392 4.35349L13.2631 3.97464L13.394 4.35349Z" fill="white"/>
<path fill-rule="evenodd" clip-rule="evenodd" d="M-0.981689 -1.43945H10.3563V33.8283H-0.981689V-1.43945Z" fill="#CA3745"/>
<path fill-rule="evenodd" clip-rule="evenodd" d="M-0.981689 7.75656V7.5017L-0.513289 6.87487L-0.602836 6.74399L-0.327307 6.37203L-0.416854 6.24115L-0.602836 6.49602L-0.699272 6.37203L-0.0380008 5.49033L0.0584344 5.61432L-0.0380008 5.73831L0.15487 6.00006L0.62327 5.36635L0.147982 4.75329L-0.0380008 4.98749L0.0584344 5.11837L-0.0380008 5.24236L-0.699272 4.36066L-0.602836 4.23667L-0.416854 4.48465L-0.320419 4.36066L-0.602836 3.98181L-0.513289 3.85782L-0.981689 3.2241V2.96924L-0.320419 3.85093L-0.416854 3.97492L-0.134436 4.35377L-0.320419 4.60864L-0.134436 4.85662L0.15487 4.48465L0.823029 5.38012L0.15487 6.24804L-0.12066 5.86919L-0.31353 6.12405L-0.127548 6.37892L-0.403077 6.75088L-0.31353 6.88176L-0.974801 7.76345L-0.981689 7.75656Z" fill="#FAAE29"/>
<path fill-rule="evenodd" clip-rule="evenodd" d="M-0.981689 13.8045V13.5496L-0.513289 12.9228L-0.602836 12.7919L-0.327307 12.413L-0.416854 12.2891L-0.602836 12.5439L-0.699272 12.413L-0.0380008 11.5313L0.0584345 11.6622L-0.0380008 11.7862L0.15487 12.0411L0.62327 11.4074L0.147982 10.7943L-0.0380008 11.0285L0.0584345 11.1594L-0.0380008 11.2834L-0.699272 10.4017L-0.602836 10.2708L-0.416854 10.5188L-0.320419 10.3948L-0.602836 10.0159L-0.513289 9.89195L-0.981689 9.25823V9.01025L-0.320419 9.89195L-0.416854 10.0159L-0.134436 10.3948L-0.320419 10.6428L-0.134436 10.8976L0.147982 10.5188L0.816141 11.4142L0.147982 12.2822L-0.127548 11.9033L-0.320419 12.1582L-0.134436 12.4062L-0.409966 12.785L-0.320419 12.9159L-0.981689 13.7976V13.8045Z" fill="#FAAE29"/>
<path fill-rule="evenodd" clip-rule="evenodd" d="M-0.981689 19.8454V19.5975L-0.513289 18.9637L-0.602836 18.8397L-0.327307 18.4609L-0.416854 18.3369L-0.602836 18.5849L-0.699272 18.4609L-0.0380008 17.5792L0.0584345 17.7032L-0.0380008 17.8341L0.15487 18.0889L0.62327 17.4552L0.147982 16.8353L-0.0380008 17.0764L0.0584345 17.2003L-0.0380008 17.3243L-0.699272 16.4426L-0.602836 16.3187L-0.416854 16.5735L-0.320419 16.4426L-0.602836 16.0707L-0.513289 15.9398L-0.981689 15.313V15.0581L-0.320419 15.9398L-0.416854 16.0707L-0.134436 16.4426L-0.320419 16.6975L-0.134436 16.9524L0.15487 16.5735L0.816141 17.469L0.147982 18.3369L-0.127548 17.9581L-0.320419 18.206L-0.134436 18.4609L-0.409966 18.8397L-0.320419 18.9637L-0.981689 19.8454Z" fill="#FAAE29"/>
<path fill-rule="evenodd" clip-rule="evenodd" d="M-0.981689 25.5144V25.2595L-0.513289 24.6327L-0.602836 24.5087L-0.327307 24.1298L-0.416854 24.0059L-0.602836 24.2538L-0.699272 24.1298L-0.0380008 23.2481L0.0584345 23.3721L-0.0380008 23.4961L0.15487 23.751L0.62327 23.1242L0.147982 22.5042L-0.0380008 22.7453L0.0584345 22.8693L-0.0380008 22.9933L-0.699272 22.1116L-0.602836 21.9876L-0.416854 22.2425L-0.320419 22.1116L-0.602836 21.7327L-0.513289 21.6087L-0.981689 20.9819V20.7271L-0.320419 21.6087L-0.416854 21.7327L-0.134436 22.1116L-0.320419 22.3665L-0.134436 22.6144L0.15487 22.2425L0.816141 23.1379L0.147982 24.0059L-0.127548 23.627L-0.320419 23.875L-0.134436 24.1298L-0.409966 24.5087L-0.320419 24.6327L-0.981689 25.5144Z" fill="#FAAE29"/>
<path fill-rule="evenodd" clip-rule="evenodd" d="M10.3563 7.75656V7.5017L9.8879 6.87487L9.98434 6.74399L9.70192 6.37203L9.79147 6.24115L9.98434 6.49602L10.0808 6.37203L9.4195 5.49033L9.32307 5.61432L9.4195 5.73831L9.21974 5.99317L8.75823 5.35946L9.22663 4.7464L9.4195 4.9806L9.32307 5.11148L9.41261 5.23547L10.0739 4.35377L9.98434 4.22979L9.79147 4.47776L9.70192 4.35377L9.97745 3.97492L9.8879 3.85093L10.3563 3.21721V2.96924L9.70192 3.85093L9.79147 3.97492L9.51594 4.35377L9.70192 4.60864L9.50905 4.85662L9.22663 4.47776L8.55847 5.37323L9.22663 6.24115L9.50905 5.8623L9.70192 6.11716L9.50905 6.37203L9.79147 6.74399L9.70192 6.87487L10.3563 7.75656Z" fill="#FAAE29"/>
<path fill-rule="evenodd" clip-rule="evenodd" d="M10.3563 4.60889L10.2599 4.85686V5.2426H9.98437L9.7915 5.36659L9.97749 5.49747H10.2599V5.86943L10.3563 6.1243V4.60889Z" fill="#FAAE29"/>
<path fill-rule="evenodd" clip-rule="evenodd" d="M10.3907 13.8044V13.5496L9.92233 12.9227L10.0119 12.7918L9.73634 12.413L9.82589 12.289L10.0119 12.5439L10.1083 12.413L9.44704 11.5313L9.3506 11.6622L9.44704 11.7862L9.25417 12.041L8.78577 11.4073L9.26105 10.7943L9.44704 11.0285L9.3506 11.1524L9.44704 11.2833L10.1083 10.4016L10.0119 10.2707L9.82589 10.5256L9.72945 10.4016L10.0119 10.0228L9.92233 9.89878L10.3907 9.26507V9.01709L9.72945 9.89878L9.82589 10.0228L9.54347 10.4016L9.72945 10.6496L9.54347 10.9045L9.26105 10.5256L8.5929 11.4211L9.26105 12.289L9.53658 11.9101L9.72945 12.165L9.54347 12.413L9.819 12.7918L9.72945 12.9158L10.3907 13.7975V13.8044Z" fill="#FAAE29"/>
<path fill-rule="evenodd" clip-rule="evenodd" d="M10.3907 10.6494L10.2943 10.9043V11.2831H10.005L9.81213 11.4071L10.005 11.5311H10.2805V11.91L10.3839 12.1648V10.6494H10.3907Z" fill="#FAAE29"/>
<path fill-rule="evenodd" clip-rule="evenodd" d="M10.3563 19.8454V19.5975L9.8879 18.9637L9.98434 18.8397L9.70192 18.4609L9.79147 18.3369L9.98434 18.5849L10.0808 18.4609L9.4195 17.5792L9.32307 17.7032L9.4195 17.8341L9.21974 18.0889L8.75823 17.4552L9.22663 16.8353L9.4195 17.0764L9.32307 17.2003L9.41261 17.3243L10.0739 16.4426L9.98434 16.3187L9.79147 16.5735L9.70192 16.4426L9.97745 16.0707L9.8879 15.9398L10.3563 15.313V15.0581L9.70192 15.9398L9.79147 16.0707L9.51594 16.4426L9.70192 16.6975L9.50905 16.9524L9.22663 16.5735L8.55847 17.469L9.22663 18.3369L9.50905 17.9581L9.70192 18.206L9.50905 18.4609L9.79147 18.8397L9.70192 18.9637L10.3494 19.8454H10.3563Z" fill="#FAAE29"/>
<path fill-rule="evenodd" clip-rule="evenodd" d="M10.3563 16.6973L10.2599 16.9521V17.331H9.98437L9.7915 17.455L9.97749 17.579H10.2599V17.9578L10.3563 18.2127V16.6973Z" fill="#FAAE29"/>
<path fill-rule="evenodd" clip-rule="evenodd" d="M10.3563 25.5143V25.2595L9.8879 24.6326L9.98434 24.5086L9.70192 24.1298L9.79147 24.0058L9.98434 24.2538L10.0808 24.1298L9.4195 23.2481L9.32307 23.3721L9.4195 23.4961L9.21974 23.7509L8.75823 23.1241L9.22663 22.5042L9.4195 22.7453L9.32307 22.8692L9.41261 22.9932L10.0739 22.1184L9.98434 21.9944L9.79147 22.2493L9.70192 22.1184L9.97745 21.7396L9.8879 21.6156L10.3563 20.9888V20.7339L9.70192 21.6156L9.79147 21.7396L9.51594 22.1184L9.70192 22.3733L9.50905 22.6213L9.22663 22.2493L8.55847 23.1448L9.22663 24.0127L9.50905 23.6338L9.70192 23.8818L9.50905 24.1367L9.79147 24.5155L9.70192 24.6395L10.3563 25.5212V25.5143Z" fill="#FAAE29"/>
<path fill-rule="evenodd" clip-rule="evenodd" d="M10.3563 22.3663L10.2599 22.6142V22.9931H9.98437L9.7915 23.124L9.97749 23.248H10.2599V23.6268L10.3563 23.8748V22.3594V22.3663Z" fill="#FAAE29"/>
<path fill-rule="evenodd" clip-rule="evenodd" d="M-0.981759 0.950766V0.702789L-0.513359 0.0690712L-0.602906 -0.0549171L-0.327377 -0.43377L-0.416924 -0.557759L-0.602906 -0.302894L-0.699342 -0.43377L-0.0380707 -1.31546L0.0583644 -1.18459L-0.0380707 -1.0606L0.1548 -0.805735L0.6232 -1.43945H0.816071L0.1548 -0.557759L-0.134506 -0.936612L-0.320489 -0.681747L-0.134506 -0.43377L-0.410036 -0.0549171L-0.327377 0.0759594L-0.981759 0.957654V0.950766ZM-0.981759 -1.43945H-0.410036L-0.602906 -1.31546H-0.878436V-0.936612L-0.988647 -0.681747V-1.43945H-0.981759ZM10.3563 0.950766V0.702789L9.88788 0.0690712L9.98431 -0.0549171L9.7019 -0.43377L9.79144 -0.557759L9.98431 -0.302894L10.0739 -0.43377L9.41259 -1.31546L9.32304 -1.18459L9.41259 -1.0606L9.21972 -0.805735L8.75132 -1.43945H8.55845L9.22661 -0.557759L9.50903 -0.936612L9.7019 -0.681747L9.50903 -0.43377L9.79144 -0.0549171L9.7019 0.0690712L10.3563 0.950766ZM10.3563 -1.43945H9.79144L9.97743 -1.31546H10.2598V-0.936612L10.3563 -0.681747V-1.43945Z" fill="#FAAE29"/>
<path fill-rule="evenodd" clip-rule="evenodd" d="M2.37273 32.1403C2.28318 31.9544 2.05587 31.1278 2.17297 31.0244C2.35895 30.9556 2.84113 31.8028 2.79291 32.5536C2.47605 32.7258 1.41526 32.4848 1.42215 32.2643C1.49792 31.9544 2.10409 32.0577 2.37273 32.1403Z" fill="#FAAE29"/>
<path fill-rule="evenodd" clip-rule="evenodd" d="M1.72527 31.417C1.67017 31.2104 1.57373 30.3425 1.7115 30.2736C1.89748 30.2598 2.235 31.2173 2.07657 31.9405C1.73905 32.0232 0.733365 31.4928 0.781583 31.2793C0.905571 31.0037 1.47041 31.2655 1.72527 31.417Z" fill="#FAAE29"/>
<path fill-rule="evenodd" clip-rule="evenodd" d="M1.20185 30.6181C1.16052 30.3976 1.14674 29.5159 1.28451 29.4746C1.47049 29.4884 1.72535 30.4941 1.50493 31.1898C1.16052 31.2173 0.209942 30.5285 0.278825 30.3288C0.416589 30.067 0.967648 30.4183 1.20185 30.6181Z" fill="#FAAE29"/>
<path fill-rule="evenodd" clip-rule="evenodd" d="M0.788542 29.7638C0.774765 29.5365 0.857425 28.6617 1.00208 28.6479C1.18806 28.6962 1.31894 29.7432 1.01585 30.3838C0.67833 30.3425 -0.1827 29.4677 -0.0862642 29.2817C0.0790536 29.0544 0.581895 29.5159 0.788542 29.7638Z" fill="#FAAE29"/>
<path fill-rule="evenodd" clip-rule="evenodd" d="M0.499168 28.8616C0.512944 28.6343 0.692039 27.7939 0.836692 27.8008C1.0089 27.8904 1.02956 28.9443 0.664486 29.5229C0.33385 29.4127 -0.430744 28.3863 -0.320532 28.2141C-0.120774 28.0212 0.320074 28.5792 0.506056 28.8616H0.499168Z" fill="#FAAE29"/>
<path fill-rule="evenodd" clip-rule="evenodd" d="M0.581788 27.8354C0.561123 28.7308 0.395806 28.7446 0.0996113 28.0833C-0.0381535 27.8285 -0.0519299 26.7952 0.0651701 26.7539C0.237376 26.7539 0.574899 27.4909 0.581788 27.8354Z" fill="#FAAE29"/>
<path fill-rule="evenodd" clip-rule="evenodd" d="M7.04308 32.2439C7.13263 32.0511 7.35994 31.2245 7.24284 31.1212C7.05685 31.0523 6.58157 31.8926 6.6229 32.6503C6.93975 32.8226 8.00743 32.5815 7.99366 32.361C7.91788 32.0511 7.31861 32.1544 7.04308 32.2371V32.2439Z" fill="#FAAE29"/>
<path fill-rule="evenodd" clip-rule="evenodd" d="M7.69055 31.5137C7.75254 31.3071 7.84209 30.4391 7.71121 30.3703C7.52523 30.3565 7.18082 31.3071 7.34614 32.0372C7.67677 32.1199 8.68934 31.5895 8.63424 31.3759C8.51714 31.0935 7.94541 31.3622 7.69055 31.5137Z" fill="#FAAE29"/>
<path fill-rule="evenodd" clip-rule="evenodd" d="M8.21407 30.7147C8.2554 30.4943 8.26918 29.6126 8.13141 29.5713C7.94543 29.5851 7.69057 30.5839 7.91788 31.2796C8.26229 31.3071 9.21287 30.6252 9.14399 30.4185C8.99244 30.1568 8.45516 30.515 8.21407 30.7147Z" fill="#FAAE29"/>
<path fill-rule="evenodd" clip-rule="evenodd" d="M8.62742 29.8536C8.6412 29.6332 8.55854 28.7584 8.41388 28.7446C8.2279 28.7928 8.09702 29.8399 8.40011 30.4805C8.74452 30.4391 9.59866 29.5643 9.50911 29.3783C9.33691 29.1441 8.84095 29.6125 8.62742 29.8536Z" fill="#FAAE29"/>
<path fill-rule="evenodd" clip-rule="evenodd" d="M8.91659 28.9515C8.9097 28.7311 8.72372 27.8839 8.58596 27.8976C8.40686 27.9803 8.3862 29.0411 8.75816 29.6197C9.0888 29.5095 9.8465 28.4831 9.73629 28.3109C9.53653 28.1181 9.09569 28.676 8.9097 28.9515H8.91659Z" fill="#FAAE29"/>
<path fill-rule="evenodd" clip-rule="evenodd" d="M8.83398 27.932C8.86154 28.8275 9.01997 28.8344 9.31616 28.1731C9.45393 27.9252 9.4677 26.885 9.3506 26.8506C9.1784 26.8506 8.84087 27.5876 8.83398 27.932Z" fill="#FAAE29"/>
<path fill-rule="evenodd" clip-rule="evenodd" d="M8.59916 21.2171H8.03536V21.5953H7.49206V21.9735H5.31887L4.94984 22.3625L5.13435 22.557H6.04668L6.22095 22.3625H5.31887L5.49313 22.168H6.76425L6.22095 22.7407H4.96009L4.6013 22.557L4.23227 22.7407H2.96116L2.41786 22.168H3.68897L3.87349 22.3625H2.96116L3.14567 22.557H4.05801L4.23227 22.3625L3.87349 21.9735H1.87456V21.5953H1.33126V21.2171H0.787964V19.4881H1.33126V19.1099H1.87456V18.7209H3.87349L4.23227 18.3426L4.05801 18.1481H3.14567L2.96116 18.3426H3.87349L3.68897 18.5263H2.41786L2.96116 17.9536H4.24252L4.61155 18.1481L4.97034 17.9536H6.24145L6.78475 18.5263H5.51364L5.33937 18.3426H6.24145L6.05693 18.1481H5.15485L4.96009 18.3426L5.32912 18.7209H7.50231V19.1099H8.04561V19.4881H8.59916V21.2171Z" fill="#CA3745" stroke="black" stroke-width="0.0260903"/>
<path fill-rule="evenodd" clip-rule="evenodd" d="M0.969971 19.6891V21.0291H1.51326V21.4073H2.05655V21.7855H3.87607L4.60387 22.3636L5.32655 21.7909H7.32545V21.4127L7.86875 21.4073V21.0291H8.42229V19.6837H7.87387V19.3055H7.33058V18.9165H5.33168L4.609 18.3438L3.88119 18.9165H2.06168V19.3055H1.51839V19.6837H0.975096L0.969971 19.6891Z" fill="#28AE66" stroke="#FAAE29" stroke-width="0.182631"/>
<path fill-rule="evenodd" clip-rule="evenodd" d="M3.51018 19.1045L2.422 20.0631V19.1045H3.51018ZM5.68653 19.1045L6.7816 20.0631V19.1045H5.68653ZM3.51018 21.5969L2.422 20.6383V21.5969H3.51018ZM5.68653 21.5969L6.7816 20.6383V21.5969H5.68653ZM6.05155 19.6797L5.68653 20.0631H6.41658L6.05155 19.6797ZM3.14515 19.6797L2.78702 20.0631H3.51018L3.14515 19.6797ZM3.14515 21.0217L2.78702 20.6383H3.51018L3.14515 21.0217ZM6.05155 21.0217L5.68653 20.6383H6.41658L6.05155 21.0217Z" fill="#CA3745"/>
<path fill-rule="evenodd" clip-rule="evenodd" d="M4.5983 21.98L4.23328 21.5965H4.96332L4.5983 21.98ZM4.5983 20.0628L4.23328 19.6793H4.96332L4.5983 20.0628ZM4.5983 18.7207L4.23328 19.1129H4.96332L4.5983 18.7207ZM4.5983 20.6379L4.23328 21.0214H4.96332L4.5983 20.6379Z" fill="#FAAE29"/>
<path fill-rule="evenodd" clip-rule="evenodd" d="M5.69043 20.0674H6.42336V20.2565H5.69555L5.69043 20.0674Z" fill="#FAAE29" stroke="black" stroke-width="0.0130451"/>
<path fill-rule="evenodd" clip-rule="evenodd" d="M2.96887 20.2568H3.32765V20.4513H2.96887V20.2568ZM5.87497 20.2568H6.23374V20.4513H5.87497V20.2568Z" fill="#CC0000" stroke="black" stroke-width="0.0130451"/>
<path fill-rule="evenodd" clip-rule="evenodd" d="M4.23999 19.1113H4.96267V19.3004H4.23999V19.1113ZM4.23999 19.4895H4.96267V19.6841H4.23999V19.4895Z" fill="#990000" stroke="black" stroke-width="0.0130451"/>
<path fill-rule="evenodd" clip-rule="evenodd" d="M4.05554 19.3003H5.14725V19.4948H4.05554V19.3003ZM4.24006 21.0293H4.96274V21.213H4.24006V21.0293ZM4.24006 21.4075H4.96274V21.5966H4.24006V21.4075ZM4.05554 21.2184H5.14725V21.4075H4.05554V21.2184Z" fill="#990000" stroke="black" stroke-width="0.0130451"/>
<path fill-rule="evenodd" clip-rule="evenodd" d="M5.69046 20.451H6.42339V20.6401H5.69559L5.69046 20.451ZM2.78437 20.0674H3.51217V20.2565H2.78437V20.0674ZM2.78437 20.4456H3.51217V20.6401H2.78437V20.4456ZM2.60498 20.2565H2.96376V20.451H2.60498V20.2565ZM3.33279 20.2565H3.69156V20.451H3.33279V20.2565ZM5.51108 20.2565H5.86985V20.451H5.51108V20.2565ZM6.23888 20.2565H6.59766V20.451H6.23888V20.2565Z" fill="#FAAE29" stroke="black" stroke-width="0.0130451"/>
<path d="M4.1555 21.3521C4.18098 21.3521 4.20163 21.3304 4.20163 21.3035C4.20163 21.2767 4.18098 21.2549 4.1555 21.2549C4.13003 21.2549 4.10938 21.2767 4.10938 21.3035C4.10938 21.3304 4.13003 21.3521 4.1555 21.3521Z" fill="white"/>
<path d="M4.60314 21.3521C4.62861 21.3521 4.64926 21.3304 4.64926 21.3035C4.64926 21.2767 4.62861 21.2549 4.60314 21.2549C4.57766 21.2549 4.55701 21.2767 4.55701 21.3035C4.55701 21.3304 4.57766 21.3521 4.60314 21.3521Z" fill="white"/>
<path d="M5.05773 21.3521C5.0832 21.3521 5.10385 21.3304 5.10385 21.3035C5.10385 21.2767 5.0832 21.2549 5.05773 21.2549C5.03225 21.2549 5.0116 21.2767 5.0116 21.3035C5.0116 21.3304 5.03225 21.3521 5.05773 21.3521Z" fill="white"/>
<path d="M4.33458 21.169C4.36006 21.169 4.38071 21.1473 4.38071 21.1204C4.38071 21.0936 4.36006 21.0718 4.33458 21.0718C4.30911 21.0718 4.28845 21.0936 4.28845 21.1204C4.28845 21.1473 4.30911 21.169 4.33458 21.169Z" fill="white"/>
<path d="M4.87169 21.169C4.89717 21.169 4.91782 21.1473 4.91782 21.1204C4.91782 21.0936 4.89717 21.0718 4.87169 21.0718C4.84622 21.0718 4.82556 21.0936 4.82556 21.1204C4.82556 21.1473 4.84622 21.169 4.87169 21.169Z" fill="white"/>
<path d="M4.32762 21.544C4.3531 21.544 4.37375 21.5223 4.37375 21.4954C4.37375 21.4686 4.3531 21.4468 4.32762 21.4468C4.30215 21.4468 4.28149 21.4686 4.28149 21.4954C4.28149 21.5223 4.30215 21.544 4.32762 21.544Z" fill="white"/>
<path d="M4.87169 21.5528C4.89717 21.5528 4.91782 21.5311 4.91782 21.5042C4.91782 21.4773 4.89717 21.4556 4.87169 21.4556C4.84622 21.4556 4.82556 21.4773 4.82556 21.5042C4.82556 21.5311 4.84622 21.5528 4.87169 21.5528Z" fill="white"/>
<path d="M5.59496 20.3936C5.62043 20.3936 5.64109 20.3719 5.64109 20.345C5.64109 20.3182 5.62043 20.2964 5.59496 20.2964C5.56948 20.2964 5.54883 20.3182 5.54883 20.345C5.54883 20.3719 5.56948 20.3936 5.59496 20.3936Z" fill="white"/>
<path d="M6.04943 20.3936C6.0749 20.3936 6.09555 20.3719 6.09555 20.345C6.09555 20.3182 6.0749 20.2964 6.04943 20.2964C6.02395 20.2964 6.0033 20.3182 6.0033 20.345C6.0033 20.3719 6.02395 20.3936 6.04943 20.3936Z" fill="white"/>
<path d="M6.50414 20.3936C6.52961 20.3936 6.55027 20.3719 6.55027 20.345C6.55027 20.3182 6.52961 20.2964 6.50414 20.2964C6.47866 20.2964 6.45801 20.3182 6.45801 20.345C6.45801 20.3719 6.47866 20.3936 6.50414 20.3936Z" fill="white"/>
<path d="M5.78087 20.2018C5.80635 20.2018 5.827 20.18 5.827 20.1531C5.827 20.1263 5.80635 20.1045 5.78087 20.1045C5.75539 20.1045 5.73474 20.1263 5.73474 20.1531C5.73474 20.18 5.75539 20.2018 5.78087 20.2018Z" fill="white"/>
<path d="M6.3181 20.2018C6.34358 20.2018 6.36423 20.18 6.36423 20.1531C6.36423 20.1263 6.34358 20.1045 6.3181 20.1045C6.29263 20.1045 6.27197 20.1263 6.27197 20.1531C6.27197 20.18 6.29263 20.2018 6.3181 20.2018Z" fill="white"/>
<path d="M5.77404 20.5768C5.79951 20.5768 5.82016 20.555 5.82016 20.5281C5.82016 20.5013 5.79951 20.4795 5.77404 20.4795C5.74856 20.4795 5.72791 20.5013 5.72791 20.5281C5.72791 20.555 5.74856 20.5768 5.77404 20.5768Z" fill="white"/>
<path d="M6.3181 20.5855C6.34358 20.5855 6.36423 20.5638 6.36423 20.5369C6.36423 20.5101 6.34358 20.4883 6.3181 20.4883C6.29263 20.4883 6.27197 20.5101 6.27197 20.5369C6.27197 20.5638 6.29263 20.5855 6.3181 20.5855Z" fill="white"/>
<path d="M4.14855 19.4439C4.17402 19.4439 4.19467 19.4222 4.19467 19.3953C4.19467 19.3685 4.17402 19.3467 4.14855 19.3467C4.12307 19.3467 4.10242 19.3685 4.10242 19.3953C4.10242 19.4222 4.12307 19.4439 4.14855 19.4439Z" fill="white"/>
<path d="M4.60314 19.4439C4.62861 19.4439 4.64926 19.4222 4.64926 19.3953C4.64926 19.3685 4.62861 19.3467 4.60314 19.3467C4.57766 19.3467 4.55701 19.3685 4.55701 19.3953C4.55701 19.4222 4.57766 19.4439 4.60314 19.4439Z" fill="white"/>
<path d="M5.05773 19.4351C5.0832 19.4351 5.10385 19.4134 5.10385 19.3865C5.10385 19.3597 5.0832 19.3379 5.05773 19.3379C5.03225 19.3379 5.0116 19.3597 5.0116 19.3865C5.0116 19.4134 5.03225 19.4351 5.05773 19.4351Z" fill="white"/>
<path d="M4.32762 19.252C4.3531 19.252 4.37375 19.2303 4.37375 19.2034C4.37375 19.1766 4.3531 19.1548 4.32762 19.1548C4.30215 19.1548 4.28149 19.1766 4.28149 19.2034C4.28149 19.2303 4.30215 19.252 4.32762 19.252Z" fill="white"/>
<path d="M4.87169 19.252C4.89717 19.252 4.91782 19.2303 4.91782 19.2034C4.91782 19.1766 4.89717 19.1548 4.87169 19.1548C4.84622 19.1548 4.82556 19.1766 4.82556 19.2034C4.82556 19.2303 4.84622 19.252 4.87169 19.252Z" fill="white"/>
<path d="M4.32762 19.6266C4.3531 19.6266 4.37375 19.6048 4.37375 19.5779C4.37375 19.5511 4.3531 19.5293 4.32762 19.5293C4.30215 19.5293 4.28149 19.5511 4.28149 19.5779C4.28149 19.6048 4.30215 19.6266 4.32762 19.6266Z" fill="white"/>
<path d="M4.87169 19.6353C4.89717 19.6353 4.91782 19.6136 4.91782 19.5867C4.91782 19.5599 4.89717 19.5381 4.87169 19.5381C4.84622 19.5381 4.82556 19.5599 4.82556 19.5867C4.82556 19.6136 4.84622 19.6353 4.87169 19.6353Z" fill="white"/>
<path d="M2.69542 20.4112C2.7209 20.4112 2.74155 20.3895 2.74155 20.3626C2.74155 20.3357 2.7209 20.314 2.69542 20.314C2.66995 20.314 2.64929 20.3357 2.64929 20.3626C2.64929 20.3895 2.66995 20.4112 2.69542 20.4112Z" fill="white"/>
<path d="M3.15001 20.4112C3.17549 20.4112 3.19614 20.3895 3.19614 20.3626C3.19614 20.3357 3.17549 20.314 3.15001 20.314C3.12454 20.314 3.10388 20.3357 3.10388 20.3626C3.10388 20.3895 3.12454 20.4112 3.15001 20.4112Z" fill="white"/>
<path d="M3.60448 20.4024C3.62996 20.4024 3.65061 20.3807 3.65061 20.3538C3.65061 20.3269 3.62996 20.3052 3.60448 20.3052C3.579 20.3052 3.55835 20.3269 3.55835 20.3538C3.55835 20.3807 3.579 20.4024 3.60448 20.4024Z" fill="white"/>
<path d="M2.88133 20.2193C2.90681 20.2193 2.92746 20.1976 2.92746 20.1707C2.92746 20.1438 2.90681 20.1221 2.88133 20.1221C2.85586 20.1221 2.83521 20.1438 2.83521 20.1707C2.83521 20.1976 2.85586 20.2193 2.88133 20.2193Z" fill="white"/>
<path d="M3.41857 20.2193C3.44404 20.2193 3.46469 20.1976 3.46469 20.1707C3.46469 20.1438 3.44404 20.1221 3.41857 20.1221C3.39309 20.1221 3.37244 20.1438 3.37244 20.1707C3.37244 20.1976 3.39309 20.2193 3.41857 20.2193Z" fill="white"/>
<path d="M2.8745 20.5943C2.89997 20.5943 2.92063 20.5726 2.92063 20.5457C2.92063 20.5188 2.89997 20.4971 2.8745 20.4971C2.84902 20.4971 2.82837 20.5188 2.82837 20.5457C2.82837 20.5726 2.84902 20.5943 2.8745 20.5943Z" fill="white"/>
<path d="M3.41857 20.6026C3.44404 20.6026 3.46469 20.5809 3.46469 20.554C3.46469 20.5271 3.44404 20.5054 3.41857 20.5054C3.39309 20.5054 3.37244 20.5271 3.37244 20.554C3.37244 20.5809 3.39309 20.6026 3.41857 20.6026Z" fill="white"/>
<path fill-rule="evenodd" clip-rule="evenodd" d="M5.31415 16.1809L5.62412 16.0294L5.94098 16.1809H5.31415ZM4.37735 16.1809L4.68732 16.0294L5.00418 16.1809H4.37735ZM3.44055 16.1809L3.75052 16.0294L4.06738 16.1809H3.44055ZM5.31415 12.8057L5.62412 12.9572L5.94098 12.8126H5.31415V12.8057ZM4.37735 12.8057L4.68732 12.9572L5.00418 12.8126H4.37735V12.8057ZM3.44055 12.8057L3.75052 12.9572L4.06738 12.8126H3.44055V12.8057Z" fill="white"/>
<path fill-rule="evenodd" clip-rule="evenodd" d="M5.05238 16.6148L4.6873 16.911L4.32222 16.6148L3.95715 16.911L3.59207 16.6148V16.7663L3.84005 16.9041L3.71606 17.0556V17.2003H3.84005L3.95715 17.0625L4.08113 17.2003H4.20512V17.0625L4.08113 16.911L4.32222 16.7663L4.5702 16.9041L4.44621 17.0556V17.2003H4.5702L4.6873 17.0625L4.81129 17.2003H4.92839V17.0625L4.81129 16.911L5.05238 16.7663L5.29346 16.9041L5.17636 17.0556V17.2003H5.29346L5.41745 17.0625L5.54144 17.2003H5.65854V17.0625L5.54144 16.911L5.78253 16.7663V16.6079L5.41745 16.9041L5.05238 16.6079V16.6148ZM5.05238 12.3716L4.6873 12.0754L4.32222 12.3716L3.95715 12.0754L3.59207 12.3716V12.227L3.84005 12.0754L3.71606 11.9377V11.7861H3.84005L3.95715 11.9308L4.08113 11.7861H4.20512V11.9308L4.08113 12.0823L4.32222 12.2201L4.5702 12.0823L4.44621 11.9308V11.7861H4.5702L4.6873 11.9308L4.81129 11.7861H4.92839V11.9308L4.81129 12.0823L5.05238 12.2201L5.29346 12.0823L5.17636 11.9308V11.7861H5.29346L5.41745 11.9308L5.54144 11.7861H5.65854V11.9308L5.54144 12.0823L5.78253 12.2201V12.3716L5.41745 12.0754L5.05238 12.3716ZM7.80767 14.8101L8.20719 14.4932L7.81456 14.1764L8.20719 13.8595L7.81456 13.5426H8.00743L8.20719 13.7493L8.40006 13.646H8.59293V13.7562L8.40006 13.8595L8.59293 13.9628V14.073H8.40006L8.20719 13.9628L8.00743 14.1764L8.20719 14.383L8.40006 14.2866H8.59293V14.3899L8.40006 14.4932L8.59293 14.5965V14.7067H8.40006L8.20719 14.5965L8.00743 14.8101L8.20719 15.0167L8.40006 14.9134H8.59293V15.0236L8.40006 15.1269L8.59293 15.2371V15.3405H8.40006L8.20719 15.2371L8.00743 15.4438H7.81456L8.20719 15.1269L7.81456 14.8101H7.80767ZM1.56693 14.8101L1.1743 14.4932L1.56693 14.1764L1.1743 13.8595L1.56693 13.5426H1.36717L1.1743 13.7493L0.981427 13.646H0.77478V13.7562L0.981427 13.8526L0.781668 13.9559V14.0661H0.981427L1.1743 13.9559L1.36717 14.1695L1.1743 14.3761L0.981427 14.2797H0.77478V14.383L0.974539 14.4863L0.77478 14.5896V14.6999H0.981427L1.1743 14.5896L1.36717 14.8032L1.1743 15.0167L0.981427 14.9134H0.77478V15.0167L0.974539 15.12L0.77478 15.2303V15.3336H0.981427L1.1743 15.2303L1.36717 15.4369H1.56693L1.1743 15.12L1.56693 14.8032V14.8101Z" fill="#28AE66"/>
<path fill-rule="evenodd" clip-rule="evenodd" d="M7.96319 15.8896H8.12187V16.03H7.96319V15.8896ZM7.80451 16.03H7.96319V16.1787H7.81332L7.80451 16.03ZM7.02874 16.7654H7.18742V16.9141H7.02874V16.7654ZM7.18742 16.6166H7.33728V16.7654H7.18742V16.6166ZM2.03031 16.6166H2.18899V16.7654H2.0215L2.03031 16.6166ZM1.24573 15.8896H1.40441V16.03H1.24573V15.8896ZM1.40441 16.03H1.56309V16.1787H1.40441V16.03ZM1.40441 12.8077H1.56309V12.9564H1.40441V12.8077ZM1.24573 12.9564H1.40441V13.1051H1.24573V12.9564ZM2.18899 12.0806H2.33886V12.2293H2.19781L2.18899 12.0806ZM2.03031 12.2293H2.18899V12.378H2.0215L2.03031 12.2293ZM7.02874 12.0806H7.18742V12.2293H7.02874V12.0806ZM7.18742 12.2293H7.33728V12.378H7.18742V12.2293ZM7.80451 12.8077H7.96319V12.9564H7.81332L7.80451 12.8077ZM7.96319 12.9646H8.12187V13.1051H7.96319V12.9646ZM2.19781 16.7654H2.34767V16.9141H2.19781V16.7654Z" fill="#28AE66"/>
<path d="M7.96319 16.03H8.12187V15.8896H7.96319V16.03ZM7.96319 16.03H7.80451L7.81332 16.1787H7.96319V16.03ZM7.18742 16.7654H7.02874V16.9141H7.18742V16.7654ZM7.18742 16.7654H7.33728V16.6166H7.18742V16.7654ZM1.40441 16.03V15.8896H1.24573V16.03H1.40441ZM1.40441 16.03H1.56309V16.1787H1.40441V16.03ZM1.40441 12.9564H1.56309V12.8077H1.40441V12.9564ZM1.40441 12.9564H1.24573V13.1051H1.40441V12.9564ZM7.18742 12.2293V12.0806H7.02874V12.2293H7.18742ZM7.18742 12.2293H7.33728V12.378H7.18742V12.2293ZM2.03031 16.6166H2.18899V16.7654H2.0215L2.03031 16.6166ZM2.18899 12.0806H2.33886V12.2293H2.19781L2.18899 12.0806ZM2.03031 12.2293H2.18899V12.378H2.0215L2.03031 12.2293ZM7.80451 12.8077H7.96319V12.9564H7.81332L7.80451 12.8077ZM7.96319 12.9646H8.12187V13.1051H7.96319V12.9646ZM2.19781 16.7654H2.34767V16.9141H2.19781V16.7654Z" stroke="black" stroke-width="0.0634691"/>
<path fill-rule="evenodd" clip-rule="evenodd" d="M4.212 14.4929H3.75049V14.2036H4.06046V13.935H4.36354V13.687H4.67351V13.997C4.41865 13.997 4.212 14.2036 4.212 14.4929Z" fill="white"/>
<path fill-rule="evenodd" clip-rule="evenodd" d="M5.13497 14.4929H5.59649V14.2036H5.28651V13.935H4.97654V13.687H4.67346V13.997C4.92833 13.997 5.13497 14.2036 5.13497 14.4929Z" fill="#FAAE29"/>
<path fill-rule="evenodd" clip-rule="evenodd" d="M5.13497 14.4932H5.59649V14.7825H5.28651V15.0511H4.97654V15.2991H4.67346V14.9891C4.92833 14.9891 5.13497 14.7825 5.13497 14.4932Z" fill="white"/>
<path fill-rule="evenodd" clip-rule="evenodd" d="M4.212 14.4932H3.75049V14.7825H4.06046V15.0511H4.36354V15.2991H4.67351V14.9891C4.41865 14.9891 4.212 14.7825 4.212 14.4932Z" fill="#FAAE29"/>
<path fill-rule="evenodd" clip-rule="evenodd" d="M5.13497 14.493H4.67346V13.9971C4.92833 13.9971 5.13497 14.2244 5.13497 14.493Z" fill="#28AE66"/>
<path fill-rule="evenodd" clip-rule="evenodd" d="M5.13497 14.4932H4.67346V14.9891C4.92833 14.9891 5.13497 14.7687 5.13497 14.4932Z" fill="#CA3745"/>
<path fill-rule="evenodd" clip-rule="evenodd" d="M4.21204 14.4932H4.67355V14.9891C4.41868 14.9891 4.21204 14.7687 4.21204 14.4932Z" fill="#28AE66"/>
<path fill-rule="evenodd" clip-rule="evenodd" d="M4.21204 14.493H4.67355V13.9971C4.41868 13.9971 4.21204 14.2244 4.21204 14.493Z" fill="#CA3745"/>
<path fill-rule="evenodd" clip-rule="evenodd" d="M5.15571 16.3252L4.68731 16.029L4.2189 16.3252L3.7505 16.029L3.2821 16.3252V16.1805L3.59208 16.029L3.44053 15.8843V15.7397H3.59208L3.7505 15.8843L3.90893 15.7397H4.06736V15.8843L3.90893 16.029L4.2189 16.1805L4.53576 16.029L4.37733 15.8843V15.7397H4.53576L4.68731 15.8843L4.84573 15.7397H5.00416V15.8843L4.84573 16.029L5.15571 16.1805L5.47256 16.029L5.31413 15.8843V15.7397H5.47256L5.6241 15.8843L5.78253 15.7397H5.94096V15.8843L5.78253 16.029L6.09251 16.1805V16.3183L5.6241 16.029L5.15571 16.3252ZM5.15571 12.6675L4.68731 12.9568L4.2189 12.6675L3.7505 12.9568L3.2821 12.6675V12.8053L3.59208 12.9568L3.44053 13.1015V13.253H3.59208L3.7505 13.1015L3.90893 13.253H4.06736V13.0946L3.90893 12.9568L4.2189 12.8053L4.53576 12.95L4.37733 13.0946V13.2461H4.53576L4.68731 13.0946L4.84573 13.2461H5.00416V13.0946L4.84573 12.9568L5.15571 12.8053L5.47256 12.95L5.31413 13.0946V13.2461H5.47256L5.6241 13.0946L5.78253 13.2461H5.94096V13.0946L5.78253 12.9568L6.09251 12.8053V12.6606L5.6241 12.95L5.15571 12.6606V12.6675ZM6.87777 14.858L6.64356 14.4929L6.87777 14.1278L6.64356 13.7628L6.87777 13.3977H6.76066L6.64356 13.6388L6.52646 13.5148H6.40936V13.6388L6.52646 13.7628L6.40936 13.8868V14.0039H6.52646L6.64356 13.8868L6.76066 14.1278L6.64356 14.3689L6.52646 14.2518H6.40936V14.3689L6.52646 14.4929L6.40936 14.6169V14.7409H6.52646L6.64356 14.6169L6.76066 14.858L6.64356 15.106L6.52646 14.982H6.40936V15.106L6.52646 15.2231L6.40936 15.3471V15.471H6.52646L6.64356 15.3471L6.76066 15.595H6.87777L6.64356 15.2231L6.87777 14.858Z" fill="#28AE66"/>
<path fill-rule="evenodd" clip-rule="evenodd" d="M3.28483 12.8158L2.66774 13.3942V15.592L3.28483 16.1786H6.10581L6.7229 15.6002V13.4024L6.097 12.8158H3.28483ZM3.12615 12.3696L1.5658 13.8403V15.1623L3.13497 16.6165H6.25568L7.81603 15.1541V13.8321L6.25568 12.3696H3.13497H3.12615Z" fill="#28AE66" stroke="black" stroke-width="0.0846255"/>
<path fill-rule="evenodd" clip-rule="evenodd" d="M3.93381 16.3218L4.18065 16.6192L4.43453 16.3218H3.92676H3.93381Z" fill="#FAAE29" stroke="black" stroke-width="0.0463511"/>
<path fill-rule="evenodd" clip-rule="evenodd" d="M3.93381 12.6641L4.18065 12.3666L4.43453 12.6641H3.92676H3.93381Z" fill="#FAAE29" stroke="black" stroke-width="0.0463511"/>
<path fill-rule="evenodd" clip-rule="evenodd" d="M4.93955 12.6641L5.18638 12.3666L5.44027 12.6641H4.9325H4.93955Z" fill="#FAAE29" stroke="black" stroke-width="0.0463511"/>
<path fill-rule="evenodd" clip-rule="evenodd" d="M4.93955 16.3218L5.18638 16.6192L5.44027 16.3218H4.9325H4.93955Z" fill="#FAAE29" stroke="black" stroke-width="0.0463511"/>
<path fill-rule="evenodd" clip-rule="evenodd" d="M3.43784 12.6641L3.68467 12.3666L3.93856 12.6641H3.43079H3.43784Z" fill="#CA3745" stroke="black" stroke-width="0.0463511"/>
<path fill-rule="evenodd" clip-rule="evenodd" d="M4.43674 12.6641L4.68358 12.3666L4.93746 12.6641H4.42969H4.43674Z" fill="#CA3745" stroke="black" stroke-width="0.0463511"/>
<path fill-rule="evenodd" clip-rule="evenodd" d="M5.43552 12.6641L5.68236 12.3666L5.93624 12.6641H5.42847H5.43552Z" fill="#CA3745" stroke="black" stroke-width="0.0463511"/>
<path fill-rule="evenodd" clip-rule="evenodd" d="M2.82068 15.8846L3.28347 16.3184H2.82068V15.8846Z" fill="#CA3745" stroke="black" stroke-width="0.0951972"/>
<path fill-rule="evenodd" clip-rule="evenodd" d="M2.49683 14.8583L2.73791 14.4932L2.49683 14.1281L2.73103 13.763L2.49683 13.3979H2.61393L2.73103 13.639L2.84813 13.5151H2.96523V13.639L2.84813 13.763L2.96523 13.887V14.0041H2.84813L2.73103 13.887L2.61393 14.1281L2.73103 14.3692L2.84813 14.2521H2.96523V14.3692L2.84813 14.4932L2.96523 14.6172V14.7412H2.84813L2.73103 14.6172L2.61393 14.8583L2.73103 15.1062L2.84813 14.9822H2.96523V15.1062L2.84813 15.2233L2.96523 15.3473V15.4713H2.84813L2.73103 15.3473L2.61393 15.5953H2.49683L2.73103 15.2233L2.49683 14.8583Z" fill="#28AE66"/>
<path fill-rule="evenodd" clip-rule="evenodd" d="M7.02783 14.0978H7.65374L7.81242 14.2316L7.65374 14.3655H7.03665V14.0903L7.02783 14.0978Z" fill="#CA3745" stroke="black" stroke-width="0.0602129"/>
<path fill-rule="evenodd" clip-rule="evenodd" d="M2.81671 13.105L2.49935 13.4024V15.592L2.81671 15.8894H2.34949V13.105H2.81671Z" fill="#CA3745" stroke="black" stroke-width="0.0846255"/>
<path fill-rule="evenodd" clip-rule="evenodd" d="M3.43784 16.3218L3.68467 16.6192L3.93856 16.3218H3.43079H3.43784Z" fill="#CA3745" stroke="black" stroke-width="0.0463511"/>
<path fill-rule="evenodd" clip-rule="evenodd" d="M4.43674 16.3218L4.68358 16.6192L4.93746 16.3218H4.42969H4.43674Z" fill="#CA3745" stroke="black" stroke-width="0.0463511"/>
<path fill-rule="evenodd" clip-rule="evenodd" d="M5.43552 16.3218L5.68236 16.6192L5.93624 16.3218H5.42847H5.43552Z" fill="#CA3745" stroke="black" stroke-width="0.0463511"/>
<path fill-rule="evenodd" clip-rule="evenodd" d="M6.55792 13.105L6.87528 13.4024V15.592L6.55792 15.8894H7.02515V13.105H6.55792Z" fill="#CA3745" stroke="black" stroke-width="0.0846255"/>
<path fill-rule="evenodd" clip-rule="evenodd" d="M6.56079 15.8846L6.098 16.3184H6.56079V15.8846Z" fill="#CA3745" stroke="black" stroke-width="0.0951972"/>
<path fill-rule="evenodd" clip-rule="evenodd" d="M6.56079 13.1012L6.098 12.6675H6.56079V13.1012Z" fill="#CA3745" stroke="black" stroke-width="0.0951972"/>
<path fill-rule="evenodd" clip-rule="evenodd" d="M2.82068 13.1012L3.28347 12.6675H2.82068V13.1012Z" fill="#CA3745" stroke="black" stroke-width="0.0951972"/>
<path fill-rule="evenodd" clip-rule="evenodd" d="M3.2848 12.8157L2.66771 13.3941V15.5919L3.2848 16.1785H6.10579L6.72288 15.6002V13.4024L6.09697 12.8157H3.2848ZM3.2848 12.667L2.50903 13.3941V15.5919L3.2848 16.3273H6.10579L6.88156 15.5919V13.3941L6.09697 12.667H3.2848Z" fill="#28AE66" stroke="black" stroke-width="0.0846255"/>
<path fill-rule="evenodd" clip-rule="evenodd" d="M7.02783 14.3605H7.65374L7.81242 14.4943L7.65374 14.6282H7.03665V14.353L7.02783 14.3605Z" fill="#FAAE29" stroke="black" stroke-width="0.0602149"/>
<path fill-rule="evenodd" clip-rule="evenodd" d="M7.02783 14.6212H7.65374L7.81242 14.7551L7.65374 14.8889H7.03665V14.6138L7.02783 14.6212Z" fill="#CA3745" stroke="black" stroke-width="0.0602129"/>
<path fill-rule="evenodd" clip-rule="evenodd" d="M7.02783 14.8839H7.65374L7.81242 15.0178L7.65374 15.1516H7.03665V14.8765L7.02783 14.8839Z" fill="#FAAE29" stroke="black" stroke-width="0.0602149"/>
<path fill-rule="evenodd" clip-rule="evenodd" d="M7.02783 13.8297H7.65374L7.81242 13.9636L7.65374 14.0974H7.03665V13.8223L7.02783 13.8297Z" fill="#FAAE29" stroke="black" stroke-width="0.0602149"/>
<path fill-rule="evenodd" clip-rule="evenodd" d="M2.3468 14.0978H1.7209L1.56222 14.2316L1.7209 14.3655H2.33799V14.0903L2.3468 14.0978Z" fill="#CA3745" stroke="black" stroke-width="0.0602129"/>
<path fill-rule="evenodd" clip-rule="evenodd" d="M2.3468 14.3605H1.7209L1.56222 14.4943L1.7209 14.6282H2.33799V14.353L2.3468 14.3605Z" fill="#FAAE29" stroke="black" stroke-width="0.0602149"/>
<path fill-rule="evenodd" clip-rule="evenodd" d="M2.3468 14.6212H1.7209L1.56222 14.7551L1.7209 14.8889H2.33799V14.6138L2.3468 14.6212Z" fill="#CA3745" stroke="black" stroke-width="0.0602129"/>
<path fill-rule="evenodd" clip-rule="evenodd" d="M2.3468 14.8839H1.7209L1.56222 15.0178L1.7209 15.1516H2.33799V14.8765L2.3468 14.8839Z" fill="#FAAE29" stroke="black" stroke-width="0.0602149"/>
<path fill-rule="evenodd" clip-rule="evenodd" d="M2.3468 13.8297H1.7209L1.56222 13.9636L1.7209 14.0974H2.33799V13.8223L2.3468 13.8297Z" fill="#FAAE29" stroke="black" stroke-width="0.0602149"/>
<path fill-rule="evenodd" clip-rule="evenodd" d="M1.40442 12.9644V16.0215H2.189V16.7569H7.18743V16.0215H7.9632V12.9644H7.18743V12.2373H2.189V12.9644H1.40442ZM1.5631 13.1049V15.8893H2.33887V16.6164H7.02875V15.8893H7.81334V13.1049H7.02875V12.386H2.33887V13.1131H1.5631V13.1049Z" fill="#970000" stroke="black" stroke-width="0.0634691"/>
<path fill-rule="evenodd" clip-rule="evenodd" d="M8.58974 1.5228L8.12252 0.95866V0.537544L7.65529 0.116429H6.72084L5.93626 -0.304688H3.44145L2.65686 0.116429H1.72241L1.25519 0.537544V0.95866L0.787964 1.51485V2.65107L1.25519 3.20726V3.63632L1.72241 4.05744H2.65686L3.44145 4.47855H5.93626L6.72084 4.05744H7.65529L8.13133 3.63632V3.21521L8.59856 2.65107V1.51485L8.58974 1.5228Z" fill="#CA3745" stroke="black" stroke-width="0.0622402"/>
<path fill-rule="evenodd" clip-rule="evenodd" d="M0.940063 2.0874V2.50758L1.40846 3.07242V3.4926L1.87686 3.91967H2.81366L3.59892 4.33297H4.68726V2.09429H0.940063V2.0874Z" fill="#FAAE29"/>
<path fill-rule="evenodd" clip-rule="evenodd" d="M3.37168 3.07227L2.79996 3.43734H2.45555L2.57265 3.55444L2.34534 3.79553L2.46244 3.91952L2.80685 3.79553L2.91706 3.91952L2.96528 3.59577L3.599 3.21003L3.37168 3.07227Z" fill="#CA3745"/>
<path fill-rule="evenodd" clip-rule="evenodd" d="M2.74477 2.78993L2.17304 3.15501H1.83552L1.94573 3.27211L1.72531 3.5132L1.83552 3.63719L2.17993 3.5132L2.29014 3.63719L2.34525 3.31344L2.97208 2.93459L2.74477 2.79682V2.78993ZM2.43479 2.2251L1.86307 2.59017H1.51866L1.63576 2.71416L1.40845 2.95525L1.52555 3.07235L1.86996 2.94836L1.98017 3.07235L2.02839 2.7486L2.66211 2.36975L2.43479 2.23199V2.2251Z" fill="#CA3745"/>
<path fill-rule="evenodd" clip-rule="evenodd" d="M8.43446 2.08741V1.66723L7.96606 1.1024V0.682214L7.49766 0.255143H6.56086L5.78249 -0.165039H4.68726V2.08741H8.43446Z" fill="#FAAE29"/>
<path fill-rule="evenodd" clip-rule="evenodd" d="M4.68737 4.33993H4.39807L4.06743 4.05751H3.53015L3.24084 3.91975L3.3855 3.78198L3.6748 3.91975H3.96411L4.25342 3.49268L4.68737 3.63044V3.91975H4.25342L4.68737 4.33304V4.33993Z" fill="#CA3745"/>
<path fill-rule="evenodd" clip-rule="evenodd" d="M0.940063 2.08741V1.66723L1.40846 1.1024V0.682214L1.87686 0.255143H2.81366L3.59892 -0.165039H4.68726V2.08741H0.940063Z" fill="white"/>
<path fill-rule="evenodd" clip-rule="evenodd" d="M4.68737 -0.165039H4.39807L4.06743 0.11049H3.53015L3.24084 0.255143L3.3855 0.392908L3.6748 0.255143H3.96411L4.25342 0.682214L4.68737 0.544449V0.255143H4.25342L4.68737 -0.165039Z" fill="#CA3745"/>
<path fill-rule="evenodd" clip-rule="evenodd" d="M4.68726 -0.165039H4.97656L5.31408 0.11049H5.84448L6.13379 0.255143L5.99602 0.392908L5.69983 0.255143H5.41052L5.12122 0.682214L4.68726 0.544449V0.255143H5.12122L4.68726 -0.165039Z" fill="#CA3745"/>
<path fill-rule="evenodd" clip-rule="evenodd" d="M8.43446 2.0874V2.50758L7.96606 3.07242V3.4926L7.49766 3.91967H6.56086L5.78249 4.33297H4.68726V2.09429H8.43446V2.0874Z" fill="white"/>
<path fill-rule="evenodd" clip-rule="evenodd" d="M4.68728 4.33961H4.97659L5.31411 4.05719H5.84451L6.13381 3.91943L5.99605 3.78166L5.69985 3.91943H5.41055L5.12124 3.49236L4.68728 3.63012V3.91943H5.12124L4.68728 4.33272V4.33961ZM2.7448 1.37767L2.17308 1.01948H1.83555L1.94577 0.902377L1.72534 0.661289L1.83555 0.537301L2.17997 0.661289L2.29018 0.537301L2.34528 0.861048L2.97211 1.2399L2.7448 1.37767ZM6.00983 1.10214L6.57466 0.73706H6.91907L6.80197 0.619959L7.02928 0.378871L6.91907 0.254883L6.57466 0.378871L6.46445 0.254883L6.40934 0.57863L5.78251 0.964372L6.00983 1.10214Z" fill="#CA3745"/>
<path fill-rule="evenodd" clip-rule="evenodd" d="M3.37165 1.10214L2.79992 0.73706H2.45551L2.57261 0.619959L2.3453 0.378871L2.4624 0.254883L2.80681 0.378871L2.91702 0.254883L2.96524 0.57863L3.59896 0.957483L3.37165 1.09525V1.10214ZM2.42796 1.94939L1.85623 1.58431H1.51182L1.62892 1.46032L1.40161 1.21924L1.53249 1.10902L1.8769 1.23301L1.98711 1.10902L2.03533 1.43277L2.66905 1.81162L2.44174 1.94939H2.42796Z" fill="#CA3745"/>
<path fill-rule="evenodd" clip-rule="evenodd" d="M1.22253 2.0874H1.3603L1.50495 2.22517L1.6496 2.0874H4.68732V4.05744H4.54955L4.68732 4.1952V4.34674L4.25336 3.92656V3.7888H4.39801V3.92656H4.54267V3.7888L3.37166 3.16886H2.37976V2.54891L1.9458 2.23894H1.65649L1.51184 2.37671L1.6496 2.51447H1.51184L1.22253 2.10118V2.0874Z" fill="white"/>
<path fill-rule="evenodd" clip-rule="evenodd" d="M1.22253 2.08741H1.3603L1.50495 1.94965L1.6496 2.08741H4.68732V0.117379H4.54955L4.68732 -0.020386V-0.165039L4.25336 0.255143V0.392908H4.39801V0.255143H4.54267V0.392908L3.37166 1.01974H2.37976V1.63279L1.9458 1.94965H1.65649L1.51184 1.81189L1.6496 1.66723H1.51184L1.22253 2.08741Z" fill="#FAAE29"/>
<path fill-rule="evenodd" clip-rule="evenodd" d="M1.87683 2.0874H4.68723V3.77502L3.44046 3.07242H2.50366V2.50758L1.88372 2.0874H1.87683Z" fill="#28AE66"/>
<path fill-rule="evenodd" clip-rule="evenodd" d="M6.62985 1.38485L7.20157 1.01977H7.54598L7.42888 0.902674L7.65619 0.661586L7.54598 0.537598L7.20157 0.661586L7.09136 0.537598L7.03625 0.861345L6.40942 1.2402L6.62985 1.37796V1.38485ZM6.94671 1.94969L7.51843 1.58461H7.85595L7.73885 1.46062L7.96617 1.21953L7.85595 1.10243L7.51154 1.22642L7.40133 1.10243L7.34622 1.42618L6.71939 1.80503L6.94671 1.9428V1.94969Z" fill="#CA3745"/>
<path fill-rule="evenodd" clip-rule="evenodd" d="M8.15893 2.08741H8.01427L7.86962 1.94965L7.72497 2.08741H4.68726V0.117379H4.83191L4.68726 -0.020386V-0.165039L5.12122 0.255143V0.392908H4.97656V0.255143H4.83191V0.392908L6.00291 1.01974H6.99482V1.63279L7.43566 1.94965H7.72497L7.86273 1.81189L7.72497 1.66723H7.86273L8.15893 2.08741Z" fill="white"/>
<path fill-rule="evenodd" clip-rule="evenodd" d="M7.49766 2.08752H4.68726V0.399902L5.94091 1.1025H6.87772V1.66734L7.50454 2.08752H7.49766Z" fill="#28AE66"/>
<path fill-rule="evenodd" clip-rule="evenodd" d="M6.0099 3.07227L6.57474 3.43734H6.91915L6.80205 3.55444L7.02936 3.79553L6.91915 3.91952L6.57474 3.79553L6.46453 3.91952L6.40942 3.59577L5.78259 3.21003L6.0099 3.07227Z" fill="#CA3745"/>
<path fill-rule="evenodd" clip-rule="evenodd" d="M6.62985 2.78993L7.20157 3.15501H7.54598L7.42888 3.27211L7.65619 3.5132L7.54598 3.63719L7.20157 3.5132L7.09136 3.63719L7.03625 3.31344L6.40942 2.93459L6.62985 2.79682V2.78993ZM6.94671 2.2251L7.51843 2.59017H7.85595L7.73885 2.70727L7.96617 2.94836L7.85595 3.07235L7.51154 2.94836L7.40133 3.07235L7.34622 2.7486L6.71939 2.36975L6.94671 2.23199V2.2251Z" fill="#CA3745"/>
<path fill-rule="evenodd" clip-rule="evenodd" d="M8.15893 2.0874H8.01427L7.86962 2.22517L7.72497 2.0874H4.68726V4.05744H4.83191L4.68726 4.1952V4.34674L5.12122 3.92656V3.7888H4.97656V3.92656H4.83191V3.7888L6.00291 3.16886H6.99482V2.54891L7.43566 2.23894H7.72497L7.86273 2.37671L7.72497 2.51447H7.86273L8.15893 2.10118V2.0874Z" fill="#FAAE29"/>
<path fill-rule="evenodd" clip-rule="evenodd" d="M7.49763 2.08752H4.68723V3.77514L5.94089 3.07254H6.87769V2.5077L7.50452 2.08752H7.49763ZM1.87683 2.08752H4.68723V0.399902L3.44046 1.1025H2.50366V1.66734L1.88372 2.08752H1.87683Z" fill="#CA3745"/>
<path fill-rule="evenodd" clip-rule="evenodd" d="M4.99731 2.08756L5.78257 1.66737H6.25097L6.09254 1.52961L6.4094 1.2403L6.25097 1.10254L5.78257 1.2403L5.62414 1.10254L5.55526 1.48139L4.68734 1.92224L4.99731 2.08756ZM4.37737 2.08756L3.599 2.50774H3.1306L3.28214 2.6455L2.97217 2.93481L3.1306 3.07258L3.599 2.93481L3.75054 3.07258L3.81942 2.69372L4.68734 2.25287L4.37737 2.08756Z" fill="#CA3745"/>
<path fill-rule="evenodd" clip-rule="evenodd" d="M4.37732 2.08756L3.59895 1.66737H3.13054L3.28897 1.52961L2.979 1.2403L3.13743 1.10254L3.60583 1.2403L3.75738 1.10254L3.82626 1.48139L4.69417 1.92224L4.3842 2.08756H4.37732ZM4.99726 2.08756L5.78252 2.50774H6.25092L6.09249 2.6455L6.40935 2.93481L6.25092 3.07258L5.78252 2.93481L5.62409 3.07258L5.5552 2.69372L4.68729 2.25287L4.99726 2.08756Z" fill="#28AE66"/>
<path fill-rule="evenodd" clip-rule="evenodd" d="M3.75049 2.08737L4.68729 1.38477L5.62409 2.08737L4.68729 2.78997L3.75049 2.08737Z" fill="white"/>
<path fill-rule="evenodd" clip-rule="evenodd" d="M1.64953 2.36982L1.79419 2.50758L1.65642 2.64535H1.50488L1.07092 2.0874H1.21558L1.50488 2.50758H1.64953L1.51177 2.36982L1.64953 2.23206H1.94573V2.36982H1.65642H1.64953Z" fill="#CA3745"/>
<path fill-rule="evenodd" clip-rule="evenodd" d="M1.64953 1.80483L1.79419 1.66706L1.65642 1.5293H1.50488L1.07092 2.08724H1.21558L1.50488 1.66706H1.64953L1.51177 1.80483L1.64953 1.94259H1.94573V1.80483H1.65642H1.64953ZM7.72496 2.36966L7.5872 2.50743L7.72496 2.64519H7.86961L8.30357 2.08724H8.16581L7.86961 2.50743H7.73185L7.86961 2.36966L7.73185 2.2319H7.43565V2.36966H7.72496Z" fill="#CA3745"/>
<path fill-rule="evenodd" clip-rule="evenodd" d="M7.73186 1.80483L7.58032 1.66706L7.72497 1.5293H7.86962L8.30358 2.08724H8.16582L7.86962 1.66706H7.73186L7.86962 1.80483L7.73186 1.94259H7.43566V1.80483H7.72497H7.73186ZM4.5426 1.5293H4.83191V2.65208H4.5426V1.5293Z" fill="#CA3745"/>
<path fill-rule="evenodd" clip-rule="evenodd" d="M4.10864 1.80469H5.26587V2.36952H4.10864V1.80469Z" fill="#CA3745"/>
<path fill-rule="evenodd" clip-rule="evenodd" d="M3.36572 23.4814L0.77002 24.9124V27.2443L3.39021 28.6753H5.9859L8.58159 27.2443V24.9124L5.9859 23.5079H3.39021L3.36572 23.4814Z" fill="#28AE66" stroke="black" stroke-width="0.0631467"/>
<path fill-rule="evenodd" clip-rule="evenodd" d="M1.75293 25.8584H1.90447V25.5622H2.22133V25.8515H2.37976V25.1764H2.22133V25.4657H1.91136V25.1764H1.75293V25.8515V25.8584ZM5.74122 28.1039H5.89965V27.8146H6.20962V28.1039H6.36805V27.422H6.21651V27.7113H5.89965V27.422H5.74811V28.0971L5.74122 28.1039ZM3.22012 24.7287H3.37855V24.4463H3.69541V24.7356H3.84695V24.0605H3.69541V24.3499H3.37855V24.0605H3.22012V24.7356V24.7287ZM5.52768 24.7287H5.68611V24.4463H6.00297V24.7356H6.1614V24.0605H6.00297V24.3499H5.68611V24.0605H5.52768V24.7356V24.7287ZM7.00177 25.8584H7.15331V25.5622H7.47017V25.8515H7.6286V25.1764H7.47017V25.4657H7.15331V25.1764H7.00177V25.8515V25.8584ZM7.00177 26.9812H7.15331V26.6919H7.47017V26.9812H7.6286V26.3061H7.47017V26.5954H7.15331V26.3061H7.00177V26.9812Z" fill="#CC0000"/>
<path fill-rule="evenodd" clip-rule="evenodd" d="M4.68735 28.5521V26.0793H8.469V27.2021L5.94101 28.5521H4.68046H4.68735ZM4.68735 23.6133V26.0793H0.912598V24.9565L3.4268 23.6133H4.68735Z" fill="#FAAE29"/>
<path fill-rule="evenodd" clip-rule="evenodd" d="M4.68735 23.6133V26.0793H8.469V24.9565L5.94101 23.6133H4.68046H4.68735ZM4.68735 28.5521V26.0793H0.912598V27.2021L3.4268 28.5521H4.68735Z" fill="white"/>
<path fill-rule="evenodd" clip-rule="evenodd" d="M6.7064 25.0747H8.2207L6.7064 24.403V25.0747ZM8.46952 24.9607V26.0824H6.08078V25.1888H5.57602L4.94329 24.8529V24.0671L5.32719 23.7249H4.82243V24.8529H4.69446V23.6172H5.95281L8.46952 24.9607Z" fill="#FAAE29" stroke="black" stroke-width="0.0166389"/>
<path fill-rule="evenodd" clip-rule="evenodd" d="M3.42676 25.2939V26.8713H3.80561L4.68731 27.3259L5.569 26.8713H5.94785V25.3008H5.569L4.68731 24.853L3.80561 25.3008H3.42676V25.2939Z" fill="#CA3745"/>
<path fill-rule="evenodd" clip-rule="evenodd" d="M2.67519 27.0903H1.1609L2.67519 27.762V27.0903ZM0.912068 27.2044V26.0827H3.30081V26.9762H3.80557L4.43831 27.3121V28.0979L4.0544 28.4401H4.55917V27.3121H4.68713V28.5479H3.42878L0.912068 27.2044Z" fill="#FAAE29" stroke="black" stroke-width="0.0166389"/>
<path fill-rule="evenodd" clip-rule="evenodd" d="M2.67519 25.0747H1.1609L2.67519 24.403V25.0747ZM0.912068 24.9607V26.0824H3.30081V25.1888H3.80557L4.43831 24.8529V24.0671L4.0544 23.7249H4.55917V24.8529H4.68713V23.6172H3.42878L0.912068 24.9607Z" fill="white" stroke="black" stroke-width="0.0166389"/>
<path fill-rule="evenodd" clip-rule="evenodd" d="M6.7064 27.0903H8.2207L6.7064 27.762V27.0903ZM8.46952 27.2044V26.0827H6.08078V26.9762H5.57602L4.94329 27.3121V28.0979L5.32719 28.4401H4.82243V27.3121H4.69446V28.5479H5.95281L8.46952 27.2044Z" fill="white" stroke="black" stroke-width="0.0166389"/>
<path fill-rule="evenodd" clip-rule="evenodd" d="M1.67022 26.9817H1.82176V26.6373H2.13862V26.9817H2.29705V26.1964H2.13862V26.534H1.82176V26.1896H1.67022V26.9817ZM3.17874 28.1045H3.33717V27.7601H3.64714V28.1045H3.80557V27.3192H3.64714V27.6567H3.33717V27.3123H3.17874V28.1114V28.1045ZM1.66333 25.1839H1.82176V25.5214H2.13862V25.177H2.29705V25.976H2.13862V25.6316H1.82176V25.9691H1.67022V25.1839H1.66333ZM3.17874 24.0611H3.33717V24.3986H3.64714V24.0542H3.80557V24.8463H3.64714V24.5088H3.33717V24.8532H3.17874V24.0611ZM5.56896 28.1045H5.72739V27.7601H6.04425V28.1045H6.20268V27.3192H6.04425V27.6567H5.72739V27.3123H5.56896V28.1114V28.1045ZM7.08437 25.9691H7.2428V25.6316H7.55277V25.976H7.7112V25.1839H7.55277V25.5214H7.24969V25.177H7.09126V25.976L7.08437 25.9691Z" fill="#CA3745"/>
<path fill-rule="evenodd" clip-rule="evenodd" d="M5.56897 28.1042H5.7274V27.7597H6.04426V28.1042H6.20269V27.3189H6.04426V27.6564H5.7274V27.312H5.56897V28.111V28.1042Z" fill="#CA3745"/>
<path fill-rule="evenodd" clip-rule="evenodd" d="M5.56897 28.1045H5.7274V27.7601H6.04426V28.1045H6.20269V27.3192H6.04426V27.6567H5.7274V27.3123H5.56897V28.1114V28.1045ZM7.08438 26.9817H7.24281V26.6373H7.55278V26.9817H7.71121V26.1964H7.55278V26.5271H7.2497V26.1896H7.09127V26.9817H7.08438ZM5.56897 24.8463H5.7274V24.5088H6.04426V24.8532H6.20269V24.0611H6.04426V24.3986H5.7274V24.0542H5.56897V24.8463Z" fill="#CA3745"/>
<path fill-rule="evenodd" clip-rule="evenodd" d="M4.8182 26.079L5.32104 25.6657H5.56902V25.8723H5.32104V25.9757H5.69989V25.5692H5.32104V25.2593H4.8182V25.5692H4.94219V25.3626H5.19017V25.5692L4.68732 25.9825L4.18448 25.5692V25.3626H4.43935V25.5692H4.56334V25.2593H4.06049V25.5692H3.68164V25.9825H4.06049V25.8792H3.80563V25.6726H4.06049L4.56334 26.0859L4.06049 26.4923H3.80563V26.2856H4.06049V26.1823H3.68164V26.5956H4.06049V26.8987H4.56334V26.5956H4.43935V26.8022H4.18448V26.5956L4.68732 26.1823L5.19017 26.5956V26.8022H4.94219V26.5956H4.8182V26.8987H5.32104V26.5956H5.69989V26.1823H5.32104V26.2856H5.56902V26.4923H5.32104L4.8182 26.079Z" fill="white"/>
<path fill-rule="evenodd" clip-rule="evenodd" d="M1.15872 8.67998L1.40044 8.42912H2.86496L3.9598 7.32666H5.42433L6.51917 8.43572H7.9837L8.22541 8.67998L7.9837 8.92423H6.51206L5.41722 10.0333H3.9527L2.86496 8.92423H1.39333L1.15161 8.67998H1.15872Z" fill="#CA3745"/>
<path fill-rule="evenodd" clip-rule="evenodd" d="M1.28284 8.69981L1.41522 8.57979H2.92437L4.05623 7.41553H5.31386L6.45235 8.58579H7.9615L8.08726 8.70581L7.9615 8.81984H6.45235L5.43962 9.87007H3.93047L2.92437 8.81984H1.4086L1.28284 8.69981Z" fill="#CA3745" stroke="black" stroke-width="0.0468712"/>
<path fill-rule="evenodd" clip-rule="evenodd" d="M5.30351 8.80541L5.78694 9.29392L5.54523 9.53818L5.41726 9.41935H5.30351V9.53818L5.42437 9.66361H5.6732L5.91491 9.41935V9.16849L5.42437 8.67998L5.91491 8.18486V7.9406L5.6732 7.69635H5.42437L5.30351 7.81517V7.9406H5.42437L5.55234 7.81517L5.79405 8.06603L5.30351 8.55455L4.82007 8.06603L5.30351 7.57092V7.44549H5.18265L4.69921 7.9406L4.20867 7.44549H4.08781V7.57092L4.57125 8.06603L4.08781 8.55455L3.59726 8.06603L3.84609 7.81517L3.96695 7.9406H4.08781V7.81517L3.96695 7.69635H3.71812L3.47641 7.9406V8.18486L3.96695 8.67998L3.47641 9.16849V9.41935L3.71812 9.66361H3.96695L4.08781 9.53818V9.41935H3.95273L3.83187 9.53818L3.58305 9.29392L4.07359 8.80541L4.55703 9.29392L4.07359 9.78904V9.90786H4.19445L4.685 9.41935L5.16843 9.90786H5.28929V9.78904L4.80585 9.29392L5.28929 8.80541H5.30351ZM4.6921 8.18486L4.20156 8.67998L4.6921 9.16849L5.17554 8.67998L4.6921 8.18486ZM3.95984 10.0333V11.0235L4.0807 10.8915L4.20156 11.0235L4.32242 10.8915L4.44328 11.0235L4.57125 10.8915L4.6921 11.0235L4.81296 10.8915L4.93382 11.0235L5.05468 10.8915L5.17554 11.0235L5.2964 10.8915L5.42437 11.0235V10.0333H3.95273H3.95984ZM5.42437 7.32666V6.33643L5.2964 6.46846L5.17554 6.33643L5.05468 6.46846L4.93382 6.33643L4.81296 6.46846L4.6921 6.33643L4.56414 6.46846L4.44328 6.33643L4.32242 6.46846L4.20156 6.33643L4.0807 6.46846L3.95984 6.33643V7.32666H5.42437ZM7.48608 8.43572V7.44549L7.37233 7.57752L7.25147 7.44549L7.13061 7.57752L7.00264 7.44549L6.88178 7.57752L6.76093 7.44549L6.64007 7.57752L6.51921 7.44549V8.43572H7.49319H7.48608ZM2.865 8.43572V7.44549L2.73703 7.57752L2.61617 7.44549L2.49532 7.57752L2.37446 7.44549L2.2536 7.57752L2.13274 7.44549L2.00477 7.57752L1.88391 7.44549V8.43572H2.85789H2.865ZM7.49319 8.92423V9.91447L7.37233 9.78243L7.25147 9.91447L7.13061 9.78243L7.00264 9.91447L6.88178 9.78243L6.76093 9.91447L6.64007 9.78243L6.51921 9.91447V8.92423H7.49319ZM2.85789 8.92423V9.91447L2.73703 9.78243L2.61617 9.91447L2.49532 9.78243L2.37446 9.91447L2.2536 9.78243L2.13274 9.91447L2.00477 9.78243L1.88391 9.91447V8.92423H2.85789Z" fill="#FAAE29"/>
<path fill-rule="evenodd" clip-rule="evenodd" d="M5.41724 10.0335V10.6474L5.54521 10.522L5.66607 10.654L5.78693 10.522L5.90779 10.654L6.02864 10.522L6.1495 10.654L6.27747 10.522L6.39833 10.654L6.51919 10.522V8.92441L5.41724 10.0335ZM3.95982 10.0335V10.6474L3.83186 10.522L3.711 10.654L3.59014 10.522L3.46928 10.654L3.34842 10.522L3.22756 10.654L3.1067 10.522L2.98584 10.654L2.85787 10.522V8.92441L3.95982 10.0335ZM3.95982 7.32683V6.71289L3.83186 6.83172L3.711 6.71289L3.59014 6.83172L3.46928 6.71289L3.34842 6.83172L3.22756 6.71289L3.1067 6.83172L2.98584 6.71289L2.85787 6.83172V8.4359L3.95982 7.32683ZM5.41724 7.32683V6.71289L5.54521 6.83172L5.66607 6.71289L5.78693 6.83172L5.90779 6.71289L6.02864 6.83172L6.1495 6.71289L6.27036 6.83172L6.39833 6.71289L6.51919 6.83172V8.4359L5.41724 7.32683ZM1.88389 9.66378L1.76303 9.53835L1.64218 9.67039L1.52132 9.53835L1.40046 9.67039L1.2796 9.53835L1.15163 9.67039L1.03077 9.53835L0.909912 9.67039V7.68992L1.03077 7.82195L1.15163 7.68992L1.2796 7.82195L1.40046 7.68992L1.52132 7.82195L1.64218 7.68992L1.76303 7.82195L1.88389 7.68992V8.4359H1.40046L1.15163 8.68015L1.40046 8.92441H1.88389V9.66378ZM7.49317 9.66378L7.61403 9.53835L7.73489 9.67039L7.85575 9.53835L7.98372 9.67039L8.10457 9.53835L8.22543 9.67039L8.34629 9.53835L8.46715 9.67039V7.68992L8.34629 7.82195L8.22543 7.68992L8.10457 7.82195L7.98372 7.68992L7.85575 7.82195L7.73489 7.68992L7.61403 7.82195L7.49317 7.68992V8.4359H7.98372L8.22543 8.68015L7.98372 8.92441H7.49317V9.66378Z" fill="#28AE66"/>
<path fill-rule="evenodd" clip-rule="evenodd" d="M3.35549 10.1127C3.35549 10.1127 3.25596 10.2052 3.25596 10.258C3.25596 10.3042 3.3626 10.4032 3.41237 10.4032C3.46924 10.4032 3.56166 10.3042 3.56166 10.258C3.56166 10.2118 3.46213 10.1127 3.46213 10.1127V9.91469C3.46213 9.91469 3.67541 10.2514 3.67541 10.1061C3.67541 10.0005 3.46213 9.82227 3.46213 9.82227H3.35549C3.35549 9.82227 3.14221 10.0335 3.14221 10.1061C3.14221 10.2514 3.35549 9.91469 3.35549 9.91469V10.1127Z" fill="white"/>
<path fill-rule="evenodd" clip-rule="evenodd" d="M4.62801 10.4889C4.62801 10.4889 4.50715 10.6209 4.50715 10.6869C4.50715 10.7529 4.63512 10.8982 4.692 10.8982C4.76309 10.8982 4.86973 10.7595 4.86973 10.6935C4.86973 10.6275 4.74887 10.4889 4.74887 10.4889V10.2116C4.74887 10.2116 4.96215 10.6605 4.96215 10.4559C4.96215 10.3238 4.74887 10.0796 4.74887 10.0796H4.62801C4.62801 10.0796 4.37918 10.3833 4.41473 10.4559C4.41473 10.6605 4.62801 10.2116 4.62801 10.2116V10.4889Z" fill="#CA3745"/>
<path d="M3.34627 8.79801C3.47926 8.79801 3.58707 8.74201 3.58707 8.67293C3.58707 8.60385 3.47926 8.54785 3.34627 8.54785C3.21328 8.54785 3.10547 8.60385 3.10547 8.67293C3.10547 8.74201 3.21328 8.79801 3.34627 8.79801Z" fill="#28AE66"/>
<path d="M4.69002 8.79801C4.82301 8.79801 4.93082 8.74201 4.93082 8.67293C4.93082 8.60385 4.82301 8.54785 4.69002 8.54785C4.55703 8.54785 4.44922 8.60385 4.44922 8.67293C4.44922 8.74201 4.55703 8.79801 4.69002 8.79801Z" fill="#28AE66"/>
<path d="M6.02644 8.79801C6.15943 8.79801 6.26724 8.74201 6.26724 8.67293C6.26724 8.60385 6.15943 8.54785 6.02644 8.54785C5.89345 8.54785 5.78564 8.60385 5.78564 8.67293C5.78564 8.74201 5.89345 8.79801 6.02644 8.79801Z" fill="#28AE66"/>
<path fill-rule="evenodd" clip-rule="evenodd" d="M3.33416 7.26045C3.33416 7.26045 3.23463 7.16143 3.23463 7.11521C3.23463 7.069 3.34127 6.96338 3.38393 6.96338C3.4408 6.96338 3.53322 7.0624 3.53322 7.10861C3.53322 7.16143 3.43369 7.26045 3.43369 7.26045V7.4585C3.43369 7.4585 3.65408 7.11521 3.65408 7.26045C3.65408 7.36607 3.4408 7.55092 3.4408 7.55092H3.33416C3.33416 7.55092 3.11377 7.33967 3.11377 7.26705C3.11377 7.12182 3.32705 7.45189 3.32705 7.45189V7.25385L3.33416 7.26045Z" fill="white"/>
<path fill-rule="evenodd" clip-rule="evenodd" d="M4.5996 6.87779C4.5996 6.87779 4.47874 6.74576 4.47874 6.67975C4.47874 6.61373 4.61382 6.4751 4.66358 6.4751C4.73468 6.4751 4.84843 6.60713 4.84843 6.67314C4.84843 6.73916 4.72757 6.88439 4.72757 6.88439V7.14846C4.72757 7.14846 4.94085 6.70615 4.94085 6.9108C4.94085 7.04283 4.72757 7.29369 4.72757 7.29369H4.59249C4.59249 7.29369 4.34366 6.98342 4.37921 6.9108C4.37921 6.71275 4.59249 7.15506 4.59249 7.15506V6.87779H4.5996Z" fill="#CA3745"/>
<path fill-rule="evenodd" clip-rule="evenodd" d="M5.95046 10.1123C5.95046 10.1123 5.85093 10.2047 5.85093 10.2576C5.85093 10.3038 5.95757 10.4028 6.00733 10.4028C6.06421 10.4028 6.15663 10.3038 6.15663 10.2576C6.15663 10.2113 6.0571 10.1123 6.0571 10.1123V9.91427C6.0571 9.91427 6.27038 10.251 6.27038 10.1057C6.27038 10.0001 6.0571 9.82185 6.0571 9.82185H5.94335C5.94335 9.82185 5.73007 10.0331 5.73007 10.1057C5.73007 10.251 5.94335 9.91427 5.94335 9.91427V10.1123H5.95046ZM5.92913 7.26045C5.92913 7.26045 5.8296 7.16143 5.8296 7.10861C5.8296 7.069 5.93624 6.96338 5.9789 6.96338C6.03577 6.96338 6.12819 7.0624 6.12819 7.10861C6.12819 7.16143 6.02866 7.26045 6.02866 7.26045V7.4585C6.02866 7.4585 6.24905 7.11521 6.24905 7.26045C6.24905 7.36607 6.03577 7.55092 6.03577 7.55092H5.92913C5.92913 7.55092 5.70874 7.33967 5.70874 7.26705C5.70874 7.12182 5.92202 7.45189 5.92202 7.45189V7.25385L5.92913 7.26045Z" fill="white"/>
<path fill-rule="evenodd" clip-rule="evenodd" d="M2.29619 9.42609C2.29619 9.42609 2.16112 9.51851 2.16112 9.55812C2.16112 9.60433 2.3033 9.70336 2.36729 9.69675C2.43838 9.69675 2.56635 9.61093 2.56635 9.56472C2.56635 9.51851 2.43127 9.42609 2.43127 9.42609V9.24125C2.43127 9.24125 2.67299 9.53832 2.67299 9.40629C2.67299 9.31386 2.43127 9.14883 2.43127 9.14883H2.29619C2.29619 9.14883 2.01893 9.36008 2.06159 9.40629C2.06159 9.53832 2.29619 9.24125 2.29619 9.24125V9.42609ZM2.26776 8.03316C2.26776 8.03316 2.13268 7.94074 2.13268 7.89453C2.13268 7.84832 2.27487 7.7559 2.33885 7.7625C2.40994 7.7625 2.53791 7.84832 2.53791 7.89453C2.53791 7.94074 2.40283 8.02656 2.40283 8.02656V8.21141C2.40283 8.21141 2.64455 7.91434 2.64455 8.05297C2.64455 8.13879 2.40283 8.30383 2.40283 8.30383H2.26776C2.26776 8.30383 1.99049 8.09918 2.03315 8.05297C2.03315 7.92094 2.26776 8.21141 2.26776 8.21141V8.03316ZM6.98126 9.39308C6.98126 9.39308 6.83907 9.4855 6.83907 9.53172C6.83907 9.57793 6.98837 9.67035 7.05235 9.67035C7.12344 9.67035 7.25141 9.57793 7.25141 9.53832C7.25141 9.4855 7.10922 9.39308 7.10922 9.39308V9.21484C7.10922 9.21484 7.35094 9.51191 7.35094 9.37328C7.35094 9.28746 7.11633 9.12242 7.11633 9.12242H6.97415C6.97415 9.12242 6.70399 9.32707 6.73954 9.37328C6.73954 9.51191 6.98126 9.21484 6.98126 9.21484V9.39968V9.39308ZM6.95282 8.00676C6.95282 8.00676 6.81063 7.91434 6.81063 7.86812C6.81063 7.82191 6.95993 7.72949 7.02391 7.72949C7.09501 7.72949 7.22297 7.82191 7.22297 7.86152C7.22297 7.91434 7.08079 8.00016 7.08079 8.00016V8.185C7.08079 8.185 7.3225 7.88793 7.3225 8.01996C7.3225 8.11238 7.0879 8.27742 7.0879 8.27742H6.94571C6.94571 8.27742 6.67555 8.07277 6.7111 8.02656C6.7111 7.88793 6.95282 8.185 6.95282 8.185V8.00016V8.00676Z" fill="#CA3745"/>
<path fill-rule="evenodd" clip-rule="evenodd" d="M1.30085 9.41278C1.2582 9.32696 1.27242 9.28736 1.27242 9.24115C1.27242 9.19493 1.39328 9.10911 1.43593 9.10911C1.49281 9.10911 1.58523 9.20154 1.58523 9.25435C1.58523 9.30056 1.58523 9.34017 1.5639 9.42599L1.50702 9.28736C1.42882 9.4854 1.42171 9.4854 1.37906 9.28075L1.30796 9.41278H1.30085ZM1.30085 7.99345C1.26531 8.07927 1.27242 8.11888 1.27242 8.16509C1.27242 8.2113 1.39328 8.29712 1.44304 8.29712C1.49992 8.29712 1.59234 8.2047 1.59234 8.15189C1.59234 8.10568 1.59234 8.06607 1.57101 7.98025L1.50702 8.11888C1.43593 7.92084 1.42882 7.92084 1.37906 8.12548L1.30796 7.99345H1.30085ZM7.877 9.39298C7.83435 9.30716 7.84146 9.26755 7.84146 9.22134C7.84146 9.17513 7.96942 9.08931 8.01208 9.08931C8.06896 9.08931 8.16138 9.18833 8.16138 9.23454C8.16138 9.28075 8.16138 9.32697 8.14005 9.40618L8.07606 9.26755C8.00497 9.4656 7.99786 9.4722 7.9481 9.26755L7.877 9.39298ZM7.877 7.98025C7.83435 8.05947 7.84857 8.09908 7.84857 8.15189C7.84857 8.1915 7.96942 8.28392 8.01208 8.28392C8.06896 8.28392 8.16849 8.1849 8.16849 8.13869C8.16849 8.08587 8.16849 8.04626 8.14716 7.96044L8.07606 8.10568C8.00497 7.90103 8.00497 7.89443 7.95521 8.10568L7.88411 7.97365L7.877 7.98025Z" fill="white"/>
<path fill-rule="evenodd" clip-rule="evenodd" d="M3.9385 11.0498V10.6933H2.80101V9.99353H1.79148V9.76248H0.909921V7.65H1.79148V7.41895H2.80101V6.71919H3.9385V6.36932H5.44569V6.71919H6.58318V7.41895H7.5856V7.6566H8.47427V9.76248H7.59271V9.99353H6.59029V10.6933H5.4528V11.0432H3.94561L3.9385 11.0498ZM3.81054 11.162V10.8121H2.67304V10.1124H1.67062V9.8747H0.789062V7.53778H1.67062V7.30673H2.67304V6.60037H3.81054V6.25049H5.57366V6.60037H6.71115V7.30673H7.71357V7.53778H8.59513V9.8747H7.71357V10.1124H6.70404V10.8121H5.56655V11.162H3.81054Z" fill="#CA3745" stroke="black" stroke-width="0.0169824"/>
</g>
</g>
<defs>
<clipPath id="clip0_2_1385">
<rect width="32" height="32" rx="16" fill="white"/>
</clipPath>
</defs>
</svg>
