<svg width="20" height="26" viewBox="0 0 20 26" fill="none" xmlns="http://www.w3.org/2000/svg">
<path fill-rule="evenodd" clip-rule="evenodd" d="M17.2922 7.75H2.70775C1.90266 7.75 1.25 8.40266 1.25 9.20775V20.875C1.25 23.2912 3.20875 25.25 5.625 25.25H14.375C15.5353 25.25 16.6481 24.7891 17.4686 23.9686C18.2891 23.1481 18.75 22.0353 18.75 20.875V9.20775C18.75 8.40266 18.0973 7.75 17.2922 7.75Z" stroke="white" stroke-width="1.5" stroke-linecap="round" stroke-linejoin="round"/>
<path fill-rule="evenodd" clip-rule="evenodd" d="M15.25 4.25L13.983 1.71775C13.6868 1.12497 13.0812 0.750354 12.4185 0.75H7.5815C6.91883 0.750354 6.31321 1.12497 6.017 1.71775L4.75 4.25H15.25Z" stroke="white" stroke-width="1.5" stroke-linecap="round" stroke-linejoin="round"/>
<path d="M7.83275 13.5828C7.83275 13.1685 7.49696 12.8328 7.08275 12.8328C6.66854 12.8328 6.33275 13.1685 6.33275 13.5828H7.83275ZM6.33275 19.4155C6.33275 19.8297 6.66854 20.1655 7.08275 20.1655C7.49696 20.1655 7.83275 19.8297 7.83275 19.4155H6.33275ZM13.6672 13.5828C13.6672 13.1685 13.3315 12.8328 12.9172 12.8328C12.503 12.8328 12.1672 13.1685 12.1672 13.5828H13.6672ZM12.1672 19.4155C12.1672 19.8297 12.503 20.1655 12.9172 20.1655C13.3315 20.1655 13.6672 19.8297 13.6672 19.4155H12.1672ZM15.25 3.5C14.8358 3.5 14.5 3.83579 14.5 4.25C14.5 4.66421 14.8358 5 15.25 5V3.5ZM18.75 5C19.1642 5 19.5 4.66421 19.5 4.25C19.5 3.83579 19.1642 3.5 18.75 3.5V5ZM4.75 5C5.16421 5 5.5 4.66421 5.5 4.25C5.5 3.83579 5.16421 3.5 4.75 3.5V5ZM1.25 3.5C0.835786 3.5 0.5 3.83579 0.5 4.25C0.5 4.66421 0.835786 5 1.25 5V3.5ZM6.33275 13.5828V19.4155H7.83275V13.5828H6.33275ZM12.1672 13.5828V19.4155H13.6672V13.5828H12.1672ZM15.25 5H18.75V3.5H15.25V5ZM4.75 3.5H1.25V5H4.75V3.5Z" fill="white"/>
</svg>
