<svg width="32" height="32" viewBox="0 0 32 32" fill="none" xmlns="http://www.w3.org/2000/svg">
<g clip-path="url(#clip0_2_1342)">
<rect width="32" height="32" rx="16" fill="white"/>
<path fill-rule="evenodd" clip-rule="evenodd" d="M-10.2002 -0.508301H56.6857V2.20069H-10.2002V-0.508301ZM-10.2002 4.90968H56.6857V7.61866H-10.2002V4.90968ZM-10.2002 10.3208H56.6857V13.0366H-10.2002V10.3208ZM-10.2002 15.7388H56.6857V18.4477H-10.2002V15.7388ZM-10.2002 21.1567H56.6857V23.8657H-10.2002V21.1567ZM-10.2002 26.5678H56.6857V29.2768H-10.2002V26.5678ZM-10.2002 31.9858H56.6857V34.6948H-10.2002V31.9858Z" fill="#BD3D44"/>
<path fill-rule="evenodd" clip-rule="evenodd" d="M-10.2002 2.20068H56.6857V4.90967H-10.2002V2.20068ZM-10.2002 7.61866H56.6857V10.3208H-10.2002V7.61866ZM-10.2002 13.0298H56.6857V15.7387H-10.2002V13.0298ZM-10.2002 18.4477H56.6857V21.1567H-10.2002V18.4477ZM-10.2002 23.8657H56.6857V26.5747H-10.2002V23.8657ZM-10.2002 29.2768H56.6857V31.9858H-10.2002V29.2768Z" fill="white"/>
<path fill-rule="evenodd" clip-rule="evenodd" d="M-10.2002 -0.508301H16.5528V18.4477H-10.2002V-0.508301Z" fill="#192F5D"/>
<path fill-rule="evenodd" clip-rule="evenodd" d="M-7.97257 0.303223L-7.72504 1.05266H-6.94123L-7.57378 1.51333L-7.33313 2.26965L-7.97257 1.8021L-8.60512 2.26277L-8.36448 1.51333L-9.00391 1.05266H-8.20634L-7.97257 0.303223ZM-3.5103 0.303223L-3.26965 1.05266H-2.47896L-3.11839 1.51333L-2.87774 2.26965L-3.5103 1.8021L-4.14973 2.26277L-3.90908 1.51333L-4.54164 1.05266H-3.75782L-3.5103 0.303223ZM0.945093 0.303223L1.19261 1.05266H1.96956L1.337 1.51333L1.57765 2.26965L0.938217 1.8021L0.305662 2.26277L0.546308 1.51333L-0.0931234 1.05266H0.697571L0.945093 0.303223ZM5.40736 0.303223L5.64801 1.05266H6.4387L5.79927 1.51333L6.04679 2.26965L5.40736 1.8021L4.76793 2.26277L5.01545 1.51333L4.37602 1.05266H5.15984L5.40736 0.303223ZM9.86275 0.303223L10.1103 1.05266H10.8941L10.2615 1.51333L10.5022 2.26965L9.86275 1.8021L9.2302 2.26277L9.47084 1.51333L8.83829 1.05266H9.6221L9.86275 0.303223ZM14.325 0.303223L14.5657 1.05266H15.3564L14.7169 1.51333L14.9644 2.26965L14.325 1.8021L13.6856 2.26277L13.9331 1.51333L13.2937 1.05266H14.0844L14.325 0.303223ZM-5.73799 2.20089L-5.49735 2.95033H-4.70665L-5.34609 3.411L-5.11231 4.16044L-5.73112 3.69977L-6.37055 4.16044L-6.14366 3.411L-6.76246 2.95033H-5.97864L-5.73799 2.20089ZM-1.2826 2.20089L-1.03508 2.95033H-0.251263L-0.890695 3.411L-0.643172 4.16044L-1.2826 3.69977L-1.92203 4.16044L-1.67451 3.411L-2.31394 2.95033H-1.52325L-1.2826 2.20089ZM3.17966 2.20089L3.42031 2.95033H4.21101L3.57157 3.411L3.81222 4.16044L3.17966 3.69977L2.54023 4.16044L2.78088 3.411L2.14832 2.95033H2.93214L3.17966 2.20089ZM7.63505 2.20089L7.88258 2.95033H8.6664L8.02696 3.411L8.27449 4.16044L7.63505 3.69977L7.0025 4.16044L7.24314 3.411L6.60371 2.95033H7.40129L7.63505 2.20089ZM12.0973 2.20089L12.338 2.95033H13.1287L12.4892 3.411L12.7299 4.16044L12.0973 3.69977L11.4579 4.16044L11.6985 3.411L11.066 2.95033H11.8498L12.0973 2.20089ZM-7.97257 4.09168L-7.72504 4.85487H-6.94123L-7.57378 5.31554L-7.33313 6.06498L-7.97257 5.59744L-8.60512 6.06498L-8.36448 5.30866L-9.00391 4.848H-8.20634L-7.97257 4.09168ZM-3.5103 4.09168L-3.26965 4.848H-2.47896L-3.11839 5.30866L-2.87774 6.0581L-3.5103 5.59056L-4.14973 6.0581L-3.90908 5.30179L-4.54164 4.84112H-3.75782L-3.5103 4.09168ZM0.945093 4.09168L1.19261 4.848H1.96956L1.337 5.30866L1.57765 6.0581L0.938217 5.59056L0.305662 6.0581L0.546308 5.30179L-0.0931234 4.84112H0.697571L0.945093 4.09168ZM5.40736 4.09168L5.64801 4.848H6.4387L5.79927 5.30866L6.04679 6.0581L5.40736 5.59056L4.76793 6.0581L5.01545 5.30179L4.37602 4.84112H5.15984L5.40736 4.09168ZM9.86275 4.09168L10.1103 4.848H10.8941L10.2615 5.30866L10.5022 6.0581L9.86275 5.59056L9.2302 6.0581L9.47084 5.30179L8.83829 4.84112H9.6221L9.86275 4.09168ZM14.325 4.09168L14.5657 4.848H15.3564L14.7169 5.30866L14.9644 6.0581L14.325 5.59056L13.6856 6.0581L13.9331 5.30179L13.2937 4.84112H14.0844L14.325 4.09168ZM-5.73799 5.98935L-5.49735 6.73879H-4.70665L-5.34609 7.19945L-5.10544 7.95577L-5.73799 7.48823L-6.37743 7.94889L-6.13678 7.19945L-6.76934 6.73879H-5.98552L-5.73799 5.98935ZM-1.2826 5.98935L-1.03508 6.73879H-0.251263L-0.890695 7.19945L-0.643172 7.95577L-1.2826 7.48823L-1.92203 7.94889L-1.67451 7.19945L-2.31394 6.73879H-1.52325L-1.2826 5.98935ZM3.17966 5.98935L3.42031 6.73879H4.21101L3.57157 7.19945L3.81222 7.95577L3.17966 7.48823L2.54023 7.94889L2.78088 7.19945L2.14832 6.73879H2.93214L3.17966 5.98935ZM7.63505 5.98935L7.88258 6.73879H8.6664L8.03384 7.19945L8.27449 7.95577L7.63505 7.48823L7.0025 7.94889L7.24314 7.19945L6.60371 6.73879H7.40129L7.63505 5.98935ZM12.0973 5.98935L12.338 6.73879H13.1287L12.4892 7.19945L12.7299 7.95577L12.0973 7.48823L11.4579 7.94889L11.6985 7.19945L11.066 6.73879H11.8498L12.0973 5.98935ZM-7.97257 7.88701L-7.72504 8.63645H-6.94123L-7.57378 9.09712L-7.33313 9.85344L-7.97257 9.38589L-8.60512 9.84656L-8.36448 9.09712L-9.00391 8.63645H-8.20634L-7.97257 7.88701ZM-3.5103 7.88701L-3.26965 8.63645H-2.47896L-3.11839 9.09712L-2.87774 9.84656L-3.5103 9.38589L-4.14973 9.84656L-3.90908 9.09712L-4.54164 8.63645H-3.75782L-3.5103 7.88701ZM0.945093 7.88701L1.19261 8.63645H1.96956L1.337 9.09712L1.57765 9.85344L0.938217 9.38589L0.305662 9.84656L0.546308 9.09712L-0.0931234 8.63645H0.697571L0.945093 7.88701ZM5.40736 7.88701L5.64801 8.63645H6.4387L5.79927 9.09712L6.04679 9.85344L5.40736 9.38589L4.76793 9.84656L5.01545 9.09712L4.37602 8.63645H5.15984L5.40736 7.88701ZM9.86275 7.88701L10.1103 8.63645H10.8941L10.2615 9.09712L10.5022 9.85344L9.86275 9.38589L9.2302 9.84656L9.47084 9.09712L8.83829 8.63645H9.6221L9.86275 7.88701ZM14.325 7.88701L14.5657 8.63645H15.3564L14.7169 9.09712L14.9644 9.85344L14.325 9.38589L13.6856 9.84656L13.9331 9.09712L13.2937 8.63645H14.0844L14.325 7.88701ZM-5.73799 9.78468L-5.49735 10.5341H-4.70665L-5.34609 10.9948L-5.10544 11.7442L-5.73799 11.2767L-6.37743 11.7442L-6.13678 10.9879L-6.76934 10.5272H-5.98552L-5.73799 9.78468ZM-1.2826 9.78468L-1.03508 10.5341H-0.251263L-0.890695 10.9948L-0.643172 11.7442L-1.2826 11.2767L-1.92203 11.7442L-1.67451 10.9879L-2.31394 10.5272H-1.52325L-1.2826 9.78468ZM3.17966 9.78468L3.42031 10.5341H4.21101L3.57157 10.9948L3.81222 11.7442L3.17966 11.2767L2.54023 11.7442L2.78088 10.9879L2.14832 10.5272H2.93214L3.17966 9.78468ZM7.63505 9.78468L7.88258 10.5341H8.6664L8.03384 10.9948L8.27449 11.7442L7.63505 11.2767L7.0025 11.7442L7.24314 10.9879L6.60371 10.5272H7.40129L7.63505 9.78468ZM12.0973 9.78468L12.338 10.5341H13.1287L12.4892 10.9948L12.7299 11.7442L12.0973 11.2767L11.4579 11.7442L11.6985 10.9879L11.066 10.5272H11.8498L12.0973 9.78468ZM-7.97257 11.6755L-7.72504 12.4318H-6.94123L-7.57378 12.8925L-7.33313 13.635L-7.97257 13.1744L-8.60512 13.635L-8.36448 12.8856L-9.00391 12.4249H-8.20634L-7.97257 11.6755ZM-3.5103 11.6755L-3.26965 12.4318H-2.47896L-3.11839 12.8925L-2.87087 13.635L-3.5103 13.1744L-4.14973 13.635L-3.90221 12.8856L-4.54164 12.4249H-3.75782L-3.5103 11.6755ZM0.945093 11.6755L1.19261 12.4318H1.96956L1.337 12.8925L1.57765 13.635L0.938217 13.1744L0.305662 13.635L0.546308 12.8856L-0.0931234 12.4249H0.697571L0.945093 11.6755ZM5.40736 11.6755L5.64801 12.4318H6.4387L5.79927 12.8925L6.04679 13.635L5.40736 13.1744L4.76793 13.635L5.01545 12.8856L4.37602 12.4249H5.15984L5.40736 11.6755ZM9.86275 11.6755L10.1103 12.4318H10.8941L10.2615 12.8925L10.5022 13.635L9.86275 13.1744L9.2302 13.635L9.47084 12.8856L8.83829 12.4249H9.6221L9.86275 11.6755ZM14.325 11.6755L14.5657 12.4318H15.3564L14.7169 12.8925L14.9644 13.635L14.325 13.1744L13.6856 13.635L13.9331 12.8856L13.2937 12.4249H14.0844L14.325 11.6755ZM-5.73799 13.5731L-5.49735 14.3226H-4.70665L-5.34609 14.7832L-5.10544 15.5396L-5.73799 15.072L-6.37743 15.5327L-6.13678 14.7832L-6.76934 14.3226H-5.98552L-5.73799 13.5731ZM-1.2826 13.5731L-1.03508 14.3226H-0.251263L-0.890695 14.7832L-0.643172 15.5396L-1.2826 15.072L-1.92203 15.5327L-1.67451 14.7832L-2.31394 14.3226H-1.52325L-1.2826 13.5731ZM3.17966 13.5731L3.42031 14.3226H4.21101L3.57157 14.7832L3.81222 15.5396L3.17966 15.072L2.54023 15.5327L2.78088 14.7832L2.14832 14.3226H2.93214L3.17966 13.5731ZM7.63505 13.5731L7.88258 14.3226H8.6664L8.03384 14.7832L8.27449 15.5396L7.63505 15.072L7.0025 15.5327L7.24314 14.7832L6.60371 14.3226H7.40129L7.63505 13.5731ZM12.0973 13.5731L12.338 14.3226H13.1287L12.4892 14.7832L12.7299 15.5396L12.0973 15.072L11.4579 15.5327L11.6985 14.7832L11.066 14.3226H11.8498L12.0973 13.5731ZM-7.97257 15.4708L-7.72504 16.2202H-6.94123L-7.57378 16.6809L-7.33313 17.4304L-7.97257 16.9697L-8.60512 17.4304L-8.36448 16.674L-9.00391 16.2134H-8.20634L-7.97257 15.4708ZM-3.5103 15.4708L-3.26965 16.2202H-2.47896L-3.11839 16.6809L-2.87087 17.4304L-3.5103 16.9697L-4.14973 17.4304L-3.90221 16.674L-4.54164 16.2134H-3.75782L-3.5103 15.4708ZM0.945093 15.4708L1.19261 16.2202H1.96956L1.35075 16.6809L1.5914 17.4304L0.951968 16.9697L0.319413 17.4304L0.560059 16.674L-0.0793724 16.2134H0.711322L0.945093 15.4708ZM5.40736 15.4708L5.64801 16.2202H6.4387L5.79927 16.6809L6.04679 17.4304L5.40736 16.9697L4.76793 17.4304L5.01545 16.674L4.37602 16.2134H5.15984L5.40736 15.4708ZM9.86275 15.4708L10.1103 16.2202H10.8941L10.2615 16.6809L10.5022 17.4304L9.86275 16.9697L9.2302 17.4304L9.47084 16.674L8.83829 16.2134H9.6221L9.86275 15.4708ZM14.325 15.4708L14.5657 16.2202H15.3564L14.7169 16.6809L14.9644 17.4304L14.325 16.9697L13.6856 17.4304L13.9331 16.674L13.2937 16.2134H14.0844L14.325 15.4708Z" fill="white"/>
</g>
<defs>
<clipPath id="clip0_2_1342">
<rect width="32" height="32" rx="16" fill="white"/>
</clipPath>
</defs>
</svg>
